G04 #@! TF.FileFunction,Other,Fab,Top*
%FSLAX46Y46*%
G04 Gerber Fmt 4.6, Leading zero omitted, Abs format (unit mm)*
G04 Created by KiCad (PCBNEW 4.0.2-stable) date 2016年09月17日 星期六 10:25:48*
%MOMM*%
G01*
G04 APERTURE LIST*
%ADD10C,0.100000*%
%ADD11C,0.150000*%
G04 APERTURE END LIST*
D10*
D11*
X151634381Y-100798190D02*
X150634381Y-100798190D01*
X151586762Y-100369619D02*
X151634381Y-100226762D01*
X151634381Y-99988666D01*
X151586762Y-99893428D01*
X151539143Y-99845809D01*
X151443905Y-99798190D01*
X151348667Y-99798190D01*
X151253429Y-99845809D01*
X151205810Y-99893428D01*
X151158190Y-99988666D01*
X151110571Y-100179143D01*
X151062952Y-100274381D01*
X151015333Y-100322000D01*
X150920095Y-100369619D01*
X150824857Y-100369619D01*
X150729619Y-100322000D01*
X150682000Y-100274381D01*
X150634381Y-100179143D01*
X150634381Y-99941047D01*
X150682000Y-99798190D01*
X151634381Y-99369619D02*
X150634381Y-99369619D01*
X150634381Y-98988666D01*
X150682000Y-98893428D01*
X150729619Y-98845809D01*
X150824857Y-98798190D01*
X150967714Y-98798190D01*
X151062952Y-98845809D01*
X151110571Y-98893428D01*
X151158190Y-98988666D01*
X151158190Y-99369619D01*
X137437762Y-89788262D02*
X137485381Y-89645405D01*
X137485381Y-89407309D01*
X137437762Y-89312071D01*
X137390143Y-89264452D01*
X137294905Y-89216833D01*
X137199667Y-89216833D01*
X137104429Y-89264452D01*
X137056810Y-89312071D01*
X137009190Y-89407309D01*
X136961571Y-89597786D01*
X136913952Y-89693024D01*
X136866333Y-89740643D01*
X136771095Y-89788262D01*
X136675857Y-89788262D01*
X136580619Y-89740643D01*
X136533000Y-89693024D01*
X136485381Y-89597786D01*
X136485381Y-89359690D01*
X136533000Y-89216833D01*
X136485381Y-88931119D02*
X136485381Y-88359690D01*
X137485381Y-88645405D02*
X136485381Y-88645405D01*
X137485381Y-88026357D02*
X136485381Y-88026357D01*
X137199667Y-87693023D01*
X136485381Y-87359690D01*
X137485381Y-87359690D01*
X136485381Y-86978738D02*
X136485381Y-86359690D01*
X136866333Y-86693024D01*
X136866333Y-86550166D01*
X136913952Y-86454928D01*
X136961571Y-86407309D01*
X137056810Y-86359690D01*
X137294905Y-86359690D01*
X137390143Y-86407309D01*
X137437762Y-86454928D01*
X137485381Y-86550166D01*
X137485381Y-86835881D01*
X137437762Y-86931119D01*
X137390143Y-86978738D01*
X136580619Y-85978738D02*
X136533000Y-85931119D01*
X136485381Y-85835881D01*
X136485381Y-85597785D01*
X136533000Y-85502547D01*
X136580619Y-85454928D01*
X136675857Y-85407309D01*
X136771095Y-85407309D01*
X136913952Y-85454928D01*
X137485381Y-86026357D01*
X137485381Y-85407309D01*
X136961571Y-84645404D02*
X136961571Y-84978738D01*
X137485381Y-84978738D02*
X136485381Y-84978738D01*
X136485381Y-84502547D01*
X137485381Y-83597785D02*
X137485381Y-84169214D01*
X137485381Y-83883500D02*
X136485381Y-83883500D01*
X136628238Y-83978738D01*
X136723476Y-84073976D01*
X136771095Y-84169214D01*
X136485381Y-82978738D02*
X136485381Y-82883499D01*
X136533000Y-82788261D01*
X136580619Y-82740642D01*
X136675857Y-82693023D01*
X136866333Y-82645404D01*
X137104429Y-82645404D01*
X137294905Y-82693023D01*
X137390143Y-82740642D01*
X137437762Y-82788261D01*
X137485381Y-82883499D01*
X137485381Y-82978738D01*
X137437762Y-83073976D01*
X137390143Y-83121595D01*
X137294905Y-83169214D01*
X137104429Y-83216833D01*
X136866333Y-83216833D01*
X136675857Y-83169214D01*
X136580619Y-83121595D01*
X136533000Y-83073976D01*
X136485381Y-82978738D01*
X136485381Y-82312071D02*
X136485381Y-81693023D01*
X136866333Y-82026357D01*
X136866333Y-81883499D01*
X136913952Y-81788261D01*
X136961571Y-81740642D01*
X137056810Y-81693023D01*
X137294905Y-81693023D01*
X137390143Y-81740642D01*
X137437762Y-81788261D01*
X137485381Y-81883499D01*
X137485381Y-82169214D01*
X137437762Y-82264452D01*
X137390143Y-82312071D01*
X137485381Y-80693023D02*
X137009190Y-81026357D01*
X137485381Y-81264452D02*
X136485381Y-81264452D01*
X136485381Y-80883499D01*
X136533000Y-80788261D01*
X136580619Y-80740642D01*
X136675857Y-80693023D01*
X136818714Y-80693023D01*
X136913952Y-80740642D01*
X136961571Y-80788261D01*
X137009190Y-80883499D01*
X137009190Y-81264452D01*
X137390143Y-79693023D02*
X137437762Y-79740642D01*
X137485381Y-79883499D01*
X137485381Y-79978737D01*
X137437762Y-80121595D01*
X137342524Y-80216833D01*
X137247286Y-80264452D01*
X137056810Y-80312071D01*
X136913952Y-80312071D01*
X136723476Y-80264452D01*
X136628238Y-80216833D01*
X136533000Y-80121595D01*
X136485381Y-79978737D01*
X136485381Y-79883499D01*
X136533000Y-79740642D01*
X136580619Y-79693023D01*
X136485381Y-79407309D02*
X136485381Y-78835880D01*
X137485381Y-79121595D02*
X136485381Y-79121595D01*
X136485381Y-78073975D02*
X136485381Y-78264452D01*
X136533000Y-78359690D01*
X136580619Y-78407309D01*
X136723476Y-78502547D01*
X136913952Y-78550166D01*
X137294905Y-78550166D01*
X137390143Y-78502547D01*
X137437762Y-78454928D01*
X137485381Y-78359690D01*
X137485381Y-78169213D01*
X137437762Y-78073975D01*
X137390143Y-78026356D01*
X137294905Y-77978737D01*
X137056810Y-77978737D01*
X136961571Y-78026356D01*
X136913952Y-78073975D01*
X136866333Y-78169213D01*
X136866333Y-78359690D01*
X136913952Y-78454928D01*
X136961571Y-78502547D01*
X137056810Y-78550166D01*
M02*
