G04 #@! TF.FileFunction,Copper,L1,Top,Signal*
%FSLAX46Y46*%
G04 Gerber Fmt 4.6, Leading zero omitted, Abs format (unit mm)*
G04 Created by KiCad (PCBNEW 4.0.2-stable) date 2016年09月17日 星期六 10:25:48*
%MOMM*%
G01*
G04 APERTURE LIST*
%ADD10C,0.100000*%
%ADD11R,1.250000X1.000000*%
%ADD12R,0.750000X0.800000*%
%ADD13R,0.800000X0.750000*%
%ADD14R,2.500000X2.500000*%
%ADD15C,2.500000*%
%ADD16R,2.235200X2.235200*%
%ADD17R,1.727200X2.032000*%
%ADD18O,1.727200X2.032000*%
%ADD19R,1.727200X1.727200*%
%ADD20O,1.727200X1.727200*%
%ADD21R,0.500000X0.900000*%
%ADD22R,0.900000X0.500000*%
%ADD23R,0.800100X0.800100*%
%ADD24R,1.000000X0.250000*%
%ADD25R,0.250000X1.000000*%
%ADD26R,1.200000X1.400000*%
%ADD27C,1.000760*%
%ADD28C,0.600000*%
%ADD29C,2.000000*%
%ADD30C,0.500000*%
%ADD31C,0.250000*%
%ADD32C,0.254000*%
G04 APERTURE END LIST*
D10*
D11*
X150368000Y-97520000D03*
X150368000Y-95520000D03*
X145288000Y-97520000D03*
X145288000Y-95520000D03*
D12*
X151765000Y-95770000D03*
X151765000Y-97270000D03*
X143891000Y-95770000D03*
X143891000Y-97270000D03*
D13*
X148094000Y-93980000D03*
X149594000Y-93980000D03*
X154444000Y-86868000D03*
X155944000Y-86868000D03*
X155944000Y-92202000D03*
X154444000Y-92202000D03*
X153809000Y-93980000D03*
X155309000Y-93980000D03*
D12*
X152654000Y-87237000D03*
X152654000Y-85737000D03*
D13*
X151269000Y-84455000D03*
X152769000Y-84455000D03*
X152388000Y-93980000D03*
X150888000Y-93980000D03*
D12*
X136906000Y-90690000D03*
X136906000Y-92190000D03*
D13*
X146951000Y-79565500D03*
X148451000Y-79565500D03*
X140196000Y-79502000D03*
X138696000Y-79502000D03*
D14*
X175260000Y-80772000D03*
D15*
X175260000Y-85772000D03*
D14*
X175260000Y-91440000D03*
D15*
X175260000Y-96440000D03*
D16*
X171196000Y-75946000D03*
X171196000Y-101346000D03*
D14*
X113538000Y-85852000D03*
D15*
X113538000Y-80852000D03*
D14*
X113538000Y-96520000D03*
D15*
X113538000Y-91520000D03*
D16*
X117348000Y-75946000D03*
X117348000Y-101346000D03*
D17*
X134937500Y-76009500D03*
D18*
X137477500Y-76009500D03*
X140017500Y-76009500D03*
X142557500Y-76009500D03*
X145097500Y-76009500D03*
X147637500Y-76009500D03*
X150177500Y-76009500D03*
X152717500Y-76009500D03*
D17*
X148082000Y-99822000D03*
D18*
X145542000Y-99822000D03*
X143002000Y-99822000D03*
X140462000Y-99822000D03*
D17*
X156464000Y-76200000D03*
D18*
X159004000Y-76200000D03*
X161544000Y-76200000D03*
X164084000Y-76200000D03*
D19*
X121158000Y-78486000D03*
D20*
X121158000Y-75946000D03*
X123698000Y-78486000D03*
X123698000Y-75946000D03*
X126238000Y-78486000D03*
X126238000Y-75946000D03*
X128778000Y-78486000D03*
X128778000Y-75946000D03*
D21*
X143942500Y-79502000D03*
X142442500Y-79502000D03*
X146800000Y-93980000D03*
X145300000Y-93980000D03*
D22*
X152781000Y-88785000D03*
X152781000Y-90285000D03*
X151384000Y-85737000D03*
X151384000Y-87237000D03*
D23*
X146827240Y-95570000D03*
X146827240Y-97470000D03*
X148826220Y-96520000D03*
D24*
X149845000Y-90491000D03*
X149845000Y-89991000D03*
X149845000Y-89491000D03*
X149845000Y-88991000D03*
X149845000Y-88491000D03*
X149845000Y-87991000D03*
X149845000Y-87491000D03*
X149845000Y-86991000D03*
X149845000Y-86491000D03*
X149845000Y-85991000D03*
X149845000Y-85491000D03*
X149845000Y-84991000D03*
X149845000Y-84491000D03*
X149845000Y-83991000D03*
X149845000Y-83491000D03*
X149845000Y-82991000D03*
D25*
X147895000Y-81041000D03*
X147395000Y-81041000D03*
X146895000Y-81041000D03*
X146395000Y-81041000D03*
X145895000Y-81041000D03*
X145395000Y-81041000D03*
X144895000Y-81041000D03*
X144395000Y-81041000D03*
X143895000Y-81041000D03*
X143395000Y-81041000D03*
X142895000Y-81041000D03*
X142395000Y-81041000D03*
X141895000Y-81041000D03*
X141395000Y-81041000D03*
X140895000Y-81041000D03*
X140395000Y-81041000D03*
D24*
X138445000Y-82991000D03*
X138445000Y-83491000D03*
X138445000Y-83991000D03*
X138445000Y-84491000D03*
X138445000Y-84991000D03*
X138445000Y-85491000D03*
X138445000Y-85991000D03*
X138445000Y-86491000D03*
X138445000Y-86991000D03*
X138445000Y-87491000D03*
X138445000Y-87991000D03*
X138445000Y-88491000D03*
X138445000Y-88991000D03*
X138445000Y-89491000D03*
X138445000Y-89991000D03*
X138445000Y-90491000D03*
D25*
X140395000Y-92441000D03*
X140895000Y-92441000D03*
X141395000Y-92441000D03*
X141895000Y-92441000D03*
X142395000Y-92441000D03*
X142895000Y-92441000D03*
X143395000Y-92441000D03*
X143895000Y-92441000D03*
X144395000Y-92441000D03*
X144895000Y-92441000D03*
X145395000Y-92441000D03*
X145895000Y-92441000D03*
X146395000Y-92441000D03*
X146895000Y-92441000D03*
X147395000Y-92441000D03*
X147895000Y-92441000D03*
D26*
X154394000Y-88435000D03*
X154394000Y-90635000D03*
X155994000Y-88435000D03*
X155994000Y-90635000D03*
D27*
X152768300Y-91948000D03*
X151269700Y-91948000D03*
D28*
X127711200Y-92964000D03*
X147320000Y-78232000D03*
X146875500Y-84391500D03*
X144589500Y-84391500D03*
X141732000Y-94640400D03*
X147777200Y-82296000D03*
X143154400Y-78181200D03*
X139242800Y-78638400D03*
X141071600Y-82727800D03*
X146786600Y-96469200D03*
X152882600Y-95758000D03*
X149072600Y-95173800D03*
X150901400Y-92938600D03*
X149580600Y-92913200D03*
X156489400Y-93751400D03*
X154432000Y-93091000D03*
X155956000Y-85648800D03*
X153746200Y-85598000D03*
X153898600Y-84455000D03*
X148640800Y-85572600D03*
X147091400Y-91211400D03*
X139674600Y-89992200D03*
X136906000Y-93345000D03*
X148742400Y-89509600D03*
X153619200Y-80492600D03*
X145694400Y-79552800D03*
X161010600Y-88544400D03*
X145694400Y-82804000D03*
X134188200Y-86690200D03*
X144373600Y-83286600D03*
X136474200Y-85801200D03*
X142519400Y-83718400D03*
X137414000Y-78740000D03*
X140462000Y-84455000D03*
X140970000Y-89916000D03*
X141732000Y-90932000D03*
X150876000Y-79756000D03*
X156337000Y-80645000D03*
X132334000Y-79629000D03*
X141351000Y-79629000D03*
X135229600Y-81330800D03*
X141986000Y-82296000D03*
D29*
X140512800Y-104190800D02*
X129286000Y-92964000D01*
X129286000Y-92964000D02*
X127711200Y-92964000D01*
X146729200Y-104190800D02*
X140512800Y-104190800D01*
X148082000Y-99822000D02*
X148082000Y-102838000D01*
X148082000Y-102838000D02*
X146729200Y-104190800D01*
D30*
X174752000Y-80772000D02*
X175260000Y-80772000D01*
X151765000Y-97270000D02*
X150618000Y-97270000D01*
X150618000Y-97270000D02*
X150368000Y-97520000D01*
X150368000Y-97520000D02*
X150368000Y-99060000D01*
X149606000Y-99822000D02*
X148082000Y-99822000D01*
X150368000Y-99060000D02*
X149606000Y-99822000D01*
X148082000Y-99822000D02*
X148082000Y-98298000D01*
X148826220Y-97553780D02*
X148826220Y-96520000D01*
X148082000Y-98298000D02*
X148826220Y-97553780D01*
D31*
X148250600Y-90491000D02*
X148250600Y-90509400D01*
X148250600Y-90509400D02*
X147895000Y-90865000D01*
X147895000Y-90119200D02*
X147895000Y-90135400D01*
X147895000Y-90135400D02*
X148250600Y-90491000D01*
X149845000Y-90491000D02*
X148250600Y-90491000D01*
X148250600Y-90491000D02*
X147895000Y-90491000D01*
X147895000Y-90491000D02*
X147911200Y-90474800D01*
X147911200Y-90474800D02*
X147929600Y-90474800D01*
X147929600Y-90474800D02*
X147895000Y-90474800D01*
X146951000Y-79565500D02*
X146951000Y-78601000D01*
X146951000Y-78601000D02*
X147320000Y-78232000D01*
X123698000Y-78486000D02*
X124968000Y-77216000D01*
X127508000Y-77216000D02*
X128778000Y-78486000D01*
X124968000Y-77216000D02*
X127508000Y-77216000D01*
X140196000Y-79502000D02*
X140196000Y-78601000D01*
X134937500Y-77406500D02*
X134937500Y-76009500D01*
X135445500Y-77914500D02*
X134937500Y-77406500D01*
X139509500Y-77914500D02*
X135445500Y-77914500D01*
X140196000Y-78601000D02*
X139509500Y-77914500D01*
X146895000Y-81041000D02*
X146895000Y-79621500D01*
X146895000Y-79621500D02*
X146951000Y-79565500D01*
X146895000Y-81041000D02*
X146895000Y-84372000D01*
X146895000Y-84372000D02*
X146875500Y-84391500D01*
X147895000Y-85407500D02*
X147891500Y-85407500D01*
X147891500Y-85407500D02*
X146875500Y-84391500D01*
X140395000Y-83435500D02*
X140395000Y-81041000D01*
X144589500Y-84391500D02*
X141351000Y-84391500D01*
X141351000Y-84391500D02*
X140395000Y-83435500D01*
X151384000Y-85737000D02*
X151384000Y-84570000D01*
X151384000Y-84570000D02*
X151269000Y-84455000D01*
X147895000Y-92441000D02*
X147895000Y-90865000D01*
X147895000Y-90865000D02*
X147895000Y-90474800D01*
X147895000Y-90474800D02*
X147895000Y-90119200D01*
X147895000Y-90119200D02*
X147895000Y-85407500D01*
X147895000Y-85407500D02*
X147895000Y-85404000D01*
X148808000Y-84491000D02*
X149845000Y-84491000D01*
X147895000Y-85404000D02*
X148808000Y-84491000D01*
X149845000Y-84491000D02*
X151233000Y-84491000D01*
X151233000Y-84491000D02*
X151269000Y-84455000D01*
X140395000Y-81041000D02*
X140395000Y-79701000D01*
X140395000Y-79701000D02*
X140196000Y-79502000D01*
X143891000Y-97270000D02*
X142863000Y-97270000D01*
X138445000Y-92852000D02*
X138445000Y-90491000D01*
X142863000Y-97270000D02*
X138445000Y-92852000D01*
X148094000Y-93980000D02*
X148094000Y-95492000D01*
X147701000Y-96596240D02*
X146827240Y-97470000D01*
X147701000Y-95885000D02*
X147701000Y-96596240D01*
X148094000Y-95492000D02*
X147701000Y-95885000D01*
X138445000Y-90491000D02*
X137105000Y-90491000D01*
X137105000Y-90491000D02*
X136906000Y-90690000D01*
X147895000Y-92441000D02*
X147895000Y-93781000D01*
X147895000Y-93781000D02*
X148094000Y-93980000D01*
X143891000Y-97270000D02*
X145038000Y-97270000D01*
X145038000Y-97270000D02*
X145288000Y-97520000D01*
X145038000Y-97270000D02*
X145288000Y-97520000D01*
X146827240Y-97470000D02*
X145338000Y-97470000D01*
X145338000Y-97470000D02*
X145288000Y-97520000D01*
X143891000Y-95770000D02*
X142861600Y-95770000D01*
X142861600Y-95770000D02*
X141732000Y-94640400D01*
X147395000Y-81041000D02*
X147395000Y-81913800D01*
X147395000Y-81913800D02*
X147777200Y-82296000D01*
X148451000Y-79565500D02*
X148451000Y-77736000D01*
X148451000Y-77736000D02*
X150177500Y-76009500D01*
X143942500Y-79502000D02*
X143942500Y-78969300D01*
X143942500Y-78969300D02*
X143154400Y-78181200D01*
X138696000Y-79502000D02*
X138696000Y-79185200D01*
X138696000Y-79185200D02*
X139242800Y-78638400D01*
X140895000Y-81041000D02*
X140895000Y-82551200D01*
X140895000Y-82551200D02*
X141071600Y-82727800D01*
X152769000Y-84455000D02*
X152769000Y-85622000D01*
X152769000Y-85622000D02*
X152654000Y-85737000D01*
X149594000Y-93980000D02*
X150888000Y-93980000D01*
X150368000Y-95520000D02*
X151515000Y-95520000D01*
X151515000Y-95520000D02*
X151765000Y-95770000D01*
X145288000Y-95520000D02*
X146777240Y-95520000D01*
X146777240Y-95520000D02*
X146827240Y-95570000D01*
X143891000Y-95770000D02*
X145038000Y-95770000D01*
X145038000Y-95770000D02*
X145288000Y-95520000D01*
X146827240Y-95570000D02*
X146827240Y-96428560D01*
X146827240Y-96428560D02*
X146786600Y-96469200D01*
X151765000Y-95770000D02*
X152870600Y-95770000D01*
X152870600Y-95770000D02*
X152882600Y-95758000D01*
X150368000Y-95520000D02*
X149418800Y-95520000D01*
X149418800Y-95520000D02*
X149072600Y-95173800D01*
X150888000Y-93980000D02*
X150888000Y-92952000D01*
X150888000Y-92952000D02*
X150901400Y-92938600D01*
X149594000Y-93980000D02*
X149594000Y-92926600D01*
X149594000Y-92926600D02*
X149580600Y-92913200D01*
X155309000Y-93980000D02*
X156260800Y-93980000D01*
X156260800Y-93980000D02*
X156489400Y-93751400D01*
X154444000Y-92202000D02*
X154444000Y-93079000D01*
X154444000Y-93079000D02*
X154432000Y-93091000D01*
X155944000Y-86868000D02*
X155944000Y-85660800D01*
X155944000Y-85660800D02*
X155956000Y-85648800D01*
X152654000Y-85737000D02*
X153607200Y-85737000D01*
X153607200Y-85737000D02*
X153746200Y-85598000D01*
X152769000Y-84455000D02*
X153898600Y-84455000D01*
X149845000Y-84991000D02*
X149222400Y-84991000D01*
X149222400Y-84991000D02*
X148640800Y-85572600D01*
X147395000Y-92441000D02*
X147395000Y-91515000D01*
X147395000Y-91515000D02*
X147091400Y-91211400D01*
X138445000Y-89991000D02*
X139673400Y-89991000D01*
X139673400Y-89991000D02*
X139674600Y-89992200D01*
X136906000Y-92190000D02*
X136906000Y-93345000D01*
X149845000Y-87991000D02*
X150983000Y-87991000D01*
X151777000Y-88785000D02*
X152781000Y-88785000D01*
X150983000Y-87991000D02*
X151777000Y-88785000D01*
X154394000Y-88435000D02*
X154394000Y-86918000D01*
X154394000Y-86918000D02*
X154444000Y-86868000D01*
X152781000Y-88785000D02*
X154044000Y-88785000D01*
X154044000Y-88785000D02*
X154394000Y-88435000D01*
X152781000Y-90285000D02*
X152515000Y-90285000D01*
X152515000Y-90285000D02*
X150721000Y-88491000D01*
X150721000Y-88491000D02*
X149845000Y-88491000D01*
X155994000Y-90635000D02*
X155994000Y-92152000D01*
X155994000Y-92152000D02*
X155944000Y-92202000D01*
X152781000Y-90285000D02*
X152920000Y-90285000D01*
X152920000Y-90285000D02*
X153670000Y-89535000D01*
X155994000Y-89827000D02*
X155994000Y-90635000D01*
X155702000Y-89535000D02*
X155994000Y-89827000D01*
X153670000Y-89535000D02*
X155702000Y-89535000D01*
X152768300Y-91948000D02*
X152768300Y-92214700D01*
X152768300Y-92214700D02*
X153809000Y-93255400D01*
X153809000Y-93255400D02*
X153809000Y-93980000D01*
X149845000Y-88991000D02*
X150509800Y-88991000D01*
X151079200Y-90258900D02*
X152768300Y-91948000D01*
X151079200Y-89560400D02*
X151079200Y-90258900D01*
X150509800Y-88991000D02*
X151079200Y-89560400D01*
X151384000Y-87237000D02*
X152654000Y-87237000D01*
X149845000Y-87491000D02*
X151130000Y-87491000D01*
X151130000Y-87491000D02*
X151384000Y-87237000D01*
X152388000Y-93980000D02*
X152388000Y-93066300D01*
X152388000Y-93066300D02*
X151269700Y-91948000D01*
X149845000Y-89491000D02*
X148761000Y-89491000D01*
X148761000Y-89491000D02*
X148742400Y-89509600D01*
X145395000Y-81041000D02*
X145395000Y-79852200D01*
X168478200Y-78663800D02*
X171196000Y-75946000D01*
X155448000Y-78663800D02*
X168478200Y-78663800D01*
X153619200Y-80492600D02*
X155448000Y-78663800D01*
X145395000Y-79852200D02*
X145694400Y-79552800D01*
X171196000Y-98729800D02*
X171196000Y-101346000D01*
X161010600Y-88544400D02*
X171196000Y-98729800D01*
X144895000Y-82004600D02*
X145694400Y-82804000D01*
X144895000Y-81041000D02*
X144895000Y-82004600D01*
X143395000Y-81041000D02*
X143395000Y-82308000D01*
X117348000Y-77901800D02*
X117348000Y-75946000D01*
X120294400Y-80848200D02*
X117348000Y-77901800D01*
X128346200Y-80848200D02*
X120294400Y-80848200D01*
X134188200Y-86690200D02*
X128346200Y-80848200D01*
X143395000Y-82308000D02*
X144373600Y-83286600D01*
X142895000Y-81041000D02*
X142895000Y-83342800D01*
X117348000Y-99263200D02*
X117348000Y-101346000D01*
X126136400Y-90474800D02*
X117348000Y-99263200D01*
X131800600Y-90474800D02*
X126136400Y-90474800D01*
X136474200Y-85801200D02*
X131800600Y-90474800D01*
X142895000Y-83342800D02*
X142519400Y-83718400D01*
X138445000Y-84491000D02*
X137513500Y-84491000D01*
X136906000Y-79248000D02*
X137414000Y-78740000D01*
X136906000Y-83883500D02*
X136906000Y-79248000D01*
X137513500Y-84491000D02*
X136906000Y-83883500D01*
X138445000Y-83991000D02*
X139998000Y-83991000D01*
X139998000Y-83991000D02*
X140462000Y-84455000D01*
X138445000Y-87991000D02*
X140569000Y-87991000D01*
X140970000Y-88392000D02*
X140970000Y-89916000D01*
X140569000Y-87991000D02*
X140970000Y-88392000D01*
X138445000Y-87491000D02*
X140831000Y-87491000D01*
X141732000Y-88392000D02*
X141732000Y-90932000D01*
X140831000Y-87491000D02*
X141732000Y-88392000D01*
X149591000Y-81041000D02*
X150876000Y-79756000D01*
X147895000Y-81041000D02*
X149591000Y-81041000D01*
X149845000Y-82991000D02*
X153991000Y-82991000D01*
X153991000Y-82991000D02*
X156337000Y-80645000D01*
X141895000Y-81041000D02*
X141895000Y-80173000D01*
X121158000Y-79629000D02*
X121158000Y-78486000D01*
X121666000Y-80137000D02*
X121158000Y-79629000D01*
X131826000Y-80137000D02*
X121666000Y-80137000D01*
X132334000Y-79629000D02*
X131826000Y-80137000D01*
X141895000Y-80173000D02*
X141351000Y-79629000D01*
X141395000Y-81041000D02*
X141395000Y-81705000D01*
X129844800Y-75946000D02*
X128778000Y-75946000D01*
X135229600Y-81330800D02*
X129844800Y-75946000D01*
X141395000Y-81705000D02*
X141986000Y-82296000D01*
X142395000Y-81041000D02*
X142395000Y-79549500D01*
X142395000Y-79549500D02*
X142442500Y-79502000D01*
X145300000Y-93980000D02*
X145542000Y-93980000D01*
X145542000Y-93980000D02*
X145895000Y-93627000D01*
X145895000Y-93627000D02*
X145895000Y-92441000D01*
D32*
G36*
X115712448Y-74828400D02*
X115712448Y-77063600D01*
X115747870Y-77251853D01*
X115859128Y-77424753D01*
X116028888Y-77540745D01*
X116230400Y-77581552D01*
X116715000Y-77581552D01*
X116715000Y-77901795D01*
X116714999Y-77901800D01*
X116763184Y-78144039D01*
X116900401Y-78349399D01*
X119846799Y-81295796D01*
X119846801Y-81295799D01*
X120052161Y-81433016D01*
X120092352Y-81441010D01*
X120294400Y-81481201D01*
X120294405Y-81481200D01*
X128084002Y-81481200D01*
X133380123Y-86777321D01*
X133380060Y-86850216D01*
X133502811Y-87147297D01*
X133729907Y-87374790D01*
X133924578Y-87455625D01*
X131538402Y-89841800D01*
X126136400Y-89841800D01*
X125894161Y-89889984D01*
X125688801Y-90027201D01*
X125688799Y-90027204D01*
X116900401Y-98815601D01*
X116763184Y-99020961D01*
X116714999Y-99263200D01*
X116715000Y-99263205D01*
X116715000Y-99710448D01*
X116230400Y-99710448D01*
X116042147Y-99745870D01*
X115869247Y-99857128D01*
X115753255Y-100026888D01*
X115712448Y-100228400D01*
X115712448Y-102463600D01*
X115747870Y-102651853D01*
X115806521Y-102743000D01*
X108331000Y-102743000D01*
X108331000Y-95270000D01*
X111770048Y-95270000D01*
X111770048Y-97770000D01*
X111805470Y-97958253D01*
X111916728Y-98131153D01*
X112086488Y-98247145D01*
X112288000Y-98287952D01*
X114788000Y-98287952D01*
X114976253Y-98252530D01*
X115149153Y-98141272D01*
X115265145Y-97971512D01*
X115305952Y-97770000D01*
X115305952Y-95270000D01*
X115270530Y-95081747D01*
X115159272Y-94908847D01*
X114989512Y-94792855D01*
X114788000Y-94752048D01*
X112288000Y-94752048D01*
X112099747Y-94787470D01*
X111926847Y-94898728D01*
X111810855Y-95068488D01*
X111770048Y-95270000D01*
X108331000Y-95270000D01*
X108331000Y-92853320D01*
X112384285Y-92853320D01*
X112513533Y-93146123D01*
X113213806Y-93414388D01*
X113963435Y-93394250D01*
X114562467Y-93146123D01*
X114691715Y-92853320D01*
X113538000Y-91699605D01*
X112384285Y-92853320D01*
X108331000Y-92853320D01*
X108331000Y-91195806D01*
X111643612Y-91195806D01*
X111663750Y-91945435D01*
X111911877Y-92544467D01*
X112204680Y-92673715D01*
X113358395Y-91520000D01*
X113717605Y-91520000D01*
X114871320Y-92673715D01*
X115164123Y-92544467D01*
X115432388Y-91844194D01*
X115412250Y-91094565D01*
X115164123Y-90495533D01*
X114871320Y-90366285D01*
X113717605Y-91520000D01*
X113358395Y-91520000D01*
X112204680Y-90366285D01*
X111911877Y-90495533D01*
X111643612Y-91195806D01*
X108331000Y-91195806D01*
X108331000Y-90186680D01*
X112384285Y-90186680D01*
X113538000Y-91340395D01*
X114691715Y-90186680D01*
X114562467Y-89893877D01*
X113862194Y-89625612D01*
X113112565Y-89645750D01*
X112513533Y-89893877D01*
X112384285Y-90186680D01*
X108331000Y-90186680D01*
X108331000Y-84602000D01*
X111770048Y-84602000D01*
X111770048Y-87102000D01*
X111805470Y-87290253D01*
X111916728Y-87463153D01*
X112086488Y-87579145D01*
X112288000Y-87619952D01*
X114788000Y-87619952D01*
X114976253Y-87584530D01*
X115149153Y-87473272D01*
X115265145Y-87303512D01*
X115305952Y-87102000D01*
X115305952Y-84602000D01*
X115270530Y-84413747D01*
X115159272Y-84240847D01*
X114989512Y-84124855D01*
X114788000Y-84084048D01*
X112288000Y-84084048D01*
X112099747Y-84119470D01*
X111926847Y-84230728D01*
X111810855Y-84400488D01*
X111770048Y-84602000D01*
X108331000Y-84602000D01*
X108331000Y-82185320D01*
X112384285Y-82185320D01*
X112513533Y-82478123D01*
X113213806Y-82746388D01*
X113963435Y-82726250D01*
X114562467Y-82478123D01*
X114691715Y-82185320D01*
X113538000Y-81031605D01*
X112384285Y-82185320D01*
X108331000Y-82185320D01*
X108331000Y-80527806D01*
X111643612Y-80527806D01*
X111663750Y-81277435D01*
X111911877Y-81876467D01*
X112204680Y-82005715D01*
X113358395Y-80852000D01*
X113717605Y-80852000D01*
X114871320Y-82005715D01*
X115164123Y-81876467D01*
X115432388Y-81176194D01*
X115412250Y-80426565D01*
X115164123Y-79827533D01*
X114871320Y-79698285D01*
X113717605Y-80852000D01*
X113358395Y-80852000D01*
X112204680Y-79698285D01*
X111911877Y-79827533D01*
X111643612Y-80527806D01*
X108331000Y-80527806D01*
X108331000Y-79518680D01*
X112384285Y-79518680D01*
X113538000Y-80672395D01*
X114691715Y-79518680D01*
X114562467Y-79225877D01*
X113862194Y-78957612D01*
X113112565Y-78977750D01*
X112513533Y-79225877D01*
X112384285Y-79518680D01*
X108331000Y-79518680D01*
X108331000Y-74803000D01*
X115717592Y-74803000D01*
X115712448Y-74828400D01*
X115712448Y-74828400D01*
G37*
X115712448Y-74828400D02*
X115712448Y-77063600D01*
X115747870Y-77251853D01*
X115859128Y-77424753D01*
X116028888Y-77540745D01*
X116230400Y-77581552D01*
X116715000Y-77581552D01*
X116715000Y-77901795D01*
X116714999Y-77901800D01*
X116763184Y-78144039D01*
X116900401Y-78349399D01*
X119846799Y-81295796D01*
X119846801Y-81295799D01*
X120052161Y-81433016D01*
X120092352Y-81441010D01*
X120294400Y-81481201D01*
X120294405Y-81481200D01*
X128084002Y-81481200D01*
X133380123Y-86777321D01*
X133380060Y-86850216D01*
X133502811Y-87147297D01*
X133729907Y-87374790D01*
X133924578Y-87455625D01*
X131538402Y-89841800D01*
X126136400Y-89841800D01*
X125894161Y-89889984D01*
X125688801Y-90027201D01*
X125688799Y-90027204D01*
X116900401Y-98815601D01*
X116763184Y-99020961D01*
X116714999Y-99263200D01*
X116715000Y-99263205D01*
X116715000Y-99710448D01*
X116230400Y-99710448D01*
X116042147Y-99745870D01*
X115869247Y-99857128D01*
X115753255Y-100026888D01*
X115712448Y-100228400D01*
X115712448Y-102463600D01*
X115747870Y-102651853D01*
X115806521Y-102743000D01*
X108331000Y-102743000D01*
X108331000Y-95270000D01*
X111770048Y-95270000D01*
X111770048Y-97770000D01*
X111805470Y-97958253D01*
X111916728Y-98131153D01*
X112086488Y-98247145D01*
X112288000Y-98287952D01*
X114788000Y-98287952D01*
X114976253Y-98252530D01*
X115149153Y-98141272D01*
X115265145Y-97971512D01*
X115305952Y-97770000D01*
X115305952Y-95270000D01*
X115270530Y-95081747D01*
X115159272Y-94908847D01*
X114989512Y-94792855D01*
X114788000Y-94752048D01*
X112288000Y-94752048D01*
X112099747Y-94787470D01*
X111926847Y-94898728D01*
X111810855Y-95068488D01*
X111770048Y-95270000D01*
X108331000Y-95270000D01*
X108331000Y-92853320D01*
X112384285Y-92853320D01*
X112513533Y-93146123D01*
X113213806Y-93414388D01*
X113963435Y-93394250D01*
X114562467Y-93146123D01*
X114691715Y-92853320D01*
X113538000Y-91699605D01*
X112384285Y-92853320D01*
X108331000Y-92853320D01*
X108331000Y-91195806D01*
X111643612Y-91195806D01*
X111663750Y-91945435D01*
X111911877Y-92544467D01*
X112204680Y-92673715D01*
X113358395Y-91520000D01*
X113717605Y-91520000D01*
X114871320Y-92673715D01*
X115164123Y-92544467D01*
X115432388Y-91844194D01*
X115412250Y-91094565D01*
X115164123Y-90495533D01*
X114871320Y-90366285D01*
X113717605Y-91520000D01*
X113358395Y-91520000D01*
X112204680Y-90366285D01*
X111911877Y-90495533D01*
X111643612Y-91195806D01*
X108331000Y-91195806D01*
X108331000Y-90186680D01*
X112384285Y-90186680D01*
X113538000Y-91340395D01*
X114691715Y-90186680D01*
X114562467Y-89893877D01*
X113862194Y-89625612D01*
X113112565Y-89645750D01*
X112513533Y-89893877D01*
X112384285Y-90186680D01*
X108331000Y-90186680D01*
X108331000Y-84602000D01*
X111770048Y-84602000D01*
X111770048Y-87102000D01*
X111805470Y-87290253D01*
X111916728Y-87463153D01*
X112086488Y-87579145D01*
X112288000Y-87619952D01*
X114788000Y-87619952D01*
X114976253Y-87584530D01*
X115149153Y-87473272D01*
X115265145Y-87303512D01*
X115305952Y-87102000D01*
X115305952Y-84602000D01*
X115270530Y-84413747D01*
X115159272Y-84240847D01*
X114989512Y-84124855D01*
X114788000Y-84084048D01*
X112288000Y-84084048D01*
X112099747Y-84119470D01*
X111926847Y-84230728D01*
X111810855Y-84400488D01*
X111770048Y-84602000D01*
X108331000Y-84602000D01*
X108331000Y-82185320D01*
X112384285Y-82185320D01*
X112513533Y-82478123D01*
X113213806Y-82746388D01*
X113963435Y-82726250D01*
X114562467Y-82478123D01*
X114691715Y-82185320D01*
X113538000Y-81031605D01*
X112384285Y-82185320D01*
X108331000Y-82185320D01*
X108331000Y-80527806D01*
X111643612Y-80527806D01*
X111663750Y-81277435D01*
X111911877Y-81876467D01*
X112204680Y-82005715D01*
X113358395Y-80852000D01*
X113717605Y-80852000D01*
X114871320Y-82005715D01*
X115164123Y-81876467D01*
X115432388Y-81176194D01*
X115412250Y-80426565D01*
X115164123Y-79827533D01*
X114871320Y-79698285D01*
X113717605Y-80852000D01*
X113358395Y-80852000D01*
X112204680Y-79698285D01*
X111911877Y-79827533D01*
X111643612Y-80527806D01*
X108331000Y-80527806D01*
X108331000Y-79518680D01*
X112384285Y-79518680D01*
X113538000Y-80672395D01*
X114691715Y-79518680D01*
X114562467Y-79225877D01*
X113862194Y-78957612D01*
X113112565Y-78977750D01*
X112513533Y-79225877D01*
X112384285Y-79518680D01*
X108331000Y-79518680D01*
X108331000Y-74803000D01*
X115717592Y-74803000D01*
X115712448Y-74828400D01*
G36*
X165481000Y-74676000D02*
X165491006Y-74725410D01*
X165519447Y-74767035D01*
X165561841Y-74794315D01*
X165608000Y-74803000D01*
X169565592Y-74803000D01*
X169560448Y-74828400D01*
X169560448Y-76686355D01*
X168216002Y-78030800D01*
X155448005Y-78030800D01*
X155448000Y-78030799D01*
X155248041Y-78070574D01*
X155205761Y-78078984D01*
X155000401Y-78216201D01*
X155000399Y-78216204D01*
X153532079Y-79684523D01*
X153459184Y-79684460D01*
X153162103Y-79807211D01*
X152934610Y-80034307D01*
X152811340Y-80331174D01*
X152811060Y-80652616D01*
X152933811Y-80949697D01*
X153160907Y-81177190D01*
X153457774Y-81300460D01*
X153779216Y-81300740D01*
X154076297Y-81177989D01*
X154303790Y-80950893D01*
X154427060Y-80654026D01*
X154427125Y-80579873D01*
X155484997Y-79522000D01*
X173492048Y-79522000D01*
X173492048Y-82022000D01*
X173527470Y-82210253D01*
X173638728Y-82383153D01*
X173808488Y-82499145D01*
X174010000Y-82539952D01*
X176510000Y-82539952D01*
X176698253Y-82504530D01*
X176871153Y-82393272D01*
X176987145Y-82223512D01*
X177027952Y-82022000D01*
X177027952Y-79522000D01*
X176992530Y-79333747D01*
X176881272Y-79160847D01*
X176711512Y-79044855D01*
X176510000Y-79004048D01*
X174010000Y-79004048D01*
X173821747Y-79039470D01*
X173648847Y-79150728D01*
X173532855Y-79320488D01*
X173492048Y-79522000D01*
X155484997Y-79522000D01*
X155710197Y-79296800D01*
X168478195Y-79296800D01*
X168478200Y-79296801D01*
X168720439Y-79248616D01*
X168925799Y-79111399D01*
X170455645Y-77581552D01*
X172313600Y-77581552D01*
X172501853Y-77546130D01*
X172674753Y-77434872D01*
X172790745Y-77265112D01*
X172831552Y-77063600D01*
X172831552Y-74828400D01*
X172826773Y-74803000D01*
X180467000Y-74803000D01*
X180467000Y-102743000D01*
X172737526Y-102743000D01*
X172790745Y-102665112D01*
X172831552Y-102463600D01*
X172831552Y-100228400D01*
X172796130Y-100040147D01*
X172684872Y-99867247D01*
X172515112Y-99751255D01*
X172313600Y-99710448D01*
X171829000Y-99710448D01*
X171829000Y-98729805D01*
X171829001Y-98729800D01*
X171780816Y-98487562D01*
X171780816Y-98487561D01*
X171643599Y-98282201D01*
X171643596Y-98282199D01*
X171134718Y-97773320D01*
X174106285Y-97773320D01*
X174235533Y-98066123D01*
X174935806Y-98334388D01*
X175685435Y-98314250D01*
X176284467Y-98066123D01*
X176413715Y-97773320D01*
X175260000Y-96619605D01*
X174106285Y-97773320D01*
X171134718Y-97773320D01*
X169477204Y-96115806D01*
X173365612Y-96115806D01*
X173385750Y-96865435D01*
X173633877Y-97464467D01*
X173926680Y-97593715D01*
X175080395Y-96440000D01*
X175439605Y-96440000D01*
X176593320Y-97593715D01*
X176886123Y-97464467D01*
X177154388Y-96764194D01*
X177134250Y-96014565D01*
X176886123Y-95415533D01*
X176593320Y-95286285D01*
X175439605Y-96440000D01*
X175080395Y-96440000D01*
X173926680Y-95286285D01*
X173633877Y-95415533D01*
X173365612Y-96115806D01*
X169477204Y-96115806D01*
X168468078Y-95106680D01*
X174106285Y-95106680D01*
X175260000Y-96260395D01*
X176413715Y-95106680D01*
X176284467Y-94813877D01*
X175584194Y-94545612D01*
X174834565Y-94565750D01*
X174235533Y-94813877D01*
X174106285Y-95106680D01*
X168468078Y-95106680D01*
X163551398Y-90190000D01*
X173492048Y-90190000D01*
X173492048Y-92690000D01*
X173527470Y-92878253D01*
X173638728Y-93051153D01*
X173808488Y-93167145D01*
X174010000Y-93207952D01*
X176510000Y-93207952D01*
X176698253Y-93172530D01*
X176871153Y-93061272D01*
X176987145Y-92891512D01*
X177027952Y-92690000D01*
X177027952Y-90190000D01*
X176992530Y-90001747D01*
X176881272Y-89828847D01*
X176711512Y-89712855D01*
X176510000Y-89672048D01*
X174010000Y-89672048D01*
X173821747Y-89707470D01*
X173648847Y-89818728D01*
X173532855Y-89988488D01*
X173492048Y-90190000D01*
X163551398Y-90190000D01*
X161818677Y-88457279D01*
X161818740Y-88384384D01*
X161695989Y-88087303D01*
X161468893Y-87859810D01*
X161172026Y-87736540D01*
X160850584Y-87736260D01*
X160553503Y-87859011D01*
X160326010Y-88086107D01*
X160202740Y-88382974D01*
X160202460Y-88704416D01*
X160325211Y-89001497D01*
X160552307Y-89228990D01*
X160849174Y-89352260D01*
X160923327Y-89352325D01*
X170563000Y-98991997D01*
X170563000Y-99710448D01*
X170078400Y-99710448D01*
X169890147Y-99745870D01*
X169717247Y-99857128D01*
X169601255Y-100026888D01*
X169560448Y-100228400D01*
X169560448Y-102463600D01*
X169595870Y-102651853D01*
X169654521Y-102743000D01*
X149590000Y-102743000D01*
X149590000Y-100580000D01*
X149606000Y-100580000D01*
X149896074Y-100522301D01*
X150141987Y-100357987D01*
X150903987Y-99595987D01*
X151068301Y-99350074D01*
X151126000Y-99060000D01*
X151126000Y-98512926D01*
X151181253Y-98502530D01*
X151354153Y-98391272D01*
X151470145Y-98221512D01*
X151476941Y-98187952D01*
X152140000Y-98187952D01*
X152328253Y-98152530D01*
X152501153Y-98041272D01*
X152617145Y-97871512D01*
X152657952Y-97670000D01*
X152657952Y-96870000D01*
X152622530Y-96681747D01*
X152584844Y-96623181D01*
X152678327Y-96529698D01*
X152775000Y-96296309D01*
X152775000Y-96055750D01*
X152616250Y-95897000D01*
X151892000Y-95897000D01*
X151892000Y-95917000D01*
X151638000Y-95917000D01*
X151638000Y-95897000D01*
X151628000Y-95897000D01*
X151628000Y-95805750D01*
X151618000Y-95795750D01*
X151618000Y-95647002D01*
X151628000Y-95647002D01*
X151628000Y-95643000D01*
X151638000Y-95643000D01*
X151638000Y-95623000D01*
X151892000Y-95623000D01*
X151892000Y-95643000D01*
X152616250Y-95643000D01*
X152775000Y-95484250D01*
X152775000Y-95243691D01*
X152678327Y-95010302D01*
X152540978Y-94872952D01*
X152788000Y-94872952D01*
X152976253Y-94837530D01*
X153099397Y-94758289D01*
X153207488Y-94832145D01*
X153409000Y-94872952D01*
X154209000Y-94872952D01*
X154397253Y-94837530D01*
X154455819Y-94799844D01*
X154549302Y-94893327D01*
X154782691Y-94990000D01*
X155023250Y-94990000D01*
X155182000Y-94831250D01*
X155182000Y-94107000D01*
X155436000Y-94107000D01*
X155436000Y-94831250D01*
X155594750Y-94990000D01*
X155835309Y-94990000D01*
X156068698Y-94893327D01*
X156247327Y-94714699D01*
X156344000Y-94481310D01*
X156344000Y-94265750D01*
X156185250Y-94107000D01*
X155436000Y-94107000D01*
X155182000Y-94107000D01*
X155162000Y-94107000D01*
X155162000Y-93853000D01*
X155182000Y-93853000D01*
X155182000Y-93833000D01*
X155436000Y-93833000D01*
X155436000Y-93853000D01*
X156185250Y-93853000D01*
X156344000Y-93694250D01*
X156344000Y-93478690D01*
X156247327Y-93245301D01*
X156096977Y-93094952D01*
X156344000Y-93094952D01*
X156532253Y-93059530D01*
X156705153Y-92948272D01*
X156821145Y-92778512D01*
X156861952Y-92577000D01*
X156861952Y-91827000D01*
X156851755Y-91772807D01*
X156955153Y-91706272D01*
X157071145Y-91536512D01*
X157111952Y-91335000D01*
X157111952Y-89935000D01*
X157076530Y-89746747D01*
X156965272Y-89573847D01*
X156909432Y-89535693D01*
X156955153Y-89506272D01*
X157071145Y-89336512D01*
X157111952Y-89135000D01*
X157111952Y-87735000D01*
X157076530Y-87546747D01*
X156972481Y-87385049D01*
X156979000Y-87369310D01*
X156979000Y-87153750D01*
X156930570Y-87105320D01*
X174106285Y-87105320D01*
X174235533Y-87398123D01*
X174935806Y-87666388D01*
X175685435Y-87646250D01*
X176284467Y-87398123D01*
X176413715Y-87105320D01*
X175260000Y-85951605D01*
X174106285Y-87105320D01*
X156930570Y-87105320D01*
X156820250Y-86995000D01*
X156071000Y-86995000D01*
X156071000Y-87015000D01*
X155817000Y-87015000D01*
X155817000Y-86995000D01*
X155797000Y-86995000D01*
X155797000Y-86741000D01*
X155817000Y-86741000D01*
X155817000Y-86016750D01*
X156071000Y-86016750D01*
X156071000Y-86741000D01*
X156820250Y-86741000D01*
X156979000Y-86582250D01*
X156979000Y-86366690D01*
X156882327Y-86133301D01*
X156703698Y-85954673D01*
X156470309Y-85858000D01*
X156229750Y-85858000D01*
X156071000Y-86016750D01*
X155817000Y-86016750D01*
X155658250Y-85858000D01*
X155417691Y-85858000D01*
X155184302Y-85954673D01*
X155091617Y-86047357D01*
X155045512Y-86015855D01*
X154844000Y-85975048D01*
X154044000Y-85975048D01*
X153855747Y-86010470D01*
X153682847Y-86121728D01*
X153664000Y-86149312D01*
X153664000Y-86022750D01*
X153505250Y-85864000D01*
X152781000Y-85864000D01*
X152781000Y-85884000D01*
X152527000Y-85884000D01*
X152527000Y-85864000D01*
X152507000Y-85864000D01*
X152507000Y-85610000D01*
X152527000Y-85610000D01*
X152527000Y-85421250D01*
X152642000Y-85306250D01*
X152642000Y-84860750D01*
X152781000Y-84860750D01*
X152781000Y-85610000D01*
X153505250Y-85610000D01*
X153664000Y-85451250D01*
X153664000Y-85447806D01*
X173365612Y-85447806D01*
X173385750Y-86197435D01*
X173633877Y-86796467D01*
X173926680Y-86925715D01*
X175080395Y-85772000D01*
X175439605Y-85772000D01*
X176593320Y-86925715D01*
X176886123Y-86796467D01*
X177154388Y-86096194D01*
X177134250Y-85346565D01*
X176886123Y-84747533D01*
X176593320Y-84618285D01*
X175439605Y-85772000D01*
X175080395Y-85772000D01*
X173926680Y-84618285D01*
X173633877Y-84747533D01*
X173365612Y-85447806D01*
X153664000Y-85447806D01*
X153664000Y-85233026D01*
X153707327Y-85189699D01*
X153804000Y-84956310D01*
X153804000Y-84740750D01*
X153645250Y-84582000D01*
X152896000Y-84582000D01*
X152896000Y-84745750D01*
X152781000Y-84860750D01*
X152642000Y-84860750D01*
X152642000Y-84582000D01*
X152622000Y-84582000D01*
X152622000Y-84438680D01*
X174106285Y-84438680D01*
X175260000Y-85592395D01*
X176413715Y-84438680D01*
X176284467Y-84145877D01*
X175584194Y-83877612D01*
X174834565Y-83897750D01*
X174235533Y-84145877D01*
X174106285Y-84438680D01*
X152622000Y-84438680D01*
X152622000Y-84328000D01*
X152642000Y-84328000D01*
X152642000Y-84308000D01*
X152896000Y-84308000D01*
X152896000Y-84328000D01*
X153645250Y-84328000D01*
X153804000Y-84169250D01*
X153804000Y-83953690D01*
X153707327Y-83720301D01*
X153611025Y-83624000D01*
X153990995Y-83624000D01*
X153991000Y-83624001D01*
X154233239Y-83575816D01*
X154438599Y-83438599D01*
X156424121Y-81453077D01*
X156497016Y-81453140D01*
X156794097Y-81330389D01*
X157021590Y-81103293D01*
X157144860Y-80806426D01*
X157145140Y-80484984D01*
X157022389Y-80187903D01*
X156795293Y-79960410D01*
X156498426Y-79837140D01*
X156176984Y-79836860D01*
X155879903Y-79959611D01*
X155652410Y-80186707D01*
X155529140Y-80483574D01*
X155529075Y-80557727D01*
X153728802Y-82358000D01*
X150394145Y-82358000D01*
X150345000Y-82348048D01*
X149345000Y-82348048D01*
X149156747Y-82383470D01*
X148983847Y-82494728D01*
X148867855Y-82664488D01*
X148827048Y-82866000D01*
X148827048Y-83116000D01*
X148851432Y-83245589D01*
X148827048Y-83366000D01*
X148827048Y-83616000D01*
X148851432Y-83745589D01*
X148828668Y-83858000D01*
X148808005Y-83858000D01*
X148808000Y-83857999D01*
X148565761Y-83906184D01*
X148360401Y-84043401D01*
X147891500Y-84512302D01*
X147683577Y-84304379D01*
X147683640Y-84231484D01*
X147560889Y-83934403D01*
X147528000Y-83901457D01*
X147528000Y-82087750D01*
X147616250Y-82176000D01*
X147646310Y-82176000D01*
X147879699Y-82079327D01*
X147900074Y-82058952D01*
X148020000Y-82058952D01*
X148208253Y-82023530D01*
X148381153Y-81912272D01*
X148497145Y-81742512D01*
X148511019Y-81674000D01*
X149590995Y-81674000D01*
X149591000Y-81674001D01*
X149833239Y-81625816D01*
X150038599Y-81488599D01*
X150963121Y-80564077D01*
X151036016Y-80564140D01*
X151333097Y-80441389D01*
X151560590Y-80214293D01*
X151683860Y-79917426D01*
X151684140Y-79595984D01*
X151561389Y-79298903D01*
X151334293Y-79071410D01*
X151037426Y-78948140D01*
X150715984Y-78947860D01*
X150418903Y-79070611D01*
X150191410Y-79297707D01*
X150068140Y-79594574D01*
X150068075Y-79668727D01*
X149328802Y-80408000D01*
X149281525Y-80408000D01*
X149389327Y-80300199D01*
X149486000Y-80066810D01*
X149486000Y-79851250D01*
X149327250Y-79692500D01*
X148578000Y-79692500D01*
X148578000Y-79712500D01*
X148324000Y-79712500D01*
X148324000Y-79692500D01*
X148304000Y-79692500D01*
X148304000Y-79438500D01*
X148324000Y-79438500D01*
X148324000Y-78714250D01*
X148578000Y-78714250D01*
X148578000Y-79438500D01*
X149327250Y-79438500D01*
X149486000Y-79279750D01*
X149486000Y-79064190D01*
X149389327Y-78830801D01*
X149210698Y-78652173D01*
X148977309Y-78555500D01*
X148736750Y-78555500D01*
X148578000Y-78714250D01*
X148324000Y-78714250D01*
X148165250Y-78555500D01*
X148060561Y-78555500D01*
X148127860Y-78393426D01*
X148128140Y-78071984D01*
X148005389Y-77774903D01*
X147778293Y-77547410D01*
X147758659Y-77539257D01*
X148162389Y-77458950D01*
X148607368Y-77161625D01*
X148844558Y-76806644D01*
X148885546Y-76923820D01*
X149275464Y-77360232D01*
X149802709Y-77614209D01*
X149818474Y-77616858D01*
X150050500Y-77495717D01*
X150050500Y-76136500D01*
X150030500Y-76136500D01*
X150030500Y-75882500D01*
X150050500Y-75882500D01*
X150050500Y-74523283D01*
X150304500Y-74523283D01*
X150304500Y-75882500D01*
X150324500Y-75882500D01*
X150324500Y-76136500D01*
X150304500Y-76136500D01*
X150304500Y-77495717D01*
X150536526Y-77616858D01*
X150552291Y-77614209D01*
X151079536Y-77360232D01*
X151469454Y-76923820D01*
X151510442Y-76806644D01*
X151747632Y-77161625D01*
X152192611Y-77458950D01*
X152717500Y-77563357D01*
X153242389Y-77458950D01*
X153687368Y-77161625D01*
X153984693Y-76716646D01*
X154089100Y-76191757D01*
X154089100Y-75827243D01*
X153984693Y-75302354D01*
X153905612Y-75184000D01*
X155082448Y-75184000D01*
X155082448Y-77216000D01*
X155117870Y-77404253D01*
X155229128Y-77577153D01*
X155398888Y-77693145D01*
X155600400Y-77733952D01*
X157327600Y-77733952D01*
X157515853Y-77698530D01*
X157688753Y-77587272D01*
X157804745Y-77417512D01*
X157837670Y-77254923D01*
X158101964Y-77550732D01*
X158629209Y-77804709D01*
X158644974Y-77807358D01*
X158877000Y-77686217D01*
X158877000Y-76327000D01*
X158857000Y-76327000D01*
X158857000Y-76073000D01*
X158877000Y-76073000D01*
X158877000Y-74713783D01*
X159131000Y-74713783D01*
X159131000Y-76073000D01*
X159151000Y-76073000D01*
X159151000Y-76327000D01*
X159131000Y-76327000D01*
X159131000Y-77686217D01*
X159363026Y-77807358D01*
X159378791Y-77804709D01*
X159906036Y-77550732D01*
X160295954Y-77114320D01*
X160336942Y-76997144D01*
X160574132Y-77352125D01*
X161019111Y-77649450D01*
X161544000Y-77753857D01*
X162068889Y-77649450D01*
X162513868Y-77352125D01*
X162811193Y-76907146D01*
X162814000Y-76893034D01*
X162816807Y-76907146D01*
X163114132Y-77352125D01*
X163559111Y-77649450D01*
X164084000Y-77753857D01*
X164608889Y-77649450D01*
X165053868Y-77352125D01*
X165351193Y-76907146D01*
X165455600Y-76382257D01*
X165455600Y-76017743D01*
X165351193Y-75492854D01*
X165053868Y-75047875D01*
X164608889Y-74750550D01*
X164084000Y-74646143D01*
X163559111Y-74750550D01*
X163114132Y-75047875D01*
X162816807Y-75492854D01*
X162814000Y-75506966D01*
X162811193Y-75492854D01*
X162513868Y-75047875D01*
X162068889Y-74750550D01*
X161544000Y-74646143D01*
X161019111Y-74750550D01*
X160574132Y-75047875D01*
X160336942Y-75402856D01*
X160295954Y-75285680D01*
X159906036Y-74849268D01*
X159378791Y-74595291D01*
X159363026Y-74592642D01*
X159131000Y-74713783D01*
X158877000Y-74713783D01*
X158644974Y-74592642D01*
X158629209Y-74595291D01*
X158101964Y-74849268D01*
X157838131Y-75144561D01*
X157810130Y-74995747D01*
X157698872Y-74822847D01*
X157529112Y-74706855D01*
X157327600Y-74666048D01*
X155600400Y-74666048D01*
X155412147Y-74701470D01*
X155239247Y-74812728D01*
X155123255Y-74982488D01*
X155082448Y-75184000D01*
X153905612Y-75184000D01*
X153687368Y-74857375D01*
X153242389Y-74560050D01*
X152717500Y-74455643D01*
X152192611Y-74560050D01*
X151747632Y-74857375D01*
X151510442Y-75212356D01*
X151469454Y-75095180D01*
X151079536Y-74658768D01*
X150552291Y-74404791D01*
X150536526Y-74402142D01*
X150304500Y-74523283D01*
X150050500Y-74523283D01*
X149818474Y-74402142D01*
X149802709Y-74404791D01*
X149275464Y-74658768D01*
X148885546Y-75095180D01*
X148844558Y-75212356D01*
X148607368Y-74857375D01*
X148162389Y-74560050D01*
X147637500Y-74455643D01*
X147112611Y-74560050D01*
X146667632Y-74857375D01*
X146370307Y-75302354D01*
X146367500Y-75316466D01*
X146364693Y-75302354D01*
X146067368Y-74857375D01*
X145622389Y-74560050D01*
X145097500Y-74455643D01*
X144572611Y-74560050D01*
X144127632Y-74857375D01*
X143830307Y-75302354D01*
X143827500Y-75316466D01*
X143824693Y-75302354D01*
X143527368Y-74857375D01*
X143082389Y-74560050D01*
X142557500Y-74455643D01*
X142032611Y-74560050D01*
X141587632Y-74857375D01*
X141290307Y-75302354D01*
X141287500Y-75316466D01*
X141284693Y-75302354D01*
X140987368Y-74857375D01*
X140542389Y-74560050D01*
X140017500Y-74455643D01*
X139492611Y-74560050D01*
X139047632Y-74857375D01*
X138810442Y-75212356D01*
X138769454Y-75095180D01*
X138379536Y-74658768D01*
X137852291Y-74404791D01*
X137836526Y-74402142D01*
X137604500Y-74523283D01*
X137604500Y-75882500D01*
X137624500Y-75882500D01*
X137624500Y-76136500D01*
X137604500Y-76136500D01*
X137604500Y-76156500D01*
X137350500Y-76156500D01*
X137350500Y-76136500D01*
X137330500Y-76136500D01*
X137330500Y-75882500D01*
X137350500Y-75882500D01*
X137350500Y-74523283D01*
X137118474Y-74402142D01*
X137102709Y-74404791D01*
X136575464Y-74658768D01*
X136311631Y-74954061D01*
X136283630Y-74805247D01*
X136172372Y-74632347D01*
X136002612Y-74516355D01*
X135801100Y-74475548D01*
X134073900Y-74475548D01*
X133885647Y-74510970D01*
X133712747Y-74622228D01*
X133596755Y-74791988D01*
X133555948Y-74993500D01*
X133555948Y-77025500D01*
X133591370Y-77213753D01*
X133702628Y-77386653D01*
X133872388Y-77502645D01*
X134073900Y-77543452D01*
X134331741Y-77543452D01*
X134352684Y-77648739D01*
X134489901Y-77854099D01*
X134997899Y-78362096D01*
X134997901Y-78362099D01*
X135165729Y-78474238D01*
X135203261Y-78499316D01*
X135445500Y-78547500D01*
X136619043Y-78547500D01*
X136606140Y-78578574D01*
X136606075Y-78652727D01*
X136458401Y-78800401D01*
X136321184Y-79005761D01*
X136272999Y-79248000D01*
X136273000Y-79248005D01*
X136273000Y-83883495D01*
X136272999Y-83883500D01*
X136321184Y-84125739D01*
X136458401Y-84331099D01*
X137065899Y-84938596D01*
X137065901Y-84938599D01*
X137271261Y-85075816D01*
X137311452Y-85083810D01*
X137427048Y-85106804D01*
X137427048Y-85116000D01*
X137451432Y-85245589D01*
X137427048Y-85366000D01*
X137427048Y-85616000D01*
X137451432Y-85745589D01*
X137427048Y-85866000D01*
X137427048Y-86116000D01*
X137451432Y-86245589D01*
X137427048Y-86366000D01*
X137427048Y-86616000D01*
X137451432Y-86745589D01*
X137427048Y-86866000D01*
X137427048Y-87116000D01*
X137451432Y-87245589D01*
X137427048Y-87366000D01*
X137427048Y-87616000D01*
X137451432Y-87745589D01*
X137427048Y-87866000D01*
X137427048Y-88116000D01*
X137451432Y-88245589D01*
X137427048Y-88366000D01*
X137427048Y-88616000D01*
X137451432Y-88745589D01*
X137427048Y-88866000D01*
X137427048Y-89116000D01*
X137451432Y-89245589D01*
X137427048Y-89366000D01*
X137427048Y-89485926D01*
X137406673Y-89506301D01*
X137310000Y-89739690D01*
X137310000Y-89769750D01*
X137320245Y-89779995D01*
X137281000Y-89772048D01*
X136531000Y-89772048D01*
X136342747Y-89807470D01*
X136169847Y-89918728D01*
X136053855Y-90088488D01*
X136013048Y-90290000D01*
X136013048Y-91090000D01*
X136048470Y-91278253D01*
X136086156Y-91336819D01*
X135992673Y-91430302D01*
X135896000Y-91663691D01*
X135896000Y-91904250D01*
X136054750Y-92063000D01*
X136779000Y-92063000D01*
X136779000Y-92043000D01*
X137033000Y-92043000D01*
X137033000Y-92063000D01*
X137053000Y-92063000D01*
X137053000Y-92317000D01*
X137033000Y-92317000D01*
X137033000Y-93066250D01*
X137191750Y-93225000D01*
X137407310Y-93225000D01*
X137640699Y-93128327D01*
X137819327Y-92949698D01*
X137827505Y-92929954D01*
X137860184Y-93094239D01*
X137997401Y-93299599D01*
X142415399Y-97717596D01*
X142415401Y-97717599D01*
X142547683Y-97805987D01*
X142620762Y-97854817D01*
X142863000Y-97903001D01*
X142863005Y-97903000D01*
X143062264Y-97903000D01*
X143144728Y-98031153D01*
X143314488Y-98147145D01*
X143516000Y-98187952D01*
X144176650Y-98187952D01*
X144180470Y-98208253D01*
X144291728Y-98381153D01*
X144461488Y-98497145D01*
X144593042Y-98523785D01*
X144250046Y-98907680D01*
X144209058Y-99024856D01*
X143971868Y-98669875D01*
X143526889Y-98372550D01*
X143002000Y-98268143D01*
X142477111Y-98372550D01*
X142032132Y-98669875D01*
X141734807Y-99114854D01*
X141732000Y-99128966D01*
X141729193Y-99114854D01*
X141431868Y-98669875D01*
X140986889Y-98372550D01*
X140462000Y-98268143D01*
X139937111Y-98372550D01*
X139492132Y-98669875D01*
X139194807Y-99114854D01*
X139090400Y-99639743D01*
X139090400Y-100004257D01*
X139194807Y-100529146D01*
X139492132Y-100974125D01*
X139937111Y-101271450D01*
X140462000Y-101375857D01*
X140986889Y-101271450D01*
X141431868Y-100974125D01*
X141729193Y-100529146D01*
X141732000Y-100515034D01*
X141734807Y-100529146D01*
X142032132Y-100974125D01*
X142477111Y-101271450D01*
X143002000Y-101375857D01*
X143526889Y-101271450D01*
X143971868Y-100974125D01*
X144209058Y-100619144D01*
X144250046Y-100736320D01*
X144639964Y-101172732D01*
X145167209Y-101426709D01*
X145182974Y-101429358D01*
X145415000Y-101308217D01*
X145415000Y-99949000D01*
X145395000Y-99949000D01*
X145395000Y-99695000D01*
X145415000Y-99695000D01*
X145415000Y-99675000D01*
X145669000Y-99675000D01*
X145669000Y-99695000D01*
X145689000Y-99695000D01*
X145689000Y-99949000D01*
X145669000Y-99949000D01*
X145669000Y-101308217D01*
X145901026Y-101429358D01*
X145916791Y-101426709D01*
X146444036Y-101172732D01*
X146574000Y-101027271D01*
X146574000Y-102213366D01*
X146104566Y-102682800D01*
X141137434Y-102682800D01*
X130930384Y-92475750D01*
X135896000Y-92475750D01*
X135896000Y-92716309D01*
X135992673Y-92949698D01*
X136171301Y-93128327D01*
X136404690Y-93225000D01*
X136620250Y-93225000D01*
X136779000Y-93066250D01*
X136779000Y-92317000D01*
X136054750Y-92317000D01*
X135896000Y-92475750D01*
X130930384Y-92475750D01*
X130352317Y-91897683D01*
X130246532Y-91827000D01*
X129863087Y-91570790D01*
X129286000Y-91456000D01*
X127711200Y-91456000D01*
X127134113Y-91570790D01*
X126644883Y-91897683D01*
X126317990Y-92386913D01*
X126203200Y-92964000D01*
X126317990Y-93541087D01*
X126644883Y-94030317D01*
X127134113Y-94357210D01*
X127711200Y-94472000D01*
X128661366Y-94472000D01*
X136932366Y-102743000D01*
X118889526Y-102743000D01*
X118942745Y-102665112D01*
X118983552Y-102463600D01*
X118983552Y-100228400D01*
X118948130Y-100040147D01*
X118836872Y-99867247D01*
X118667112Y-99751255D01*
X118465600Y-99710448D01*
X117981000Y-99710448D01*
X117981000Y-99525398D01*
X126398597Y-91107800D01*
X131800595Y-91107800D01*
X131800600Y-91107801D01*
X132042839Y-91059616D01*
X132248199Y-90922399D01*
X136561321Y-86609277D01*
X136634216Y-86609340D01*
X136931297Y-86486589D01*
X137158790Y-86259493D01*
X137282060Y-85962626D01*
X137282340Y-85641184D01*
X137159589Y-85344103D01*
X136932493Y-85116610D01*
X136635626Y-84993340D01*
X136314184Y-84993060D01*
X136017103Y-85115811D01*
X135789610Y-85342907D01*
X135666340Y-85639774D01*
X135666275Y-85713928D01*
X134953558Y-86426644D01*
X134873589Y-86233103D01*
X134646493Y-86005610D01*
X134349626Y-85882340D01*
X134275472Y-85882275D01*
X129163198Y-80770000D01*
X131825995Y-80770000D01*
X131826000Y-80770001D01*
X132068239Y-80721816D01*
X132273599Y-80584599D01*
X132421121Y-80437077D01*
X132494016Y-80437140D01*
X132791097Y-80314389D01*
X133018590Y-80087293D01*
X133039805Y-80036202D01*
X134421523Y-81417921D01*
X134421460Y-81490816D01*
X134544211Y-81787897D01*
X134771307Y-82015390D01*
X135068174Y-82138660D01*
X135389616Y-82138940D01*
X135686697Y-82016189D01*
X135914190Y-81789093D01*
X136037460Y-81492226D01*
X136037740Y-81170784D01*
X135914989Y-80873703D01*
X135687893Y-80646210D01*
X135391026Y-80522940D01*
X135316872Y-80522875D01*
X130292399Y-75498401D01*
X130087039Y-75361184D01*
X130023589Y-75348563D01*
X129774739Y-74976132D01*
X129329760Y-74678807D01*
X128804871Y-74574400D01*
X128751129Y-74574400D01*
X128226240Y-74678807D01*
X127781261Y-74976132D01*
X127508000Y-75385097D01*
X127234739Y-74976132D01*
X126789760Y-74678807D01*
X126264871Y-74574400D01*
X126211129Y-74574400D01*
X125686240Y-74678807D01*
X125241261Y-74976132D01*
X124968000Y-75385097D01*
X124694739Y-74976132D01*
X124249760Y-74678807D01*
X123724871Y-74574400D01*
X123671129Y-74574400D01*
X123146240Y-74678807D01*
X122701261Y-74976132D01*
X122490562Y-75291466D01*
X122440688Y-75171053D01*
X122046490Y-74739179D01*
X121517027Y-74491032D01*
X121285000Y-74611531D01*
X121285000Y-75819000D01*
X121305000Y-75819000D01*
X121305000Y-76073000D01*
X121285000Y-76073000D01*
X121285000Y-76093000D01*
X121031000Y-76093000D01*
X121031000Y-76073000D01*
X119824183Y-76073000D01*
X119703042Y-76305026D01*
X119875312Y-76720947D01*
X120235477Y-77115535D01*
X120106147Y-77139870D01*
X119933247Y-77251128D01*
X119817255Y-77420888D01*
X119776448Y-77622400D01*
X119776448Y-79349600D01*
X119796253Y-79454856D01*
X117981000Y-77639602D01*
X117981000Y-77581552D01*
X118465600Y-77581552D01*
X118653853Y-77546130D01*
X118826753Y-77434872D01*
X118942745Y-77265112D01*
X118983552Y-77063600D01*
X118983552Y-75586974D01*
X119703042Y-75586974D01*
X119824183Y-75819000D01*
X121031000Y-75819000D01*
X121031000Y-74611531D01*
X120798973Y-74491032D01*
X120269510Y-74739179D01*
X119875312Y-75171053D01*
X119703042Y-75586974D01*
X118983552Y-75586974D01*
X118983552Y-74828400D01*
X118978773Y-74803000D01*
X119634000Y-74803000D01*
X119683410Y-74792994D01*
X119725035Y-74764553D01*
X119752315Y-74722159D01*
X119761000Y-74676000D01*
X119761000Y-73025000D01*
X165481000Y-73025000D01*
X165481000Y-74676000D01*
X165481000Y-74676000D01*
G37*
X165481000Y-74676000D02*
X165491006Y-74725410D01*
X165519447Y-74767035D01*
X165561841Y-74794315D01*
X165608000Y-74803000D01*
X169565592Y-74803000D01*
X169560448Y-74828400D01*
X169560448Y-76686355D01*
X168216002Y-78030800D01*
X155448005Y-78030800D01*
X155448000Y-78030799D01*
X155248041Y-78070574D01*
X155205761Y-78078984D01*
X155000401Y-78216201D01*
X155000399Y-78216204D01*
X153532079Y-79684523D01*
X153459184Y-79684460D01*
X153162103Y-79807211D01*
X152934610Y-80034307D01*
X152811340Y-80331174D01*
X152811060Y-80652616D01*
X152933811Y-80949697D01*
X153160907Y-81177190D01*
X153457774Y-81300460D01*
X153779216Y-81300740D01*
X154076297Y-81177989D01*
X154303790Y-80950893D01*
X154427060Y-80654026D01*
X154427125Y-80579873D01*
X155484997Y-79522000D01*
X173492048Y-79522000D01*
X173492048Y-82022000D01*
X173527470Y-82210253D01*
X173638728Y-82383153D01*
X173808488Y-82499145D01*
X174010000Y-82539952D01*
X176510000Y-82539952D01*
X176698253Y-82504530D01*
X176871153Y-82393272D01*
X176987145Y-82223512D01*
X177027952Y-82022000D01*
X177027952Y-79522000D01*
X176992530Y-79333747D01*
X176881272Y-79160847D01*
X176711512Y-79044855D01*
X176510000Y-79004048D01*
X174010000Y-79004048D01*
X173821747Y-79039470D01*
X173648847Y-79150728D01*
X173532855Y-79320488D01*
X173492048Y-79522000D01*
X155484997Y-79522000D01*
X155710197Y-79296800D01*
X168478195Y-79296800D01*
X168478200Y-79296801D01*
X168720439Y-79248616D01*
X168925799Y-79111399D01*
X170455645Y-77581552D01*
X172313600Y-77581552D01*
X172501853Y-77546130D01*
X172674753Y-77434872D01*
X172790745Y-77265112D01*
X172831552Y-77063600D01*
X172831552Y-74828400D01*
X172826773Y-74803000D01*
X180467000Y-74803000D01*
X180467000Y-102743000D01*
X172737526Y-102743000D01*
X172790745Y-102665112D01*
X172831552Y-102463600D01*
X172831552Y-100228400D01*
X172796130Y-100040147D01*
X172684872Y-99867247D01*
X172515112Y-99751255D01*
X172313600Y-99710448D01*
X171829000Y-99710448D01*
X171829000Y-98729805D01*
X171829001Y-98729800D01*
X171780816Y-98487562D01*
X171780816Y-98487561D01*
X171643599Y-98282201D01*
X171643596Y-98282199D01*
X171134718Y-97773320D01*
X174106285Y-97773320D01*
X174235533Y-98066123D01*
X174935806Y-98334388D01*
X175685435Y-98314250D01*
X176284467Y-98066123D01*
X176413715Y-97773320D01*
X175260000Y-96619605D01*
X174106285Y-97773320D01*
X171134718Y-97773320D01*
X169477204Y-96115806D01*
X173365612Y-96115806D01*
X173385750Y-96865435D01*
X173633877Y-97464467D01*
X173926680Y-97593715D01*
X175080395Y-96440000D01*
X175439605Y-96440000D01*
X176593320Y-97593715D01*
X176886123Y-97464467D01*
X177154388Y-96764194D01*
X177134250Y-96014565D01*
X176886123Y-95415533D01*
X176593320Y-95286285D01*
X175439605Y-96440000D01*
X175080395Y-96440000D01*
X173926680Y-95286285D01*
X173633877Y-95415533D01*
X173365612Y-96115806D01*
X169477204Y-96115806D01*
X168468078Y-95106680D01*
X174106285Y-95106680D01*
X175260000Y-96260395D01*
X176413715Y-95106680D01*
X176284467Y-94813877D01*
X175584194Y-94545612D01*
X174834565Y-94565750D01*
X174235533Y-94813877D01*
X174106285Y-95106680D01*
X168468078Y-95106680D01*
X163551398Y-90190000D01*
X173492048Y-90190000D01*
X173492048Y-92690000D01*
X173527470Y-92878253D01*
X173638728Y-93051153D01*
X173808488Y-93167145D01*
X174010000Y-93207952D01*
X176510000Y-93207952D01*
X176698253Y-93172530D01*
X176871153Y-93061272D01*
X176987145Y-92891512D01*
X177027952Y-92690000D01*
X177027952Y-90190000D01*
X176992530Y-90001747D01*
X176881272Y-89828847D01*
X176711512Y-89712855D01*
X176510000Y-89672048D01*
X174010000Y-89672048D01*
X173821747Y-89707470D01*
X173648847Y-89818728D01*
X173532855Y-89988488D01*
X173492048Y-90190000D01*
X163551398Y-90190000D01*
X161818677Y-88457279D01*
X161818740Y-88384384D01*
X161695989Y-88087303D01*
X161468893Y-87859810D01*
X161172026Y-87736540D01*
X160850584Y-87736260D01*
X160553503Y-87859011D01*
X160326010Y-88086107D01*
X160202740Y-88382974D01*
X160202460Y-88704416D01*
X160325211Y-89001497D01*
X160552307Y-89228990D01*
X160849174Y-89352260D01*
X160923327Y-89352325D01*
X170563000Y-98991997D01*
X170563000Y-99710448D01*
X170078400Y-99710448D01*
X169890147Y-99745870D01*
X169717247Y-99857128D01*
X169601255Y-100026888D01*
X169560448Y-100228400D01*
X169560448Y-102463600D01*
X169595870Y-102651853D01*
X169654521Y-102743000D01*
X149590000Y-102743000D01*
X149590000Y-100580000D01*
X149606000Y-100580000D01*
X149896074Y-100522301D01*
X150141987Y-100357987D01*
X150903987Y-99595987D01*
X151068301Y-99350074D01*
X151126000Y-99060000D01*
X151126000Y-98512926D01*
X151181253Y-98502530D01*
X151354153Y-98391272D01*
X151470145Y-98221512D01*
X151476941Y-98187952D01*
X152140000Y-98187952D01*
X152328253Y-98152530D01*
X152501153Y-98041272D01*
X152617145Y-97871512D01*
X152657952Y-97670000D01*
X152657952Y-96870000D01*
X152622530Y-96681747D01*
X152584844Y-96623181D01*
X152678327Y-96529698D01*
X152775000Y-96296309D01*
X152775000Y-96055750D01*
X152616250Y-95897000D01*
X151892000Y-95897000D01*
X151892000Y-95917000D01*
X151638000Y-95917000D01*
X151638000Y-95897000D01*
X151628000Y-95897000D01*
X151628000Y-95805750D01*
X151618000Y-95795750D01*
X151618000Y-95647002D01*
X151628000Y-95647002D01*
X151628000Y-95643000D01*
X151638000Y-95643000D01*
X151638000Y-95623000D01*
X151892000Y-95623000D01*
X151892000Y-95643000D01*
X152616250Y-95643000D01*
X152775000Y-95484250D01*
X152775000Y-95243691D01*
X152678327Y-95010302D01*
X152540978Y-94872952D01*
X152788000Y-94872952D01*
X152976253Y-94837530D01*
X153099397Y-94758289D01*
X153207488Y-94832145D01*
X153409000Y-94872952D01*
X154209000Y-94872952D01*
X154397253Y-94837530D01*
X154455819Y-94799844D01*
X154549302Y-94893327D01*
X154782691Y-94990000D01*
X155023250Y-94990000D01*
X155182000Y-94831250D01*
X155182000Y-94107000D01*
X155436000Y-94107000D01*
X155436000Y-94831250D01*
X155594750Y-94990000D01*
X155835309Y-94990000D01*
X156068698Y-94893327D01*
X156247327Y-94714699D01*
X156344000Y-94481310D01*
X156344000Y-94265750D01*
X156185250Y-94107000D01*
X155436000Y-94107000D01*
X155182000Y-94107000D01*
X155162000Y-94107000D01*
X155162000Y-93853000D01*
X155182000Y-93853000D01*
X155182000Y-93833000D01*
X155436000Y-93833000D01*
X155436000Y-93853000D01*
X156185250Y-93853000D01*
X156344000Y-93694250D01*
X156344000Y-93478690D01*
X156247327Y-93245301D01*
X156096977Y-93094952D01*
X156344000Y-93094952D01*
X156532253Y-93059530D01*
X156705153Y-92948272D01*
X156821145Y-92778512D01*
X156861952Y-92577000D01*
X156861952Y-91827000D01*
X156851755Y-91772807D01*
X156955153Y-91706272D01*
X157071145Y-91536512D01*
X157111952Y-91335000D01*
X157111952Y-89935000D01*
X157076530Y-89746747D01*
X156965272Y-89573847D01*
X156909432Y-89535693D01*
X156955153Y-89506272D01*
X157071145Y-89336512D01*
X157111952Y-89135000D01*
X157111952Y-87735000D01*
X157076530Y-87546747D01*
X156972481Y-87385049D01*
X156979000Y-87369310D01*
X156979000Y-87153750D01*
X156930570Y-87105320D01*
X174106285Y-87105320D01*
X174235533Y-87398123D01*
X174935806Y-87666388D01*
X175685435Y-87646250D01*
X176284467Y-87398123D01*
X176413715Y-87105320D01*
X175260000Y-85951605D01*
X174106285Y-87105320D01*
X156930570Y-87105320D01*
X156820250Y-86995000D01*
X156071000Y-86995000D01*
X156071000Y-87015000D01*
X155817000Y-87015000D01*
X155817000Y-86995000D01*
X155797000Y-86995000D01*
X155797000Y-86741000D01*
X155817000Y-86741000D01*
X155817000Y-86016750D01*
X156071000Y-86016750D01*
X156071000Y-86741000D01*
X156820250Y-86741000D01*
X156979000Y-86582250D01*
X156979000Y-86366690D01*
X156882327Y-86133301D01*
X156703698Y-85954673D01*
X156470309Y-85858000D01*
X156229750Y-85858000D01*
X156071000Y-86016750D01*
X155817000Y-86016750D01*
X155658250Y-85858000D01*
X155417691Y-85858000D01*
X155184302Y-85954673D01*
X155091617Y-86047357D01*
X155045512Y-86015855D01*
X154844000Y-85975048D01*
X154044000Y-85975048D01*
X153855747Y-86010470D01*
X153682847Y-86121728D01*
X153664000Y-86149312D01*
X153664000Y-86022750D01*
X153505250Y-85864000D01*
X152781000Y-85864000D01*
X152781000Y-85884000D01*
X152527000Y-85884000D01*
X152527000Y-85864000D01*
X152507000Y-85864000D01*
X152507000Y-85610000D01*
X152527000Y-85610000D01*
X152527000Y-85421250D01*
X152642000Y-85306250D01*
X152642000Y-84860750D01*
X152781000Y-84860750D01*
X152781000Y-85610000D01*
X153505250Y-85610000D01*
X153664000Y-85451250D01*
X153664000Y-85447806D01*
X173365612Y-85447806D01*
X173385750Y-86197435D01*
X173633877Y-86796467D01*
X173926680Y-86925715D01*
X175080395Y-85772000D01*
X175439605Y-85772000D01*
X176593320Y-86925715D01*
X176886123Y-86796467D01*
X177154388Y-86096194D01*
X177134250Y-85346565D01*
X176886123Y-84747533D01*
X176593320Y-84618285D01*
X175439605Y-85772000D01*
X175080395Y-85772000D01*
X173926680Y-84618285D01*
X173633877Y-84747533D01*
X173365612Y-85447806D01*
X153664000Y-85447806D01*
X153664000Y-85233026D01*
X153707327Y-85189699D01*
X153804000Y-84956310D01*
X153804000Y-84740750D01*
X153645250Y-84582000D01*
X152896000Y-84582000D01*
X152896000Y-84745750D01*
X152781000Y-84860750D01*
X152642000Y-84860750D01*
X152642000Y-84582000D01*
X152622000Y-84582000D01*
X152622000Y-84438680D01*
X174106285Y-84438680D01*
X175260000Y-85592395D01*
X176413715Y-84438680D01*
X176284467Y-84145877D01*
X175584194Y-83877612D01*
X174834565Y-83897750D01*
X174235533Y-84145877D01*
X174106285Y-84438680D01*
X152622000Y-84438680D01*
X152622000Y-84328000D01*
X152642000Y-84328000D01*
X152642000Y-84308000D01*
X152896000Y-84308000D01*
X152896000Y-84328000D01*
X153645250Y-84328000D01*
X153804000Y-84169250D01*
X153804000Y-83953690D01*
X153707327Y-83720301D01*
X153611025Y-83624000D01*
X153990995Y-83624000D01*
X153991000Y-83624001D01*
X154233239Y-83575816D01*
X154438599Y-83438599D01*
X156424121Y-81453077D01*
X156497016Y-81453140D01*
X156794097Y-81330389D01*
X157021590Y-81103293D01*
X157144860Y-80806426D01*
X157145140Y-80484984D01*
X157022389Y-80187903D01*
X156795293Y-79960410D01*
X156498426Y-79837140D01*
X156176984Y-79836860D01*
X155879903Y-79959611D01*
X155652410Y-80186707D01*
X155529140Y-80483574D01*
X155529075Y-80557727D01*
X153728802Y-82358000D01*
X150394145Y-82358000D01*
X150345000Y-82348048D01*
X149345000Y-82348048D01*
X149156747Y-82383470D01*
X148983847Y-82494728D01*
X148867855Y-82664488D01*
X148827048Y-82866000D01*
X148827048Y-83116000D01*
X148851432Y-83245589D01*
X148827048Y-83366000D01*
X148827048Y-83616000D01*
X148851432Y-83745589D01*
X148828668Y-83858000D01*
X148808005Y-83858000D01*
X148808000Y-83857999D01*
X148565761Y-83906184D01*
X148360401Y-84043401D01*
X147891500Y-84512302D01*
X147683577Y-84304379D01*
X147683640Y-84231484D01*
X147560889Y-83934403D01*
X147528000Y-83901457D01*
X147528000Y-82087750D01*
X147616250Y-82176000D01*
X147646310Y-82176000D01*
X147879699Y-82079327D01*
X147900074Y-82058952D01*
X148020000Y-82058952D01*
X148208253Y-82023530D01*
X148381153Y-81912272D01*
X148497145Y-81742512D01*
X148511019Y-81674000D01*
X149590995Y-81674000D01*
X149591000Y-81674001D01*
X149833239Y-81625816D01*
X150038599Y-81488599D01*
X150963121Y-80564077D01*
X151036016Y-80564140D01*
X151333097Y-80441389D01*
X151560590Y-80214293D01*
X151683860Y-79917426D01*
X151684140Y-79595984D01*
X151561389Y-79298903D01*
X151334293Y-79071410D01*
X151037426Y-78948140D01*
X150715984Y-78947860D01*
X150418903Y-79070611D01*
X150191410Y-79297707D01*
X150068140Y-79594574D01*
X150068075Y-79668727D01*
X149328802Y-80408000D01*
X149281525Y-80408000D01*
X149389327Y-80300199D01*
X149486000Y-80066810D01*
X149486000Y-79851250D01*
X149327250Y-79692500D01*
X148578000Y-79692500D01*
X148578000Y-79712500D01*
X148324000Y-79712500D01*
X148324000Y-79692500D01*
X148304000Y-79692500D01*
X148304000Y-79438500D01*
X148324000Y-79438500D01*
X148324000Y-78714250D01*
X148578000Y-78714250D01*
X148578000Y-79438500D01*
X149327250Y-79438500D01*
X149486000Y-79279750D01*
X149486000Y-79064190D01*
X149389327Y-78830801D01*
X149210698Y-78652173D01*
X148977309Y-78555500D01*
X148736750Y-78555500D01*
X148578000Y-78714250D01*
X148324000Y-78714250D01*
X148165250Y-78555500D01*
X148060561Y-78555500D01*
X148127860Y-78393426D01*
X148128140Y-78071984D01*
X148005389Y-77774903D01*
X147778293Y-77547410D01*
X147758659Y-77539257D01*
X148162389Y-77458950D01*
X148607368Y-77161625D01*
X148844558Y-76806644D01*
X148885546Y-76923820D01*
X149275464Y-77360232D01*
X149802709Y-77614209D01*
X149818474Y-77616858D01*
X150050500Y-77495717D01*
X150050500Y-76136500D01*
X150030500Y-76136500D01*
X150030500Y-75882500D01*
X150050500Y-75882500D01*
X150050500Y-74523283D01*
X150304500Y-74523283D01*
X150304500Y-75882500D01*
X150324500Y-75882500D01*
X150324500Y-76136500D01*
X150304500Y-76136500D01*
X150304500Y-77495717D01*
X150536526Y-77616858D01*
X150552291Y-77614209D01*
X151079536Y-77360232D01*
X151469454Y-76923820D01*
X151510442Y-76806644D01*
X151747632Y-77161625D01*
X152192611Y-77458950D01*
X152717500Y-77563357D01*
X153242389Y-77458950D01*
X153687368Y-77161625D01*
X153984693Y-76716646D01*
X154089100Y-76191757D01*
X154089100Y-75827243D01*
X153984693Y-75302354D01*
X153905612Y-75184000D01*
X155082448Y-75184000D01*
X155082448Y-77216000D01*
X155117870Y-77404253D01*
X155229128Y-77577153D01*
X155398888Y-77693145D01*
X155600400Y-77733952D01*
X157327600Y-77733952D01*
X157515853Y-77698530D01*
X157688753Y-77587272D01*
X157804745Y-77417512D01*
X157837670Y-77254923D01*
X158101964Y-77550732D01*
X158629209Y-77804709D01*
X158644974Y-77807358D01*
X158877000Y-77686217D01*
X158877000Y-76327000D01*
X158857000Y-76327000D01*
X158857000Y-76073000D01*
X158877000Y-76073000D01*
X158877000Y-74713783D01*
X159131000Y-74713783D01*
X159131000Y-76073000D01*
X159151000Y-76073000D01*
X159151000Y-76327000D01*
X159131000Y-76327000D01*
X159131000Y-77686217D01*
X159363026Y-77807358D01*
X159378791Y-77804709D01*
X159906036Y-77550732D01*
X160295954Y-77114320D01*
X160336942Y-76997144D01*
X160574132Y-77352125D01*
X161019111Y-77649450D01*
X161544000Y-77753857D01*
X162068889Y-77649450D01*
X162513868Y-77352125D01*
X162811193Y-76907146D01*
X162814000Y-76893034D01*
X162816807Y-76907146D01*
X163114132Y-77352125D01*
X163559111Y-77649450D01*
X164084000Y-77753857D01*
X164608889Y-77649450D01*
X165053868Y-77352125D01*
X165351193Y-76907146D01*
X165455600Y-76382257D01*
X165455600Y-76017743D01*
X165351193Y-75492854D01*
X165053868Y-75047875D01*
X164608889Y-74750550D01*
X164084000Y-74646143D01*
X163559111Y-74750550D01*
X163114132Y-75047875D01*
X162816807Y-75492854D01*
X162814000Y-75506966D01*
X162811193Y-75492854D01*
X162513868Y-75047875D01*
X162068889Y-74750550D01*
X161544000Y-74646143D01*
X161019111Y-74750550D01*
X160574132Y-75047875D01*
X160336942Y-75402856D01*
X160295954Y-75285680D01*
X159906036Y-74849268D01*
X159378791Y-74595291D01*
X159363026Y-74592642D01*
X159131000Y-74713783D01*
X158877000Y-74713783D01*
X158644974Y-74592642D01*
X158629209Y-74595291D01*
X158101964Y-74849268D01*
X157838131Y-75144561D01*
X157810130Y-74995747D01*
X157698872Y-74822847D01*
X157529112Y-74706855D01*
X157327600Y-74666048D01*
X155600400Y-74666048D01*
X155412147Y-74701470D01*
X155239247Y-74812728D01*
X155123255Y-74982488D01*
X155082448Y-75184000D01*
X153905612Y-75184000D01*
X153687368Y-74857375D01*
X153242389Y-74560050D01*
X152717500Y-74455643D01*
X152192611Y-74560050D01*
X151747632Y-74857375D01*
X151510442Y-75212356D01*
X151469454Y-75095180D01*
X151079536Y-74658768D01*
X150552291Y-74404791D01*
X150536526Y-74402142D01*
X150304500Y-74523283D01*
X150050500Y-74523283D01*
X149818474Y-74402142D01*
X149802709Y-74404791D01*
X149275464Y-74658768D01*
X148885546Y-75095180D01*
X148844558Y-75212356D01*
X148607368Y-74857375D01*
X148162389Y-74560050D01*
X147637500Y-74455643D01*
X147112611Y-74560050D01*
X146667632Y-74857375D01*
X146370307Y-75302354D01*
X146367500Y-75316466D01*
X146364693Y-75302354D01*
X146067368Y-74857375D01*
X145622389Y-74560050D01*
X145097500Y-74455643D01*
X144572611Y-74560050D01*
X144127632Y-74857375D01*
X143830307Y-75302354D01*
X143827500Y-75316466D01*
X143824693Y-75302354D01*
X143527368Y-74857375D01*
X143082389Y-74560050D01*
X142557500Y-74455643D01*
X142032611Y-74560050D01*
X141587632Y-74857375D01*
X141290307Y-75302354D01*
X141287500Y-75316466D01*
X141284693Y-75302354D01*
X140987368Y-74857375D01*
X140542389Y-74560050D01*
X140017500Y-74455643D01*
X139492611Y-74560050D01*
X139047632Y-74857375D01*
X138810442Y-75212356D01*
X138769454Y-75095180D01*
X138379536Y-74658768D01*
X137852291Y-74404791D01*
X137836526Y-74402142D01*
X137604500Y-74523283D01*
X137604500Y-75882500D01*
X137624500Y-75882500D01*
X137624500Y-76136500D01*
X137604500Y-76136500D01*
X137604500Y-76156500D01*
X137350500Y-76156500D01*
X137350500Y-76136500D01*
X137330500Y-76136500D01*
X137330500Y-75882500D01*
X137350500Y-75882500D01*
X137350500Y-74523283D01*
X137118474Y-74402142D01*
X137102709Y-74404791D01*
X136575464Y-74658768D01*
X136311631Y-74954061D01*
X136283630Y-74805247D01*
X136172372Y-74632347D01*
X136002612Y-74516355D01*
X135801100Y-74475548D01*
X134073900Y-74475548D01*
X133885647Y-74510970D01*
X133712747Y-74622228D01*
X133596755Y-74791988D01*
X133555948Y-74993500D01*
X133555948Y-77025500D01*
X133591370Y-77213753D01*
X133702628Y-77386653D01*
X133872388Y-77502645D01*
X134073900Y-77543452D01*
X134331741Y-77543452D01*
X134352684Y-77648739D01*
X134489901Y-77854099D01*
X134997899Y-78362096D01*
X134997901Y-78362099D01*
X135165729Y-78474238D01*
X135203261Y-78499316D01*
X135445500Y-78547500D01*
X136619043Y-78547500D01*
X136606140Y-78578574D01*
X136606075Y-78652727D01*
X136458401Y-78800401D01*
X136321184Y-79005761D01*
X136272999Y-79248000D01*
X136273000Y-79248005D01*
X136273000Y-83883495D01*
X136272999Y-83883500D01*
X136321184Y-84125739D01*
X136458401Y-84331099D01*
X137065899Y-84938596D01*
X137065901Y-84938599D01*
X137271261Y-85075816D01*
X137311452Y-85083810D01*
X137427048Y-85106804D01*
X137427048Y-85116000D01*
X137451432Y-85245589D01*
X137427048Y-85366000D01*
X137427048Y-85616000D01*
X137451432Y-85745589D01*
X137427048Y-85866000D01*
X137427048Y-86116000D01*
X137451432Y-86245589D01*
X137427048Y-86366000D01*
X137427048Y-86616000D01*
X137451432Y-86745589D01*
X137427048Y-86866000D01*
X137427048Y-87116000D01*
X137451432Y-87245589D01*
X137427048Y-87366000D01*
X137427048Y-87616000D01*
X137451432Y-87745589D01*
X137427048Y-87866000D01*
X137427048Y-88116000D01*
X137451432Y-88245589D01*
X137427048Y-88366000D01*
X137427048Y-88616000D01*
X137451432Y-88745589D01*
X137427048Y-88866000D01*
X137427048Y-89116000D01*
X137451432Y-89245589D01*
X137427048Y-89366000D01*
X137427048Y-89485926D01*
X137406673Y-89506301D01*
X137310000Y-89739690D01*
X137310000Y-89769750D01*
X137320245Y-89779995D01*
X137281000Y-89772048D01*
X136531000Y-89772048D01*
X136342747Y-89807470D01*
X136169847Y-89918728D01*
X136053855Y-90088488D01*
X136013048Y-90290000D01*
X136013048Y-91090000D01*
X136048470Y-91278253D01*
X136086156Y-91336819D01*
X135992673Y-91430302D01*
X135896000Y-91663691D01*
X135896000Y-91904250D01*
X136054750Y-92063000D01*
X136779000Y-92063000D01*
X136779000Y-92043000D01*
X137033000Y-92043000D01*
X137033000Y-92063000D01*
X137053000Y-92063000D01*
X137053000Y-92317000D01*
X137033000Y-92317000D01*
X137033000Y-93066250D01*
X137191750Y-93225000D01*
X137407310Y-93225000D01*
X137640699Y-93128327D01*
X137819327Y-92949698D01*
X137827505Y-92929954D01*
X137860184Y-93094239D01*
X137997401Y-93299599D01*
X142415399Y-97717596D01*
X142415401Y-97717599D01*
X142547683Y-97805987D01*
X142620762Y-97854817D01*
X142863000Y-97903001D01*
X142863005Y-97903000D01*
X143062264Y-97903000D01*
X143144728Y-98031153D01*
X143314488Y-98147145D01*
X143516000Y-98187952D01*
X144176650Y-98187952D01*
X144180470Y-98208253D01*
X144291728Y-98381153D01*
X144461488Y-98497145D01*
X144593042Y-98523785D01*
X144250046Y-98907680D01*
X144209058Y-99024856D01*
X143971868Y-98669875D01*
X143526889Y-98372550D01*
X143002000Y-98268143D01*
X142477111Y-98372550D01*
X142032132Y-98669875D01*
X141734807Y-99114854D01*
X141732000Y-99128966D01*
X141729193Y-99114854D01*
X141431868Y-98669875D01*
X140986889Y-98372550D01*
X140462000Y-98268143D01*
X139937111Y-98372550D01*
X139492132Y-98669875D01*
X139194807Y-99114854D01*
X139090400Y-99639743D01*
X139090400Y-100004257D01*
X139194807Y-100529146D01*
X139492132Y-100974125D01*
X139937111Y-101271450D01*
X140462000Y-101375857D01*
X140986889Y-101271450D01*
X141431868Y-100974125D01*
X141729193Y-100529146D01*
X141732000Y-100515034D01*
X141734807Y-100529146D01*
X142032132Y-100974125D01*
X142477111Y-101271450D01*
X143002000Y-101375857D01*
X143526889Y-101271450D01*
X143971868Y-100974125D01*
X144209058Y-100619144D01*
X144250046Y-100736320D01*
X144639964Y-101172732D01*
X145167209Y-101426709D01*
X145182974Y-101429358D01*
X145415000Y-101308217D01*
X145415000Y-99949000D01*
X145395000Y-99949000D01*
X145395000Y-99695000D01*
X145415000Y-99695000D01*
X145415000Y-99675000D01*
X145669000Y-99675000D01*
X145669000Y-99695000D01*
X145689000Y-99695000D01*
X145689000Y-99949000D01*
X145669000Y-99949000D01*
X145669000Y-101308217D01*
X145901026Y-101429358D01*
X145916791Y-101426709D01*
X146444036Y-101172732D01*
X146574000Y-101027271D01*
X146574000Y-102213366D01*
X146104566Y-102682800D01*
X141137434Y-102682800D01*
X130930384Y-92475750D01*
X135896000Y-92475750D01*
X135896000Y-92716309D01*
X135992673Y-92949698D01*
X136171301Y-93128327D01*
X136404690Y-93225000D01*
X136620250Y-93225000D01*
X136779000Y-93066250D01*
X136779000Y-92317000D01*
X136054750Y-92317000D01*
X135896000Y-92475750D01*
X130930384Y-92475750D01*
X130352317Y-91897683D01*
X130246532Y-91827000D01*
X129863087Y-91570790D01*
X129286000Y-91456000D01*
X127711200Y-91456000D01*
X127134113Y-91570790D01*
X126644883Y-91897683D01*
X126317990Y-92386913D01*
X126203200Y-92964000D01*
X126317990Y-93541087D01*
X126644883Y-94030317D01*
X127134113Y-94357210D01*
X127711200Y-94472000D01*
X128661366Y-94472000D01*
X136932366Y-102743000D01*
X118889526Y-102743000D01*
X118942745Y-102665112D01*
X118983552Y-102463600D01*
X118983552Y-100228400D01*
X118948130Y-100040147D01*
X118836872Y-99867247D01*
X118667112Y-99751255D01*
X118465600Y-99710448D01*
X117981000Y-99710448D01*
X117981000Y-99525398D01*
X126398597Y-91107800D01*
X131800595Y-91107800D01*
X131800600Y-91107801D01*
X132042839Y-91059616D01*
X132248199Y-90922399D01*
X136561321Y-86609277D01*
X136634216Y-86609340D01*
X136931297Y-86486589D01*
X137158790Y-86259493D01*
X137282060Y-85962626D01*
X137282340Y-85641184D01*
X137159589Y-85344103D01*
X136932493Y-85116610D01*
X136635626Y-84993340D01*
X136314184Y-84993060D01*
X136017103Y-85115811D01*
X135789610Y-85342907D01*
X135666340Y-85639774D01*
X135666275Y-85713928D01*
X134953558Y-86426644D01*
X134873589Y-86233103D01*
X134646493Y-86005610D01*
X134349626Y-85882340D01*
X134275472Y-85882275D01*
X129163198Y-80770000D01*
X131825995Y-80770000D01*
X131826000Y-80770001D01*
X132068239Y-80721816D01*
X132273599Y-80584599D01*
X132421121Y-80437077D01*
X132494016Y-80437140D01*
X132791097Y-80314389D01*
X133018590Y-80087293D01*
X133039805Y-80036202D01*
X134421523Y-81417921D01*
X134421460Y-81490816D01*
X134544211Y-81787897D01*
X134771307Y-82015390D01*
X135068174Y-82138660D01*
X135389616Y-82138940D01*
X135686697Y-82016189D01*
X135914190Y-81789093D01*
X136037460Y-81492226D01*
X136037740Y-81170784D01*
X135914989Y-80873703D01*
X135687893Y-80646210D01*
X135391026Y-80522940D01*
X135316872Y-80522875D01*
X130292399Y-75498401D01*
X130087039Y-75361184D01*
X130023589Y-75348563D01*
X129774739Y-74976132D01*
X129329760Y-74678807D01*
X128804871Y-74574400D01*
X128751129Y-74574400D01*
X128226240Y-74678807D01*
X127781261Y-74976132D01*
X127508000Y-75385097D01*
X127234739Y-74976132D01*
X126789760Y-74678807D01*
X126264871Y-74574400D01*
X126211129Y-74574400D01*
X125686240Y-74678807D01*
X125241261Y-74976132D01*
X124968000Y-75385097D01*
X124694739Y-74976132D01*
X124249760Y-74678807D01*
X123724871Y-74574400D01*
X123671129Y-74574400D01*
X123146240Y-74678807D01*
X122701261Y-74976132D01*
X122490562Y-75291466D01*
X122440688Y-75171053D01*
X122046490Y-74739179D01*
X121517027Y-74491032D01*
X121285000Y-74611531D01*
X121285000Y-75819000D01*
X121305000Y-75819000D01*
X121305000Y-76073000D01*
X121285000Y-76073000D01*
X121285000Y-76093000D01*
X121031000Y-76093000D01*
X121031000Y-76073000D01*
X119824183Y-76073000D01*
X119703042Y-76305026D01*
X119875312Y-76720947D01*
X120235477Y-77115535D01*
X120106147Y-77139870D01*
X119933247Y-77251128D01*
X119817255Y-77420888D01*
X119776448Y-77622400D01*
X119776448Y-79349600D01*
X119796253Y-79454856D01*
X117981000Y-77639602D01*
X117981000Y-77581552D01*
X118465600Y-77581552D01*
X118653853Y-77546130D01*
X118826753Y-77434872D01*
X118942745Y-77265112D01*
X118983552Y-77063600D01*
X118983552Y-75586974D01*
X119703042Y-75586974D01*
X119824183Y-75819000D01*
X121031000Y-75819000D01*
X121031000Y-74611531D01*
X120798973Y-74491032D01*
X120269510Y-74739179D01*
X119875312Y-75171053D01*
X119703042Y-75586974D01*
X118983552Y-75586974D01*
X118983552Y-74828400D01*
X118978773Y-74803000D01*
X119634000Y-74803000D01*
X119683410Y-74792994D01*
X119725035Y-74764553D01*
X119752315Y-74722159D01*
X119761000Y-74676000D01*
X119761000Y-73025000D01*
X165481000Y-73025000D01*
X165481000Y-74676000D01*
G36*
X140337000Y-88654197D02*
X140337000Y-89406207D01*
X140285410Y-89457707D01*
X140162140Y-89754574D01*
X140161860Y-90076016D01*
X140284611Y-90373097D01*
X140511707Y-90600590D01*
X140808574Y-90723860D01*
X140943489Y-90723978D01*
X140924140Y-90770574D01*
X140923860Y-91092016D01*
X141046611Y-91389097D01*
X141095832Y-91438404D01*
X141020000Y-91423048D01*
X140770000Y-91423048D01*
X140640411Y-91447432D01*
X140520000Y-91423048D01*
X140270000Y-91423048D01*
X140081747Y-91458470D01*
X139908847Y-91569728D01*
X139792855Y-91739488D01*
X139752048Y-91941000D01*
X139752048Y-92941000D01*
X139787470Y-93129253D01*
X139898728Y-93302153D01*
X140068488Y-93418145D01*
X140270000Y-93458952D01*
X140520000Y-93458952D01*
X140649589Y-93434568D01*
X140770000Y-93458952D01*
X141020000Y-93458952D01*
X141149589Y-93434568D01*
X141270000Y-93458952D01*
X141520000Y-93458952D01*
X141649589Y-93434568D01*
X141770000Y-93458952D01*
X142020000Y-93458952D01*
X142149589Y-93434568D01*
X142270000Y-93458952D01*
X142520000Y-93458952D01*
X142649589Y-93434568D01*
X142770000Y-93458952D01*
X143020000Y-93458952D01*
X143149589Y-93434568D01*
X143270000Y-93458952D01*
X143520000Y-93458952D01*
X143649589Y-93434568D01*
X143770000Y-93458952D01*
X144020000Y-93458952D01*
X144149589Y-93434568D01*
X144270000Y-93458952D01*
X144520000Y-93458952D01*
X144547483Y-93453781D01*
X144532048Y-93530000D01*
X144532048Y-94386923D01*
X144303301Y-94481673D01*
X144124673Y-94660302D01*
X144035029Y-94876721D01*
X144018000Y-94893750D01*
X144018000Y-95643000D01*
X144028000Y-95643000D01*
X144028000Y-95647002D01*
X144038000Y-95647002D01*
X144038000Y-95795750D01*
X144028000Y-95805750D01*
X144028000Y-95897000D01*
X144018000Y-95897000D01*
X144018000Y-95917000D01*
X143764000Y-95917000D01*
X143764000Y-95897000D01*
X143039750Y-95897000D01*
X142881000Y-96055750D01*
X142881000Y-96296309D01*
X142949232Y-96461035D01*
X141731889Y-95243691D01*
X142881000Y-95243691D01*
X142881000Y-95484250D01*
X143039750Y-95643000D01*
X143764000Y-95643000D01*
X143764000Y-94893750D01*
X143605250Y-94735000D01*
X143389690Y-94735000D01*
X143156301Y-94831673D01*
X142977673Y-95010302D01*
X142881000Y-95243691D01*
X141731889Y-95243691D01*
X139078000Y-92589802D01*
X139078000Y-91108926D01*
X139133253Y-91098530D01*
X139306153Y-90987272D01*
X139422145Y-90817512D01*
X139462952Y-90616000D01*
X139462952Y-90496074D01*
X139483327Y-90475699D01*
X139580000Y-90242310D01*
X139580000Y-90212250D01*
X139421250Y-90053500D01*
X139347579Y-90053500D01*
X139316272Y-90004847D01*
X139298118Y-89992443D01*
X139306153Y-89987272D01*
X139346310Y-89928500D01*
X139421250Y-89928500D01*
X139580000Y-89769750D01*
X139580000Y-89739690D01*
X139483327Y-89506301D01*
X139462952Y-89485926D01*
X139462952Y-89366000D01*
X139438568Y-89236411D01*
X139462952Y-89116000D01*
X139462952Y-88866000D01*
X139438568Y-88736411D01*
X139461332Y-88624000D01*
X140306802Y-88624000D01*
X140337000Y-88654197D01*
X140337000Y-88654197D01*
G37*
X140337000Y-88654197D02*
X140337000Y-89406207D01*
X140285410Y-89457707D01*
X140162140Y-89754574D01*
X140161860Y-90076016D01*
X140284611Y-90373097D01*
X140511707Y-90600590D01*
X140808574Y-90723860D01*
X140943489Y-90723978D01*
X140924140Y-90770574D01*
X140923860Y-91092016D01*
X141046611Y-91389097D01*
X141095832Y-91438404D01*
X141020000Y-91423048D01*
X140770000Y-91423048D01*
X140640411Y-91447432D01*
X140520000Y-91423048D01*
X140270000Y-91423048D01*
X140081747Y-91458470D01*
X139908847Y-91569728D01*
X139792855Y-91739488D01*
X139752048Y-91941000D01*
X139752048Y-92941000D01*
X139787470Y-93129253D01*
X139898728Y-93302153D01*
X140068488Y-93418145D01*
X140270000Y-93458952D01*
X140520000Y-93458952D01*
X140649589Y-93434568D01*
X140770000Y-93458952D01*
X141020000Y-93458952D01*
X141149589Y-93434568D01*
X141270000Y-93458952D01*
X141520000Y-93458952D01*
X141649589Y-93434568D01*
X141770000Y-93458952D01*
X142020000Y-93458952D01*
X142149589Y-93434568D01*
X142270000Y-93458952D01*
X142520000Y-93458952D01*
X142649589Y-93434568D01*
X142770000Y-93458952D01*
X143020000Y-93458952D01*
X143149589Y-93434568D01*
X143270000Y-93458952D01*
X143520000Y-93458952D01*
X143649589Y-93434568D01*
X143770000Y-93458952D01*
X144020000Y-93458952D01*
X144149589Y-93434568D01*
X144270000Y-93458952D01*
X144520000Y-93458952D01*
X144547483Y-93453781D01*
X144532048Y-93530000D01*
X144532048Y-94386923D01*
X144303301Y-94481673D01*
X144124673Y-94660302D01*
X144035029Y-94876721D01*
X144018000Y-94893750D01*
X144018000Y-95643000D01*
X144028000Y-95643000D01*
X144028000Y-95647002D01*
X144038000Y-95647002D01*
X144038000Y-95795750D01*
X144028000Y-95805750D01*
X144028000Y-95897000D01*
X144018000Y-95897000D01*
X144018000Y-95917000D01*
X143764000Y-95917000D01*
X143764000Y-95897000D01*
X143039750Y-95897000D01*
X142881000Y-96055750D01*
X142881000Y-96296309D01*
X142949232Y-96461035D01*
X141731889Y-95243691D01*
X142881000Y-95243691D01*
X142881000Y-95484250D01*
X143039750Y-95643000D01*
X143764000Y-95643000D01*
X143764000Y-94893750D01*
X143605250Y-94735000D01*
X143389690Y-94735000D01*
X143156301Y-94831673D01*
X142977673Y-95010302D01*
X142881000Y-95243691D01*
X141731889Y-95243691D01*
X139078000Y-92589802D01*
X139078000Y-91108926D01*
X139133253Y-91098530D01*
X139306153Y-90987272D01*
X139422145Y-90817512D01*
X139462952Y-90616000D01*
X139462952Y-90496074D01*
X139483327Y-90475699D01*
X139580000Y-90242310D01*
X139580000Y-90212250D01*
X139421250Y-90053500D01*
X139347579Y-90053500D01*
X139316272Y-90004847D01*
X139298118Y-89992443D01*
X139306153Y-89987272D01*
X139346310Y-89928500D01*
X139421250Y-89928500D01*
X139580000Y-89769750D01*
X139580000Y-89739690D01*
X139483327Y-89506301D01*
X139462952Y-89485926D01*
X139462952Y-89366000D01*
X139438568Y-89236411D01*
X139462952Y-89116000D01*
X139462952Y-88866000D01*
X139438568Y-88736411D01*
X139461332Y-88624000D01*
X140306802Y-88624000D01*
X140337000Y-88654197D01*
G36*
X145415000Y-95393000D02*
X145900940Y-95393000D01*
X145950940Y-95443000D01*
X146700240Y-95443000D01*
X146700240Y-95423000D01*
X146954240Y-95423000D01*
X146954240Y-95443000D01*
X146974240Y-95443000D01*
X146974240Y-95697000D01*
X146954240Y-95697000D01*
X146954240Y-95717000D01*
X146700240Y-95717000D01*
X146700240Y-95697000D01*
X146439250Y-95697000D01*
X146389250Y-95647000D01*
X145415000Y-95647000D01*
X145415000Y-95667000D01*
X145161000Y-95667000D01*
X145161000Y-95647000D01*
X145141000Y-95647000D01*
X145141000Y-95393000D01*
X145161000Y-95393000D01*
X145161000Y-95373000D01*
X145415000Y-95373000D01*
X145415000Y-95393000D01*
X145415000Y-95393000D01*
G37*
X145415000Y-95393000D02*
X145900940Y-95393000D01*
X145950940Y-95443000D01*
X146700240Y-95443000D01*
X146700240Y-95423000D01*
X146954240Y-95423000D01*
X146954240Y-95443000D01*
X146974240Y-95443000D01*
X146974240Y-95697000D01*
X146954240Y-95697000D01*
X146954240Y-95717000D01*
X146700240Y-95717000D01*
X146700240Y-95697000D01*
X146439250Y-95697000D01*
X146389250Y-95647000D01*
X145415000Y-95647000D01*
X145415000Y-95667000D01*
X145161000Y-95667000D01*
X145161000Y-95647000D01*
X145141000Y-95647000D01*
X145141000Y-95393000D01*
X145161000Y-95393000D01*
X145161000Y-95373000D01*
X145415000Y-95373000D01*
X145415000Y-95393000D01*
G36*
X148834302Y-94893327D02*
X149067691Y-94990000D01*
X149108000Y-94990000D01*
X149108000Y-95234250D01*
X149266750Y-95393000D01*
X150241000Y-95393000D01*
X150241000Y-95373000D01*
X150495000Y-95373000D01*
X150495000Y-95393000D01*
X150515000Y-95393000D01*
X150515000Y-95647000D01*
X150495000Y-95647000D01*
X150495000Y-95667000D01*
X150241000Y-95667000D01*
X150241000Y-95647000D01*
X149433922Y-95647000D01*
X149427782Y-95642805D01*
X149226270Y-95601998D01*
X148705121Y-95601998D01*
X148727001Y-95492000D01*
X148727000Y-95491995D01*
X148727000Y-94808736D01*
X148740819Y-94799844D01*
X148834302Y-94893327D01*
X148834302Y-94893327D01*
G37*
X148834302Y-94893327D02*
X149067691Y-94990000D01*
X149108000Y-94990000D01*
X149108000Y-95234250D01*
X149266750Y-95393000D01*
X150241000Y-95393000D01*
X150241000Y-95373000D01*
X150495000Y-95373000D01*
X150495000Y-95393000D01*
X150515000Y-95393000D01*
X150515000Y-95647000D01*
X150495000Y-95647000D01*
X150495000Y-95667000D01*
X150241000Y-95667000D01*
X150241000Y-95647000D01*
X149433922Y-95647000D01*
X149427782Y-95642805D01*
X149226270Y-95601998D01*
X148705121Y-95601998D01*
X148727001Y-95492000D01*
X148727000Y-95491995D01*
X148727000Y-94808736D01*
X148740819Y-94799844D01*
X148834302Y-94893327D01*
G36*
X150924619Y-90999517D02*
X150699245Y-91092639D01*
X150415336Y-91376053D01*
X150261496Y-91746541D01*
X150261146Y-92147699D01*
X150414339Y-92518455D01*
X150697753Y-92802364D01*
X151068241Y-92956204D01*
X151382981Y-92956479D01*
X151396502Y-92970000D01*
X151173750Y-92970000D01*
X151015000Y-93128750D01*
X151015000Y-93853000D01*
X151035000Y-93853000D01*
X151035000Y-94107000D01*
X151015000Y-94107000D01*
X151015000Y-94127000D01*
X150761000Y-94127000D01*
X150761000Y-94107000D01*
X149721000Y-94107000D01*
X149721000Y-94127000D01*
X149467000Y-94127000D01*
X149467000Y-94107000D01*
X149447000Y-94107000D01*
X149447000Y-93853000D01*
X149467000Y-93853000D01*
X149467000Y-93128750D01*
X149721000Y-93128750D01*
X149721000Y-93853000D01*
X150761000Y-93853000D01*
X150761000Y-93128750D01*
X150602250Y-92970000D01*
X150361691Y-92970000D01*
X150241000Y-93019992D01*
X150120309Y-92970000D01*
X149879750Y-92970000D01*
X149721000Y-93128750D01*
X149467000Y-93128750D01*
X149308250Y-92970000D01*
X149067691Y-92970000D01*
X148834302Y-93066673D01*
X148741617Y-93159357D01*
X148695512Y-93127855D01*
X148528000Y-93093933D01*
X148528000Y-92990145D01*
X148537952Y-92941000D01*
X148537952Y-91941000D01*
X148528000Y-91888109D01*
X148528000Y-91127197D01*
X148531197Y-91124000D01*
X149295855Y-91124000D01*
X149345000Y-91133952D01*
X150345000Y-91133952D01*
X150533253Y-91098530D01*
X150706153Y-90987272D01*
X150789862Y-90864760D01*
X150924619Y-90999517D01*
X150924619Y-90999517D01*
G37*
X150924619Y-90999517D02*
X150699245Y-91092639D01*
X150415336Y-91376053D01*
X150261496Y-91746541D01*
X150261146Y-92147699D01*
X150414339Y-92518455D01*
X150697753Y-92802364D01*
X151068241Y-92956204D01*
X151382981Y-92956479D01*
X151396502Y-92970000D01*
X151173750Y-92970000D01*
X151015000Y-93128750D01*
X151015000Y-93853000D01*
X151035000Y-93853000D01*
X151035000Y-94107000D01*
X151015000Y-94107000D01*
X151015000Y-94127000D01*
X150761000Y-94127000D01*
X150761000Y-94107000D01*
X149721000Y-94107000D01*
X149721000Y-94127000D01*
X149467000Y-94127000D01*
X149467000Y-94107000D01*
X149447000Y-94107000D01*
X149447000Y-93853000D01*
X149467000Y-93853000D01*
X149467000Y-93128750D01*
X149721000Y-93128750D01*
X149721000Y-93853000D01*
X150761000Y-93853000D01*
X150761000Y-93128750D01*
X150602250Y-92970000D01*
X150361691Y-92970000D01*
X150241000Y-93019992D01*
X150120309Y-92970000D01*
X149879750Y-92970000D01*
X149721000Y-93128750D01*
X149467000Y-93128750D01*
X149308250Y-92970000D01*
X149067691Y-92970000D01*
X148834302Y-93066673D01*
X148741617Y-93159357D01*
X148695512Y-93127855D01*
X148528000Y-93093933D01*
X148528000Y-92990145D01*
X148537952Y-92941000D01*
X148537952Y-91941000D01*
X148528000Y-91888109D01*
X148528000Y-91127197D01*
X148531197Y-91124000D01*
X149295855Y-91124000D01*
X149345000Y-91133952D01*
X150345000Y-91133952D01*
X150533253Y-91098530D01*
X150706153Y-90987272D01*
X150789862Y-90864760D01*
X150924619Y-90999517D01*
G36*
X154571000Y-92075000D02*
X154591000Y-92075000D01*
X154591000Y-92329000D01*
X154571000Y-92329000D01*
X154571000Y-92349000D01*
X154317000Y-92349000D01*
X154317000Y-92329000D01*
X154297000Y-92329000D01*
X154297000Y-92075000D01*
X154317000Y-92075000D01*
X154317000Y-92055000D01*
X154571000Y-92055000D01*
X154571000Y-92075000D01*
X154571000Y-92075000D01*
G37*
X154571000Y-92075000D02*
X154591000Y-92075000D01*
X154591000Y-92329000D01*
X154571000Y-92329000D01*
X154571000Y-92349000D01*
X154317000Y-92349000D01*
X154317000Y-92329000D01*
X154297000Y-92329000D01*
X154297000Y-92075000D01*
X154317000Y-92075000D01*
X154317000Y-92055000D01*
X154571000Y-92055000D01*
X154571000Y-92075000D01*
G36*
X146262000Y-83862241D02*
X146190910Y-83933207D01*
X146067640Y-84230074D01*
X146067360Y-84551516D01*
X146190111Y-84848597D01*
X146417207Y-85076090D01*
X146714074Y-85199360D01*
X146788227Y-85199425D01*
X147262000Y-85673198D01*
X147262000Y-90135395D01*
X147261999Y-90135400D01*
X147262000Y-90135405D01*
X147262000Y-90490995D01*
X147261999Y-90491000D01*
X147262000Y-90491005D01*
X147262000Y-90864995D01*
X147261999Y-90865000D01*
X147262000Y-90865005D01*
X147262000Y-91394250D01*
X147173750Y-91306000D01*
X147143690Y-91306000D01*
X146910301Y-91402673D01*
X146889926Y-91423048D01*
X146770000Y-91423048D01*
X146640411Y-91447432D01*
X146520000Y-91423048D01*
X146270000Y-91423048D01*
X146140411Y-91447432D01*
X146020000Y-91423048D01*
X145770000Y-91423048D01*
X145640411Y-91447432D01*
X145520000Y-91423048D01*
X145270000Y-91423048D01*
X145140411Y-91447432D01*
X145020000Y-91423048D01*
X144770000Y-91423048D01*
X144640411Y-91447432D01*
X144520000Y-91423048D01*
X144270000Y-91423048D01*
X144140411Y-91447432D01*
X144020000Y-91423048D01*
X143770000Y-91423048D01*
X143640411Y-91447432D01*
X143520000Y-91423048D01*
X143270000Y-91423048D01*
X143140411Y-91447432D01*
X143020000Y-91423048D01*
X142770000Y-91423048D01*
X142640411Y-91447432D01*
X142520000Y-91423048D01*
X142383778Y-91423048D01*
X142416590Y-91390293D01*
X142539860Y-91093426D01*
X142540140Y-90771984D01*
X142417389Y-90474903D01*
X142365000Y-90422422D01*
X142365000Y-88392000D01*
X142316816Y-88149761D01*
X142179599Y-87944401D01*
X142179596Y-87944399D01*
X141278599Y-87043401D01*
X141073239Y-86906184D01*
X140831000Y-86857999D01*
X140830995Y-86858000D01*
X139461447Y-86858000D01*
X139438568Y-86736411D01*
X139462952Y-86616000D01*
X139462952Y-86366000D01*
X139438568Y-86236411D01*
X139462952Y-86116000D01*
X139462952Y-85866000D01*
X139438568Y-85736411D01*
X139462952Y-85616000D01*
X139462952Y-85366000D01*
X139438568Y-85236411D01*
X139462952Y-85116000D01*
X139462952Y-84866000D01*
X139438568Y-84736411D01*
X139461332Y-84624000D01*
X139657572Y-84624000D01*
X139776611Y-84912097D01*
X140003707Y-85139590D01*
X140300574Y-85262860D01*
X140622016Y-85263140D01*
X140919097Y-85140389D01*
X141093603Y-84966188D01*
X141108761Y-84976316D01*
X141351000Y-85024500D01*
X144079707Y-85024500D01*
X144131207Y-85076090D01*
X144428074Y-85199360D01*
X144749516Y-85199640D01*
X145046597Y-85076889D01*
X145274090Y-84849793D01*
X145397360Y-84552926D01*
X145397640Y-84231484D01*
X145274889Y-83934403D01*
X145066274Y-83725424D01*
X145181460Y-83448026D01*
X145181472Y-83433860D01*
X145236107Y-83488590D01*
X145532974Y-83611860D01*
X145854416Y-83612140D01*
X146151497Y-83489389D01*
X146262000Y-83379079D01*
X146262000Y-83862241D01*
X146262000Y-83862241D01*
G37*
X146262000Y-83862241D02*
X146190910Y-83933207D01*
X146067640Y-84230074D01*
X146067360Y-84551516D01*
X146190111Y-84848597D01*
X146417207Y-85076090D01*
X146714074Y-85199360D01*
X146788227Y-85199425D01*
X147262000Y-85673198D01*
X147262000Y-90135395D01*
X147261999Y-90135400D01*
X147262000Y-90135405D01*
X147262000Y-90490995D01*
X147261999Y-90491000D01*
X147262000Y-90491005D01*
X147262000Y-90864995D01*
X147261999Y-90865000D01*
X147262000Y-90865005D01*
X147262000Y-91394250D01*
X147173750Y-91306000D01*
X147143690Y-91306000D01*
X146910301Y-91402673D01*
X146889926Y-91423048D01*
X146770000Y-91423048D01*
X146640411Y-91447432D01*
X146520000Y-91423048D01*
X146270000Y-91423048D01*
X146140411Y-91447432D01*
X146020000Y-91423048D01*
X145770000Y-91423048D01*
X145640411Y-91447432D01*
X145520000Y-91423048D01*
X145270000Y-91423048D01*
X145140411Y-91447432D01*
X145020000Y-91423048D01*
X144770000Y-91423048D01*
X144640411Y-91447432D01*
X144520000Y-91423048D01*
X144270000Y-91423048D01*
X144140411Y-91447432D01*
X144020000Y-91423048D01*
X143770000Y-91423048D01*
X143640411Y-91447432D01*
X143520000Y-91423048D01*
X143270000Y-91423048D01*
X143140411Y-91447432D01*
X143020000Y-91423048D01*
X142770000Y-91423048D01*
X142640411Y-91447432D01*
X142520000Y-91423048D01*
X142383778Y-91423048D01*
X142416590Y-91390293D01*
X142539860Y-91093426D01*
X142540140Y-90771984D01*
X142417389Y-90474903D01*
X142365000Y-90422422D01*
X142365000Y-88392000D01*
X142316816Y-88149761D01*
X142179599Y-87944401D01*
X142179596Y-87944399D01*
X141278599Y-87043401D01*
X141073239Y-86906184D01*
X140831000Y-86857999D01*
X140830995Y-86858000D01*
X139461447Y-86858000D01*
X139438568Y-86736411D01*
X139462952Y-86616000D01*
X139462952Y-86366000D01*
X139438568Y-86236411D01*
X139462952Y-86116000D01*
X139462952Y-85866000D01*
X139438568Y-85736411D01*
X139462952Y-85616000D01*
X139462952Y-85366000D01*
X139438568Y-85236411D01*
X139462952Y-85116000D01*
X139462952Y-84866000D01*
X139438568Y-84736411D01*
X139461332Y-84624000D01*
X139657572Y-84624000D01*
X139776611Y-84912097D01*
X140003707Y-85139590D01*
X140300574Y-85262860D01*
X140622016Y-85263140D01*
X140919097Y-85140389D01*
X141093603Y-84966188D01*
X141108761Y-84976316D01*
X141351000Y-85024500D01*
X144079707Y-85024500D01*
X144131207Y-85076090D01*
X144428074Y-85199360D01*
X144749516Y-85199640D01*
X145046597Y-85076889D01*
X145274090Y-84849793D01*
X145397360Y-84552926D01*
X145397640Y-84231484D01*
X145274889Y-83934403D01*
X145066274Y-83725424D01*
X145181460Y-83448026D01*
X145181472Y-83433860D01*
X145236107Y-83488590D01*
X145532974Y-83611860D01*
X145854416Y-83612140D01*
X146151497Y-83489389D01*
X146262000Y-83379079D01*
X146262000Y-83862241D01*
G36*
X148806673Y-85475699D02*
X148827048Y-85496074D01*
X148827048Y-85616000D01*
X148851432Y-85745589D01*
X148827048Y-85866000D01*
X148827048Y-86116000D01*
X148851432Y-86245589D01*
X148827048Y-86366000D01*
X148827048Y-86616000D01*
X148851432Y-86745589D01*
X148827048Y-86866000D01*
X148827048Y-87116000D01*
X148851432Y-87245589D01*
X148827048Y-87366000D01*
X148827048Y-87616000D01*
X148851432Y-87745589D01*
X148827048Y-87866000D01*
X148827048Y-88116000D01*
X148851432Y-88245589D01*
X148827048Y-88366000D01*
X148827048Y-88616000D01*
X148843171Y-88701687D01*
X148582384Y-88701460D01*
X148528000Y-88723931D01*
X148528000Y-85666198D01*
X148780847Y-85413351D01*
X148806673Y-85475699D01*
X148806673Y-85475699D01*
G37*
X148806673Y-85475699D02*
X148827048Y-85496074D01*
X148827048Y-85616000D01*
X148851432Y-85745589D01*
X148827048Y-85866000D01*
X148827048Y-86116000D01*
X148851432Y-86245589D01*
X148827048Y-86366000D01*
X148827048Y-86616000D01*
X148851432Y-86745589D01*
X148827048Y-86866000D01*
X148827048Y-87116000D01*
X148851432Y-87245589D01*
X148827048Y-87366000D01*
X148827048Y-87616000D01*
X148851432Y-87745589D01*
X148827048Y-87866000D01*
X148827048Y-88116000D01*
X148851432Y-88245589D01*
X148827048Y-88366000D01*
X148827048Y-88616000D01*
X148843171Y-88701687D01*
X148582384Y-88701460D01*
X148528000Y-88723931D01*
X148528000Y-85666198D01*
X148780847Y-85413351D01*
X148806673Y-85475699D01*
G36*
X141177923Y-82383121D02*
X141177860Y-82456016D01*
X141300611Y-82753097D01*
X141527707Y-82980590D01*
X141824574Y-83103860D01*
X141991185Y-83104005D01*
X141834810Y-83260107D01*
X141711540Y-83556974D01*
X141711364Y-83758500D01*
X141613197Y-83758500D01*
X141028000Y-83173302D01*
X141028000Y-82233198D01*
X141177923Y-82383121D01*
X141177923Y-82383121D01*
G37*
X141177923Y-82383121D02*
X141177860Y-82456016D01*
X141300611Y-82753097D01*
X141527707Y-82980590D01*
X141824574Y-83103860D01*
X141991185Y-83104005D01*
X141834810Y-83260107D01*
X141711540Y-83556974D01*
X141711364Y-83758500D01*
X141613197Y-83758500D01*
X141028000Y-83173302D01*
X141028000Y-82233198D01*
X141177923Y-82383121D01*
G36*
X138823000Y-79375000D02*
X138843000Y-79375000D01*
X138843000Y-79629000D01*
X138823000Y-79629000D01*
X138823000Y-80353250D01*
X138981750Y-80512000D01*
X139222309Y-80512000D01*
X139455698Y-80415327D01*
X139548383Y-80322643D01*
X139594488Y-80354145D01*
X139762000Y-80388067D01*
X139762000Y-80491855D01*
X139752048Y-80541000D01*
X139752048Y-81541000D01*
X139762000Y-81593891D01*
X139762000Y-83358000D01*
X139461447Y-83358000D01*
X139438568Y-83236411D01*
X139462952Y-83116000D01*
X139462952Y-82866000D01*
X139427530Y-82677747D01*
X139316272Y-82504847D01*
X139146512Y-82388855D01*
X138945000Y-82348048D01*
X137945000Y-82348048D01*
X137756747Y-82383470D01*
X137583847Y-82494728D01*
X137539000Y-82560364D01*
X137539000Y-79548109D01*
X137574016Y-79548140D01*
X137661000Y-79512199D01*
X137661000Y-79629002D01*
X137819748Y-79629002D01*
X137661000Y-79787750D01*
X137661000Y-80003310D01*
X137757673Y-80236699D01*
X137936302Y-80415327D01*
X138169691Y-80512000D01*
X138410250Y-80512000D01*
X138569000Y-80353250D01*
X138569000Y-79629000D01*
X138549000Y-79629000D01*
X138549000Y-79375000D01*
X138569000Y-79375000D01*
X138569000Y-79355000D01*
X138823000Y-79355000D01*
X138823000Y-79375000D01*
X138823000Y-79375000D01*
G37*
X138823000Y-79375000D02*
X138843000Y-79375000D01*
X138843000Y-79629000D01*
X138823000Y-79629000D01*
X138823000Y-80353250D01*
X138981750Y-80512000D01*
X139222309Y-80512000D01*
X139455698Y-80415327D01*
X139548383Y-80322643D01*
X139594488Y-80354145D01*
X139762000Y-80388067D01*
X139762000Y-80491855D01*
X139752048Y-80541000D01*
X139752048Y-81541000D01*
X139762000Y-81593891D01*
X139762000Y-83358000D01*
X139461447Y-83358000D01*
X139438568Y-83236411D01*
X139462952Y-83116000D01*
X139462952Y-82866000D01*
X139427530Y-82677747D01*
X139316272Y-82504847D01*
X139146512Y-82388855D01*
X138945000Y-82348048D01*
X137945000Y-82348048D01*
X137756747Y-82383470D01*
X137583847Y-82494728D01*
X137539000Y-82560364D01*
X137539000Y-79548109D01*
X137574016Y-79548140D01*
X137661000Y-79512199D01*
X137661000Y-79629002D01*
X137819748Y-79629002D01*
X137661000Y-79787750D01*
X137661000Y-80003310D01*
X137757673Y-80236699D01*
X137936302Y-80415327D01*
X138169691Y-80512000D01*
X138410250Y-80512000D01*
X138569000Y-80353250D01*
X138569000Y-79629000D01*
X138549000Y-79629000D01*
X138549000Y-79375000D01*
X138569000Y-79375000D01*
X138569000Y-79355000D01*
X138823000Y-79355000D01*
X138823000Y-79375000D01*
G36*
X146370307Y-76716646D02*
X146667632Y-77161625D01*
X147098263Y-77449363D01*
X146862903Y-77546611D01*
X146635410Y-77773707D01*
X146512140Y-78070574D01*
X146512075Y-78144727D01*
X146503401Y-78153401D01*
X146366184Y-78358761D01*
X146317999Y-78601000D01*
X146318000Y-78601005D01*
X146318000Y-78736764D01*
X146189847Y-78819228D01*
X146154881Y-78870402D01*
X146152693Y-78868210D01*
X145855826Y-78744940D01*
X145534384Y-78744660D01*
X145237303Y-78867411D01*
X145009810Y-79094507D01*
X144886540Y-79391374D01*
X144886449Y-79495822D01*
X144810184Y-79609961D01*
X144783560Y-79743810D01*
X144668750Y-79629000D01*
X144067500Y-79629000D01*
X144067500Y-79649000D01*
X143817500Y-79649000D01*
X143817500Y-79629000D01*
X143795500Y-79629000D01*
X143795500Y-79375000D01*
X143817500Y-79375000D01*
X143817500Y-78575750D01*
X144067500Y-78575750D01*
X144067500Y-79375000D01*
X144668750Y-79375000D01*
X144827500Y-79216250D01*
X144827500Y-78925690D01*
X144730827Y-78692301D01*
X144552198Y-78513673D01*
X144318809Y-78417000D01*
X144226250Y-78417000D01*
X144067500Y-78575750D01*
X143817500Y-78575750D01*
X143658750Y-78417000D01*
X143566191Y-78417000D01*
X143332802Y-78513673D01*
X143154173Y-78692301D01*
X143119137Y-78776886D01*
X143063772Y-78690847D01*
X142894012Y-78574855D01*
X142692500Y-78534048D01*
X142192500Y-78534048D01*
X142004247Y-78569470D01*
X141831347Y-78680728D01*
X141715355Y-78850488D01*
X141705097Y-78901144D01*
X141512426Y-78821140D01*
X141190984Y-78820860D01*
X141042224Y-78882326D01*
X140967272Y-78765847D01*
X140829000Y-78671370D01*
X140829000Y-78601005D01*
X140829001Y-78601000D01*
X140780816Y-78358762D01*
X140780816Y-78358761D01*
X140643599Y-78153401D01*
X140643596Y-78153399D01*
X140047573Y-77557375D01*
X140542389Y-77458950D01*
X140987368Y-77161625D01*
X141284693Y-76716646D01*
X141287500Y-76702534D01*
X141290307Y-76716646D01*
X141587632Y-77161625D01*
X142032611Y-77458950D01*
X142557500Y-77563357D01*
X143082389Y-77458950D01*
X143527368Y-77161625D01*
X143824693Y-76716646D01*
X143827500Y-76702534D01*
X143830307Y-76716646D01*
X144127632Y-77161625D01*
X144572611Y-77458950D01*
X145097500Y-77563357D01*
X145622389Y-77458950D01*
X146067368Y-77161625D01*
X146364693Y-76716646D01*
X146367500Y-76702534D01*
X146370307Y-76716646D01*
X146370307Y-76716646D01*
G37*
X146370307Y-76716646D02*
X146667632Y-77161625D01*
X147098263Y-77449363D01*
X146862903Y-77546611D01*
X146635410Y-77773707D01*
X146512140Y-78070574D01*
X146512075Y-78144727D01*
X146503401Y-78153401D01*
X146366184Y-78358761D01*
X146317999Y-78601000D01*
X146318000Y-78601005D01*
X146318000Y-78736764D01*
X146189847Y-78819228D01*
X146154881Y-78870402D01*
X146152693Y-78868210D01*
X145855826Y-78744940D01*
X145534384Y-78744660D01*
X145237303Y-78867411D01*
X145009810Y-79094507D01*
X144886540Y-79391374D01*
X144886449Y-79495822D01*
X144810184Y-79609961D01*
X144783560Y-79743810D01*
X144668750Y-79629000D01*
X144067500Y-79629000D01*
X144067500Y-79649000D01*
X143817500Y-79649000D01*
X143817500Y-79629000D01*
X143795500Y-79629000D01*
X143795500Y-79375000D01*
X143817500Y-79375000D01*
X143817500Y-78575750D01*
X144067500Y-78575750D01*
X144067500Y-79375000D01*
X144668750Y-79375000D01*
X144827500Y-79216250D01*
X144827500Y-78925690D01*
X144730827Y-78692301D01*
X144552198Y-78513673D01*
X144318809Y-78417000D01*
X144226250Y-78417000D01*
X144067500Y-78575750D01*
X143817500Y-78575750D01*
X143658750Y-78417000D01*
X143566191Y-78417000D01*
X143332802Y-78513673D01*
X143154173Y-78692301D01*
X143119137Y-78776886D01*
X143063772Y-78690847D01*
X142894012Y-78574855D01*
X142692500Y-78534048D01*
X142192500Y-78534048D01*
X142004247Y-78569470D01*
X141831347Y-78680728D01*
X141715355Y-78850488D01*
X141705097Y-78901144D01*
X141512426Y-78821140D01*
X141190984Y-78820860D01*
X141042224Y-78882326D01*
X140967272Y-78765847D01*
X140829000Y-78671370D01*
X140829000Y-78601005D01*
X140829001Y-78601000D01*
X140780816Y-78358762D01*
X140780816Y-78358761D01*
X140643599Y-78153401D01*
X140643596Y-78153399D01*
X140047573Y-77557375D01*
X140542389Y-77458950D01*
X140987368Y-77161625D01*
X141284693Y-76716646D01*
X141287500Y-76702534D01*
X141290307Y-76716646D01*
X141587632Y-77161625D01*
X142032611Y-77458950D01*
X142557500Y-77563357D01*
X143082389Y-77458950D01*
X143527368Y-77161625D01*
X143824693Y-76716646D01*
X143827500Y-76702534D01*
X143830307Y-76716646D01*
X144127632Y-77161625D01*
X144572611Y-77458950D01*
X145097500Y-77563357D01*
X145622389Y-77458950D01*
X146067368Y-77161625D01*
X146364693Y-76716646D01*
X146367500Y-76702534D01*
X146370307Y-76716646D01*
M02*
