G04 #@! TF.FileFunction,Other,User*
%FSLAX46Y46*%
G04 Gerber Fmt 4.6, Leading zero omitted, Abs format (unit mm)*
G04 Created by KiCad (PCBNEW 4.0.2-stable) date 2016年09月17日 星期六 10:25:48*
%MOMM*%
G01*
G04 APERTURE LIST*
%ADD10C,0.100000*%
%ADD11C,0.050000*%
G04 APERTURE END LIST*
D10*
D11*
X169860000Y-78072000D02*
X169860000Y-88472000D01*
X180060000Y-78072000D02*
X169860000Y-78072000D01*
X180060000Y-88472000D02*
X180060000Y-78072000D01*
X169860000Y-88472000D02*
X180060000Y-88472000D01*
X169860000Y-88740000D02*
X169860000Y-99140000D01*
X180060000Y-88740000D02*
X169860000Y-88740000D01*
X180060000Y-99140000D02*
X180060000Y-88740000D01*
X169860000Y-99140000D02*
X180060000Y-99140000D01*
X118938000Y-88552000D02*
X118938000Y-78152000D01*
X108738000Y-88552000D02*
X118938000Y-88552000D01*
X108738000Y-78152000D02*
X108738000Y-88552000D01*
X118938000Y-78152000D02*
X108738000Y-78152000D01*
X118938000Y-99220000D02*
X118938000Y-88820000D01*
X108738000Y-99220000D02*
X118938000Y-99220000D01*
X108738000Y-88820000D02*
X108738000Y-99220000D01*
X118938000Y-88820000D02*
X108738000Y-88820000D01*
X133187500Y-77509500D02*
X133187500Y-65409500D01*
X154487500Y-77509500D02*
X154487500Y-65409500D01*
X133187500Y-77509500D02*
X154487500Y-77509500D01*
X133187500Y-65409500D02*
X154487500Y-65409500D01*
X119408000Y-79836000D02*
X119408000Y-65336000D01*
X130558000Y-79836000D02*
X130558000Y-65336000D01*
X119408000Y-79836000D02*
X130558000Y-79836000D01*
X119408000Y-65336000D02*
X130558000Y-65336000D01*
M02*
