M48
;DRILL file {KiCad 4.0.2-stable} date 2016年09月17日 星期六 10:25:52
;FORMAT={-:-/ absolute / inch / decimal}
FMAT,2
INCH,TZ
T1C0.016
T2C0.024
T3C0.040
T4C0.051
%
G90
G05
M72
T1
X5.028Y-3.66
X5.21Y-3.135
X5.283Y-3.413
X5.324Y-3.202
X5.373Y-3.378
X5.39Y-3.675
X5.41Y-3.1
X5.482Y-3.096
X5.499Y-3.543
X5.53Y-3.325
X5.55Y-3.54
X5.554Y-3.257
X5.565Y-3.135
X5.58Y-3.58
X5.58Y-3.726
X5.59Y-3.24
X5.611Y-3.296
X5.636Y-3.078
X5.684Y-3.279
X5.6925Y-3.3225
X5.736Y-3.132
X5.736Y-3.26
X5.779Y-3.798
X5.7825Y-3.3225
X5.791Y-3.591
X5.8Y-3.08
X5.818Y-3.24
X5.852Y-3.369
X5.856Y-3.524
X5.869Y-3.747
X5.889Y-3.658
X5.94Y-3.14
X5.941Y-3.659
X6.019Y-3.77
X6.048Y-3.169
X6.053Y-3.37
X6.059Y-3.325
X6.08Y-3.665
X6.14Y-3.372
X6.155Y-3.175
X6.161Y-3.691
X6.339Y-3.486
T2
X5.9555Y-3.62
X6.0145Y-3.62
T3
X4.62Y-2.99
X4.62Y-3.99
X4.77Y-2.99
X4.77Y-3.09
X4.87Y-2.99
X4.87Y-3.09
X4.97Y-2.99
X4.97Y-3.09
X5.07Y-2.99
X5.07Y-3.09
X5.3125Y-2.9925
X5.4125Y-2.9925
X5.5125Y-2.9925
X5.53Y-3.93
X5.6125Y-2.9925
X5.63Y-3.93
X5.7125Y-2.9925
X5.73Y-3.93
X5.8125Y-2.9925
X5.83Y-3.93
X5.9125Y-2.9925
X6.0125Y-2.9925
X6.16Y-3.
X6.26Y-3.
X6.36Y-3.
X6.46Y-3.
X6.74Y-2.99
X6.74Y-3.99
T4
X4.47Y-3.1831
X4.47Y-3.38
X4.47Y-3.6031
X4.47Y-3.8
X6.9Y-3.18
X6.9Y-3.3769
X6.9Y-3.6
X6.9Y-3.7969
T0
M30
