G04 #@! TF.FileFunction,Soldermask,Top*
%FSLAX46Y46*%
G04 Gerber Fmt 4.6, Leading zero omitted, Abs format (unit mm)*
G04 Created by KiCad (PCBNEW 4.0.2-stable) date 2016年09月17日 星期六 10:25:48*
%MOMM*%
G01*
G04 APERTURE LIST*
%ADD10C,0.100000*%
%ADD11R,1.650000X1.400000*%
%ADD12R,1.150000X1.200000*%
%ADD13R,1.200000X1.150000*%
%ADD14R,2.900000X2.900000*%
%ADD15C,2.900000*%
%ADD16R,2.635200X2.635200*%
%ADD17R,2.127200X2.432000*%
%ADD18O,2.127200X2.432000*%
%ADD19R,2.127200X2.127200*%
%ADD20O,2.127200X2.127200*%
%ADD21R,0.900000X1.300000*%
%ADD22R,1.300000X0.900000*%
%ADD23R,1.200100X1.200100*%
%ADD24R,1.400000X0.650000*%
%ADD25R,0.650000X1.400000*%
%ADD26R,1.600000X1.800000*%
%ADD27C,1.400760*%
G04 APERTURE END LIST*
D10*
D11*
X150368000Y-97520000D03*
X150368000Y-95520000D03*
X145288000Y-97520000D03*
X145288000Y-95520000D03*
D12*
X151765000Y-95770000D03*
X151765000Y-97270000D03*
X143891000Y-95770000D03*
X143891000Y-97270000D03*
D13*
X148094000Y-93980000D03*
X149594000Y-93980000D03*
X154444000Y-86868000D03*
X155944000Y-86868000D03*
X155944000Y-92202000D03*
X154444000Y-92202000D03*
X153809000Y-93980000D03*
X155309000Y-93980000D03*
D12*
X152654000Y-87237000D03*
X152654000Y-85737000D03*
D13*
X151269000Y-84455000D03*
X152769000Y-84455000D03*
X152388000Y-93980000D03*
X150888000Y-93980000D03*
D12*
X136906000Y-90690000D03*
X136906000Y-92190000D03*
D13*
X146951000Y-79565500D03*
X148451000Y-79565500D03*
X140196000Y-79502000D03*
X138696000Y-79502000D03*
D14*
X175260000Y-80772000D03*
D15*
X175260000Y-85772000D03*
D14*
X175260000Y-91440000D03*
D15*
X175260000Y-96440000D03*
D16*
X171196000Y-75946000D03*
X171196000Y-101346000D03*
D14*
X113538000Y-85852000D03*
D15*
X113538000Y-80852000D03*
D14*
X113538000Y-96520000D03*
D15*
X113538000Y-91520000D03*
D16*
X117348000Y-75946000D03*
X117348000Y-101346000D03*
D17*
X134937500Y-76009500D03*
D18*
X137477500Y-76009500D03*
X140017500Y-76009500D03*
X142557500Y-76009500D03*
X145097500Y-76009500D03*
X147637500Y-76009500D03*
X150177500Y-76009500D03*
X152717500Y-76009500D03*
D17*
X148082000Y-99822000D03*
D18*
X145542000Y-99822000D03*
X143002000Y-99822000D03*
X140462000Y-99822000D03*
D17*
X156464000Y-76200000D03*
D18*
X159004000Y-76200000D03*
X161544000Y-76200000D03*
X164084000Y-76200000D03*
D19*
X121158000Y-78486000D03*
D20*
X121158000Y-75946000D03*
X123698000Y-78486000D03*
X123698000Y-75946000D03*
X126238000Y-78486000D03*
X126238000Y-75946000D03*
X128778000Y-78486000D03*
X128778000Y-75946000D03*
D21*
X143942500Y-79502000D03*
X142442500Y-79502000D03*
X146800000Y-93980000D03*
X145300000Y-93980000D03*
D22*
X152781000Y-88785000D03*
X152781000Y-90285000D03*
X151384000Y-85737000D03*
X151384000Y-87237000D03*
D23*
X146827240Y-95570000D03*
X146827240Y-97470000D03*
X148826220Y-96520000D03*
D24*
X149845000Y-90491000D03*
X149845000Y-89991000D03*
X149845000Y-89491000D03*
X149845000Y-88991000D03*
X149845000Y-88491000D03*
X149845000Y-87991000D03*
X149845000Y-87491000D03*
X149845000Y-86991000D03*
X149845000Y-86491000D03*
X149845000Y-85991000D03*
X149845000Y-85491000D03*
X149845000Y-84991000D03*
X149845000Y-84491000D03*
X149845000Y-83991000D03*
X149845000Y-83491000D03*
X149845000Y-82991000D03*
D25*
X147895000Y-81041000D03*
X147395000Y-81041000D03*
X146895000Y-81041000D03*
X146395000Y-81041000D03*
X145895000Y-81041000D03*
X145395000Y-81041000D03*
X144895000Y-81041000D03*
X144395000Y-81041000D03*
X143895000Y-81041000D03*
X143395000Y-81041000D03*
X142895000Y-81041000D03*
X142395000Y-81041000D03*
X141895000Y-81041000D03*
X141395000Y-81041000D03*
X140895000Y-81041000D03*
X140395000Y-81041000D03*
D24*
X138445000Y-82991000D03*
X138445000Y-83491000D03*
X138445000Y-83991000D03*
X138445000Y-84491000D03*
X138445000Y-84991000D03*
X138445000Y-85491000D03*
X138445000Y-85991000D03*
X138445000Y-86491000D03*
X138445000Y-86991000D03*
X138445000Y-87491000D03*
X138445000Y-87991000D03*
X138445000Y-88491000D03*
X138445000Y-88991000D03*
X138445000Y-89491000D03*
X138445000Y-89991000D03*
X138445000Y-90491000D03*
D25*
X140395000Y-92441000D03*
X140895000Y-92441000D03*
X141395000Y-92441000D03*
X141895000Y-92441000D03*
X142395000Y-92441000D03*
X142895000Y-92441000D03*
X143395000Y-92441000D03*
X143895000Y-92441000D03*
X144395000Y-92441000D03*
X144895000Y-92441000D03*
X145395000Y-92441000D03*
X145895000Y-92441000D03*
X146395000Y-92441000D03*
X146895000Y-92441000D03*
X147395000Y-92441000D03*
X147895000Y-92441000D03*
D26*
X154394000Y-88435000D03*
X154394000Y-90635000D03*
X155994000Y-88435000D03*
X155994000Y-90635000D03*
D27*
X152768300Y-91948000D03*
X151269700Y-91948000D03*
M02*
