G04 #@! TF.FileFunction,Legend,Top*
%FSLAX46Y46*%
G04 Gerber Fmt 4.6, Leading zero omitted, Abs format (unit mm)*
G04 Created by KiCad (PCBNEW 4.0.2-stable) date 2016年09月17日 星期六 10:25:48*
%MOMM*%
G01*
G04 APERTURE LIST*
%ADD10C,0.100000*%
%ADD11C,0.150000*%
G04 APERTURE END LIST*
D10*
D11*
X149518000Y-96020000D02*
X149518000Y-97020000D01*
X151218000Y-97020000D02*
X151218000Y-96020000D01*
X144438000Y-96020000D02*
X144438000Y-97020000D01*
X146138000Y-97020000D02*
X146138000Y-96020000D01*
X152365000Y-96170000D02*
X152365000Y-96870000D01*
X151165000Y-96870000D02*
X151165000Y-96170000D01*
X144491000Y-96170000D02*
X144491000Y-96870000D01*
X143291000Y-96870000D02*
X143291000Y-96170000D01*
X148494000Y-93380000D02*
X149194000Y-93380000D01*
X149194000Y-94580000D02*
X148494000Y-94580000D01*
X154844000Y-86268000D02*
X155544000Y-86268000D01*
X155544000Y-87468000D02*
X154844000Y-87468000D01*
X155544000Y-92802000D02*
X154844000Y-92802000D01*
X154844000Y-91602000D02*
X155544000Y-91602000D01*
X154209000Y-93380000D02*
X154909000Y-93380000D01*
X154909000Y-94580000D02*
X154209000Y-94580000D01*
X152054000Y-86837000D02*
X152054000Y-86137000D01*
X153254000Y-86137000D02*
X153254000Y-86837000D01*
X151669000Y-83855000D02*
X152369000Y-83855000D01*
X152369000Y-85055000D02*
X151669000Y-85055000D01*
X151988000Y-94580000D02*
X151288000Y-94580000D01*
X151288000Y-93380000D02*
X151988000Y-93380000D01*
X137506000Y-91090000D02*
X137506000Y-91790000D01*
X136306000Y-91790000D02*
X136306000Y-91090000D01*
X147351000Y-78965500D02*
X148051000Y-78965500D01*
X148051000Y-80165500D02*
X147351000Y-80165500D01*
X139796000Y-80102000D02*
X139096000Y-80102000D01*
X139096000Y-78902000D02*
X139796000Y-78902000D01*
X169896000Y-74396000D02*
X169896000Y-75946000D01*
X171196000Y-74396000D02*
X169896000Y-74396000D01*
X175387000Y-75819000D02*
X181229000Y-75819000D01*
X181229000Y-75819000D02*
X181229000Y-76073000D01*
X181229000Y-76073000D02*
X175387000Y-76073000D01*
X175387000Y-76073000D02*
X175387000Y-75946000D01*
X175387000Y-75946000D02*
X181229000Y-75946000D01*
X172720000Y-76200000D02*
X172466000Y-76200000D01*
X172720000Y-75692000D02*
X172466000Y-75692000D01*
X172720000Y-74676000D02*
X175260000Y-74676000D01*
X172720000Y-74676000D02*
X172720000Y-77216000D01*
X172720000Y-77216000D02*
X175260000Y-77216000D01*
X175260000Y-75692000D02*
X181356000Y-75692000D01*
X181356000Y-75692000D02*
X181356000Y-76200000D01*
X181356000Y-76200000D02*
X175260000Y-76200000D01*
X175260000Y-77216000D02*
X175260000Y-74676000D01*
X169896000Y-99796000D02*
X169896000Y-101346000D01*
X171196000Y-99796000D02*
X169896000Y-99796000D01*
X175387000Y-101219000D02*
X181229000Y-101219000D01*
X181229000Y-101219000D02*
X181229000Y-101473000D01*
X181229000Y-101473000D02*
X175387000Y-101473000D01*
X175387000Y-101473000D02*
X175387000Y-101346000D01*
X175387000Y-101346000D02*
X181229000Y-101346000D01*
X172720000Y-101600000D02*
X172466000Y-101600000D01*
X172720000Y-101092000D02*
X172466000Y-101092000D01*
X172720000Y-100076000D02*
X175260000Y-100076000D01*
X172720000Y-100076000D02*
X172720000Y-102616000D01*
X172720000Y-102616000D02*
X175260000Y-102616000D01*
X175260000Y-101092000D02*
X181356000Y-101092000D01*
X181356000Y-101092000D02*
X181356000Y-101600000D01*
X181356000Y-101600000D02*
X175260000Y-101600000D01*
X175260000Y-102616000D02*
X175260000Y-100076000D01*
X118648000Y-77496000D02*
X118648000Y-75946000D01*
X117348000Y-77496000D02*
X118648000Y-77496000D01*
X113157000Y-76073000D02*
X107315000Y-76073000D01*
X107315000Y-76073000D02*
X107315000Y-75819000D01*
X107315000Y-75819000D02*
X113157000Y-75819000D01*
X113157000Y-75819000D02*
X113157000Y-75946000D01*
X113157000Y-75946000D02*
X107315000Y-75946000D01*
X115824000Y-75692000D02*
X116078000Y-75692000D01*
X115824000Y-76200000D02*
X116078000Y-76200000D01*
X115824000Y-77216000D02*
X113284000Y-77216000D01*
X115824000Y-77216000D02*
X115824000Y-74676000D01*
X115824000Y-74676000D02*
X113284000Y-74676000D01*
X113284000Y-76200000D02*
X107188000Y-76200000D01*
X107188000Y-76200000D02*
X107188000Y-75692000D01*
X107188000Y-75692000D02*
X113284000Y-75692000D01*
X113284000Y-74676000D02*
X113284000Y-77216000D01*
X118648000Y-102896000D02*
X118648000Y-101346000D01*
X117348000Y-102896000D02*
X118648000Y-102896000D01*
X113157000Y-101473000D02*
X107315000Y-101473000D01*
X107315000Y-101473000D02*
X107315000Y-101219000D01*
X107315000Y-101219000D02*
X113157000Y-101219000D01*
X113157000Y-101219000D02*
X113157000Y-101346000D01*
X113157000Y-101346000D02*
X107315000Y-101346000D01*
X115824000Y-101092000D02*
X116078000Y-101092000D01*
X115824000Y-101600000D02*
X116078000Y-101600000D01*
X115824000Y-102616000D02*
X113284000Y-102616000D01*
X115824000Y-102616000D02*
X115824000Y-100076000D01*
X115824000Y-100076000D02*
X113284000Y-100076000D01*
X113284000Y-101600000D02*
X107188000Y-101600000D01*
X107188000Y-101600000D02*
X107188000Y-101092000D01*
X107188000Y-101092000D02*
X113284000Y-101092000D01*
X113284000Y-100076000D02*
X113284000Y-102616000D01*
X149632000Y-98522000D02*
X148082000Y-98522000D01*
X149632000Y-99822000D02*
X149632000Y-98522000D01*
X148209000Y-104013000D02*
X148209000Y-109855000D01*
X148209000Y-109855000D02*
X147955000Y-109855000D01*
X147955000Y-109855000D02*
X147955000Y-104013000D01*
X147955000Y-104013000D02*
X148082000Y-104013000D01*
X148082000Y-104013000D02*
X148082000Y-109855000D01*
X148336000Y-101346000D02*
X148336000Y-100965000D01*
X147828000Y-101346000D02*
X147828000Y-100965000D01*
X145796000Y-101346000D02*
X145796000Y-100965000D01*
X145288000Y-101346000D02*
X145288000Y-100965000D01*
X143256000Y-101346000D02*
X143256000Y-100965000D01*
X142748000Y-101346000D02*
X142748000Y-100965000D01*
X140208000Y-101346000D02*
X140208000Y-100965000D01*
X140716000Y-101346000D02*
X140716000Y-100965000D01*
X149352000Y-101346000D02*
X149352000Y-103886000D01*
X146812000Y-101346000D02*
X146812000Y-103886000D01*
X146812000Y-101346000D02*
X144272000Y-101346000D01*
X144272000Y-101346000D02*
X144272000Y-103886000D01*
X145796000Y-103886000D02*
X145796000Y-109982000D01*
X145796000Y-109982000D02*
X145288000Y-109982000D01*
X145288000Y-109982000D02*
X145288000Y-103886000D01*
X144272000Y-103886000D02*
X146812000Y-103886000D01*
X146812000Y-103886000D02*
X149352000Y-103886000D01*
X147828000Y-109982000D02*
X147828000Y-103886000D01*
X148336000Y-109982000D02*
X147828000Y-109982000D01*
X148336000Y-103886000D02*
X148336000Y-109982000D01*
X146812000Y-101346000D02*
X146812000Y-103886000D01*
X149352000Y-101346000D02*
X146812000Y-101346000D01*
X141732000Y-101346000D02*
X141732000Y-103886000D01*
X141732000Y-101346000D02*
X139192000Y-101346000D01*
X139192000Y-101346000D02*
X139192000Y-103886000D01*
X140716000Y-103886000D02*
X140716000Y-109982000D01*
X140716000Y-109982000D02*
X140208000Y-109982000D01*
X140208000Y-109982000D02*
X140208000Y-103886000D01*
X139192000Y-103886000D02*
X141732000Y-103886000D01*
X141732000Y-103886000D02*
X144272000Y-103886000D01*
X142748000Y-109982000D02*
X142748000Y-103886000D01*
X143256000Y-109982000D02*
X142748000Y-109982000D01*
X143256000Y-103886000D02*
X143256000Y-109982000D01*
X141732000Y-101346000D02*
X141732000Y-103886000D01*
X144272000Y-101346000D02*
X141732000Y-101346000D01*
X144272000Y-101346000D02*
X144272000Y-103886000D01*
X154914000Y-77500000D02*
X156464000Y-77500000D01*
X154914000Y-76200000D02*
X154914000Y-77500000D01*
X156337000Y-72009000D02*
X156337000Y-66167000D01*
X156337000Y-66167000D02*
X156591000Y-66167000D01*
X156591000Y-66167000D02*
X156591000Y-72009000D01*
X156591000Y-72009000D02*
X156464000Y-72009000D01*
X156464000Y-72009000D02*
X156464000Y-66167000D01*
X156210000Y-74676000D02*
X156210000Y-75057000D01*
X156718000Y-74676000D02*
X156718000Y-75057000D01*
X158750000Y-74676000D02*
X158750000Y-75057000D01*
X159258000Y-74676000D02*
X159258000Y-75057000D01*
X161290000Y-74676000D02*
X161290000Y-75057000D01*
X161798000Y-74676000D02*
X161798000Y-75057000D01*
X164338000Y-74676000D02*
X164338000Y-75057000D01*
X163830000Y-74676000D02*
X163830000Y-75057000D01*
X155194000Y-74676000D02*
X155194000Y-72136000D01*
X157734000Y-74676000D02*
X157734000Y-72136000D01*
X157734000Y-74676000D02*
X160274000Y-74676000D01*
X160274000Y-74676000D02*
X160274000Y-72136000D01*
X158750000Y-72136000D02*
X158750000Y-66040000D01*
X158750000Y-66040000D02*
X159258000Y-66040000D01*
X159258000Y-66040000D02*
X159258000Y-72136000D01*
X160274000Y-72136000D02*
X157734000Y-72136000D01*
X157734000Y-72136000D02*
X155194000Y-72136000D01*
X156718000Y-66040000D02*
X156718000Y-72136000D01*
X156210000Y-66040000D02*
X156718000Y-66040000D01*
X156210000Y-72136000D02*
X156210000Y-66040000D01*
X157734000Y-74676000D02*
X157734000Y-72136000D01*
X155194000Y-74676000D02*
X157734000Y-74676000D01*
X162814000Y-74676000D02*
X162814000Y-72136000D01*
X162814000Y-74676000D02*
X165354000Y-74676000D01*
X165354000Y-74676000D02*
X165354000Y-72136000D01*
X163830000Y-72136000D02*
X163830000Y-66040000D01*
X163830000Y-66040000D02*
X164338000Y-66040000D01*
X164338000Y-66040000D02*
X164338000Y-72136000D01*
X165354000Y-72136000D02*
X162814000Y-72136000D01*
X162814000Y-72136000D02*
X160274000Y-72136000D01*
X161798000Y-66040000D02*
X161798000Y-72136000D01*
X161290000Y-66040000D02*
X161798000Y-66040000D01*
X161290000Y-72136000D02*
X161290000Y-66040000D01*
X162814000Y-74676000D02*
X162814000Y-72136000D01*
X160274000Y-74676000D02*
X162814000Y-74676000D01*
X160274000Y-74676000D02*
X160274000Y-72136000D01*
X142692500Y-78827000D02*
X143692500Y-78827000D01*
X143692500Y-80177000D02*
X142692500Y-80177000D01*
X145550000Y-93305000D02*
X146550000Y-93305000D01*
X146550000Y-94655000D02*
X145550000Y-94655000D01*
X152106000Y-90035000D02*
X152106000Y-89035000D01*
X153456000Y-89035000D02*
X153456000Y-90035000D01*
X150709000Y-86987000D02*
X150709000Y-85987000D01*
X152059000Y-85987000D02*
X152059000Y-86987000D01*
X148478240Y-97819160D02*
X148478240Y-97770900D01*
X147777200Y-95020180D02*
X148478240Y-95020180D01*
X148478240Y-95020180D02*
X148478240Y-95269100D01*
X148478240Y-97819160D02*
X148478240Y-98019820D01*
X148478240Y-98019820D02*
X147777200Y-98019820D01*
X149320000Y-91916000D02*
X149320000Y-90841000D01*
X138970000Y-91916000D02*
X138970000Y-90841000D01*
X138970000Y-81566000D02*
X138970000Y-82641000D01*
X149320000Y-81566000D02*
X149320000Y-82641000D01*
X149320000Y-91916000D02*
X148245000Y-91916000D01*
X149320000Y-81566000D02*
X148245000Y-81566000D01*
X138970000Y-81566000D02*
X140045000Y-81566000D01*
X138970000Y-91916000D02*
X140045000Y-91916000D01*
X149320000Y-90841000D02*
X150345000Y-90841000D01*
X156494000Y-87935000D02*
X156494000Y-91135000D01*
X156494000Y-91135000D02*
X153894000Y-91135000D01*
X153894000Y-91135000D02*
X153894000Y-87935000D01*
X153894000Y-87935000D02*
X156494000Y-87935000D01*
X129668780Y-99689860D02*
X130029460Y-101160520D01*
X130029460Y-101160520D02*
X130308860Y-100098800D01*
X130308860Y-100098800D02*
X130618740Y-101170680D01*
X130618740Y-101170680D02*
X130959100Y-99720340D01*
X128248920Y-100380740D02*
X129038860Y-100370580D01*
X129038860Y-100370580D02*
X129049020Y-100380740D01*
X129049020Y-100380740D02*
X129049020Y-100370580D01*
X129089660Y-99659380D02*
X129089660Y-101201160D01*
X128200660Y-99649220D02*
X128200660Y-101218940D01*
X128200660Y-101218940D02*
X128210820Y-101208780D01*
X127649480Y-99750820D02*
X127298960Y-99669540D01*
X127298960Y-99669540D02*
X126978920Y-99659380D01*
X126978920Y-99659380D02*
X126740160Y-99860040D01*
X126740160Y-99860040D02*
X126709680Y-100129280D01*
X126709680Y-100129280D02*
X126950980Y-100370580D01*
X126950980Y-100370580D02*
X127339600Y-100500120D01*
X127339600Y-100500120D02*
X127519940Y-100660140D01*
X127519940Y-100660140D02*
X127560580Y-100959860D01*
X127560580Y-100959860D02*
X127329440Y-101180840D01*
X127329440Y-101180840D02*
X127009400Y-101208780D01*
X127009400Y-101208780D02*
X126658880Y-101099560D01*
X125620020Y-99649220D02*
X125371100Y-99669540D01*
X125371100Y-99669540D02*
X125129800Y-99910840D01*
X125129800Y-99910840D02*
X125040900Y-100401060D01*
X125040900Y-100401060D02*
X125068840Y-100749040D01*
X125068840Y-100749040D02*
X125269500Y-101069080D01*
X125269500Y-101069080D02*
X125520960Y-101191000D01*
X125520960Y-101191000D02*
X125830840Y-101119880D01*
X125830840Y-101119880D02*
X126049280Y-100939540D01*
X126049280Y-100939540D02*
X126120400Y-100479800D01*
X126120400Y-100479800D02*
X126069600Y-100070860D01*
X126069600Y-100070860D02*
X125960380Y-99788920D01*
X125960380Y-99788920D02*
X125599700Y-99659380D01*
X126219460Y-97929640D02*
X125960380Y-98490980D01*
X125960380Y-98490980D02*
X126498860Y-99009140D01*
X126498860Y-99009140D02*
X127019560Y-98739900D01*
X127019560Y-98739900D02*
X127298960Y-98899920D01*
X128739140Y-98879600D02*
X129069340Y-98689100D01*
X129069340Y-98689100D02*
X129508760Y-99019300D01*
X129508760Y-99019300D02*
X129981200Y-98529080D01*
X129981200Y-98529080D02*
X129699260Y-98049020D01*
X129699260Y-98049020D02*
X129889760Y-97579120D01*
X129889760Y-97579120D02*
X130499360Y-97391160D01*
X130499360Y-97391160D02*
X130499360Y-96710440D01*
X130499360Y-96710440D02*
X129940560Y-96570740D01*
X129940560Y-96570740D02*
X129739900Y-95999240D01*
X129739900Y-95999240D02*
X130009140Y-95529340D01*
X130009140Y-95529340D02*
X129539240Y-95018800D01*
X129539240Y-95018800D02*
X129021080Y-95280420D01*
X129021080Y-95280420D02*
X128551180Y-95079760D01*
X128551180Y-95079760D02*
X128381000Y-94538740D01*
X128381000Y-94538740D02*
X127690120Y-94520960D01*
X127690120Y-94520960D02*
X127479300Y-95069600D01*
X127479300Y-95069600D02*
X127060200Y-95239780D01*
X127060200Y-95239780D02*
X126509020Y-94970540D01*
X126509020Y-94970540D02*
X125990860Y-95498860D01*
X125990860Y-95498860D02*
X126239780Y-96039880D01*
X126239780Y-96039880D02*
X126069600Y-96519940D01*
X126069600Y-96519940D02*
X125520960Y-96619000D01*
X125520960Y-96619000D02*
X125510800Y-97320040D01*
X125510800Y-97320040D02*
X126069600Y-97520700D01*
X126069600Y-97520700D02*
X126209300Y-97919480D01*
X128350520Y-97899160D02*
X128650240Y-97749300D01*
X128650240Y-97749300D02*
X128850900Y-97551180D01*
X128850900Y-97551180D02*
X129000760Y-97149860D01*
X129000760Y-97149860D02*
X129000760Y-96751080D01*
X129000760Y-96751080D02*
X128850900Y-96400560D01*
X128850900Y-96400560D02*
X128398780Y-96050040D01*
X128398780Y-96050040D02*
X127949200Y-95999240D01*
X127949200Y-95999240D02*
X127550420Y-96100840D01*
X127550420Y-96100840D02*
X127149100Y-96448820D01*
X127149100Y-96448820D02*
X126999240Y-96900940D01*
X126999240Y-96900940D02*
X127050040Y-97398780D01*
X127050040Y-97398780D02*
X127298960Y-97701040D01*
X127298960Y-97701040D02*
X127649480Y-97899160D01*
X127649480Y-97899160D02*
X127298960Y-98899920D01*
X128350520Y-97899160D02*
X128749300Y-98899920D01*
X172199380Y-97250180D02*
X172199380Y-98850380D01*
X172199380Y-98850380D02*
X172900420Y-98850380D01*
X170649980Y-98799580D02*
X170649980Y-97349240D01*
X170649980Y-97349240D02*
X171201160Y-97300980D01*
X171201160Y-97300980D02*
X171450080Y-97499100D01*
X171450080Y-97499100D02*
X171549140Y-97900420D01*
X171549140Y-97900420D02*
X171249420Y-98050280D01*
X171249420Y-98050280D02*
X170749040Y-97999480D01*
X169948940Y-97400040D02*
X169700020Y-97300980D01*
X169700020Y-97300980D02*
X169400300Y-97349240D01*
X169400300Y-97349240D02*
X169100580Y-97699760D01*
X169100580Y-97699760D02*
X169049780Y-98200140D01*
X169049780Y-98200140D02*
X169199640Y-98649720D01*
X169199640Y-98649720D02*
X169550160Y-98799580D01*
X169550160Y-98799580D02*
X169999740Y-98700520D01*
X169999740Y-98700520D02*
X169999740Y-98200140D01*
X169999740Y-98200140D02*
X169700020Y-98200140D01*
X163748800Y-97349240D02*
X163748800Y-98499860D01*
X163748800Y-98499860D02*
X163901200Y-98748780D01*
X163901200Y-98748780D02*
X164249180Y-98901180D01*
X164249180Y-98901180D02*
X164548900Y-98748780D01*
X164548900Y-98748780D02*
X164650500Y-98449060D01*
X164650500Y-98449060D02*
X164650500Y-97349240D01*
X162199400Y-98901180D02*
X162199400Y-97349240D01*
X162199400Y-97349240D02*
X163050300Y-98850380D01*
X163050300Y-98850380D02*
X163050300Y-97349240D01*
X161450100Y-97400040D02*
X161249440Y-97300980D01*
X161249440Y-97300980D02*
X160799860Y-97450840D01*
X160799860Y-97450840D02*
X160599200Y-97849620D01*
X160599200Y-97849620D02*
X160599200Y-98299200D01*
X160599200Y-98299200D02*
X160749060Y-98700520D01*
X160749060Y-98700520D02*
X161048780Y-98850380D01*
X161048780Y-98850380D02*
X161450100Y-98850380D01*
X161450100Y-98850380D02*
X161500900Y-98299200D01*
X161500900Y-98299200D02*
X161249440Y-98200140D01*
X164249180Y-90849380D02*
X163250960Y-91649480D01*
X163250960Y-91649480D02*
X163700540Y-90498860D01*
X163700540Y-90498860D02*
X162750580Y-91298960D01*
X162750580Y-91298960D02*
X163449080Y-90001020D01*
X163449080Y-90001020D02*
X162400060Y-90651260D01*
X162400060Y-90651260D02*
X162301000Y-90199140D01*
X162301000Y-90199140D02*
X163598940Y-89851160D01*
X163598940Y-89851160D02*
X162450860Y-89599700D01*
X162450860Y-89599700D02*
X163700540Y-89200920D01*
X163700540Y-89200920D02*
X163200160Y-88700540D01*
X163200160Y-88700540D02*
X164249180Y-88949460D01*
X164249180Y-88949460D02*
X164200920Y-88299220D01*
X164200920Y-88299220D02*
X165300740Y-88799600D01*
X167749300Y-90001020D02*
X168399540Y-90199140D01*
X168399540Y-90199140D02*
X168800860Y-90399800D01*
X168800860Y-90399800D02*
X170098800Y-91250700D01*
X170098800Y-91250700D02*
X169849880Y-90150880D01*
X169849880Y-90150880D02*
X170599180Y-90849380D01*
X170599180Y-90849380D02*
X170149600Y-89749560D01*
X170149600Y-89749560D02*
X171150360Y-90001020D01*
X171150360Y-90001020D02*
X169900680Y-89299980D01*
X169900680Y-89299980D02*
X171048760Y-88850400D01*
X171048760Y-88850400D02*
X169301240Y-89051060D01*
X169301240Y-89051060D02*
X169799080Y-88350020D01*
X169799080Y-88350020D02*
X168651000Y-89051060D01*
X167850900Y-89698760D02*
X168099820Y-89749560D01*
X164950220Y-90450600D02*
X165450600Y-90150880D01*
X165450600Y-90150880D02*
X166199900Y-89800360D01*
X166199900Y-89800360D02*
X166550420Y-89800360D01*
X165150880Y-96000500D02*
X164899420Y-95799840D01*
X164899420Y-95799840D02*
X164749560Y-95599180D01*
X164749560Y-95599180D02*
X164500640Y-95350260D01*
X164500640Y-95350260D02*
X164449840Y-95050540D01*
X164449840Y-95050540D02*
X164350780Y-94649220D01*
X164350780Y-94649220D02*
X164299980Y-94250440D01*
X164299980Y-94250440D02*
X164249180Y-93849120D01*
X164249180Y-93849120D02*
X164249180Y-93348740D01*
X164249180Y-93348740D02*
X164249180Y-92850900D01*
X165249940Y-96000500D02*
X165450600Y-95949700D01*
X164800360Y-92850900D02*
X165100080Y-93300480D01*
X165100080Y-93300480D02*
X165001020Y-93750060D01*
X165001020Y-93750060D02*
X165450600Y-94049780D01*
X165450600Y-94049780D02*
X165249940Y-94700020D01*
X165249940Y-94700020D02*
X165801120Y-95098800D01*
X165801120Y-95098800D02*
X165600460Y-95799840D01*
X165600460Y-95799840D02*
X166149100Y-96249420D01*
X166400560Y-97999480D02*
X166349760Y-98101080D01*
X166100840Y-96351020D02*
X166298960Y-96749800D01*
X166298960Y-96749800D02*
X166400560Y-97049520D01*
X166400560Y-97049520D02*
X165999240Y-97151120D01*
X165999240Y-97151120D02*
X166349760Y-97499100D01*
X166349760Y-97499100D02*
X166298960Y-97798820D01*
X166298960Y-97798820D02*
X166349760Y-97951220D01*
X166850140Y-95700780D02*
X166700280Y-96099560D01*
X166700280Y-96099560D02*
X166799340Y-96300220D01*
X166799340Y-96300220D02*
X167050800Y-96500880D01*
X167050800Y-96500880D02*
X167200660Y-96699000D01*
X167200660Y-96699000D02*
X167149860Y-97001260D01*
X167149860Y-97001260D02*
X167099060Y-97199380D01*
X167099060Y-97199380D02*
X167149860Y-97750560D01*
X167149860Y-97750560D02*
X167350520Y-97951220D01*
X167449580Y-95299460D02*
X167248920Y-95749040D01*
X167248920Y-95749040D02*
X167551180Y-96048760D01*
X167551180Y-96048760D02*
X167949960Y-96249420D01*
X167949960Y-96249420D02*
X167899160Y-96699000D01*
X167899160Y-96699000D02*
X167749300Y-97100320D01*
X167749300Y-97100320D02*
X167899160Y-97349240D01*
X168300480Y-96899660D02*
X168348740Y-96899660D01*
X168249680Y-94948940D02*
X168501140Y-95050540D01*
X168501140Y-95050540D02*
X168750060Y-95050540D01*
X168750060Y-95050540D02*
X168549400Y-95098800D01*
X168549400Y-95098800D02*
X168000760Y-95200400D01*
X168000760Y-95200400D02*
X167949960Y-95350260D01*
X167949960Y-95350260D02*
X168000760Y-95550920D01*
X168000760Y-95550920D02*
X168198880Y-95749040D01*
X168198880Y-95749040D02*
X168450340Y-95949700D01*
X168450340Y-95949700D02*
X168549400Y-96300220D01*
X168549400Y-96300220D02*
X168450340Y-96599940D01*
X168450340Y-96599940D02*
X168300480Y-96899660D01*
X167599440Y-94649220D02*
X168000760Y-94900680D01*
X168000760Y-94900680D02*
X168249680Y-94900680D01*
X168800860Y-94550160D02*
X168198880Y-94649220D01*
X168198880Y-94649220D02*
X167749300Y-94600960D01*
X167749300Y-94600960D02*
X167248920Y-94550160D01*
X167248920Y-94550160D02*
X166799340Y-94400300D01*
X166799340Y-94400300D02*
X166649480Y-94199640D01*
X166649480Y-94199640D02*
X166448820Y-93849120D01*
X166448820Y-93849120D02*
X166298960Y-93348740D01*
X166298960Y-93348740D02*
X166149100Y-93099820D01*
X166149100Y-93099820D02*
X165849380Y-93049020D01*
X168800860Y-93849120D02*
X168651000Y-93849120D01*
X168651000Y-93849120D02*
X168249680Y-93950720D01*
X168249680Y-93950720D02*
X168399540Y-94301240D01*
X168399540Y-94301240D02*
X168750060Y-94499360D01*
X168750060Y-92000000D02*
X168699260Y-92650240D01*
X168000760Y-92500380D02*
X168099820Y-92650240D01*
X168099820Y-92650240D02*
X168249680Y-92800100D01*
X168249680Y-92800100D02*
X168399540Y-92800100D01*
X168399540Y-92800100D02*
X168600200Y-92701040D01*
X168600200Y-92701040D02*
X168800860Y-92701040D01*
X167850900Y-92449580D02*
X167551180Y-92299720D01*
X167551180Y-92299720D02*
X167248920Y-92299720D01*
X167248920Y-92299720D02*
X167099060Y-92299720D01*
X167099060Y-92299720D02*
X166900940Y-92398780D01*
X166900940Y-92398780D02*
X166700280Y-92449580D01*
X167650240Y-91448820D02*
X167701040Y-91900940D01*
X167701040Y-91900940D02*
X167850900Y-92299720D01*
X167850900Y-92299720D02*
X167949960Y-92449580D01*
X168750060Y-93249680D02*
X168651000Y-93399540D01*
X167899160Y-93150620D02*
X167449580Y-92800100D01*
X167449580Y-92800100D02*
X167050800Y-92949960D01*
X167050800Y-92949960D02*
X167099060Y-93348740D01*
X167099060Y-93348740D02*
X167350520Y-93501140D01*
X167350520Y-93501140D02*
X167650240Y-93501140D01*
X167650240Y-93501140D02*
X167749300Y-93399540D01*
X167749300Y-93399540D02*
X167899160Y-93150620D01*
X168198880Y-91400560D02*
X168348740Y-91050040D01*
X168348740Y-91050040D02*
X168750060Y-91149100D01*
X168750060Y-91149100D02*
X168849120Y-91349760D01*
X168849120Y-91349760D02*
X168750060Y-91601220D01*
X168750060Y-91601220D02*
X168300480Y-91499620D01*
X167050800Y-91550420D02*
X166700280Y-91400560D01*
X166700280Y-91400560D02*
X166250700Y-91298960D01*
X166250700Y-91298960D02*
X165999240Y-91550420D01*
X165999240Y-91550420D02*
X166199900Y-91799340D01*
X166199900Y-91799340D02*
X166601220Y-91799340D01*
X166601220Y-91799340D02*
X167000000Y-91601220D01*
X167000000Y-90450600D02*
X167398780Y-90300740D01*
X167398780Y-90300740D02*
X167650240Y-89950220D01*
X164000260Y-91751080D02*
X164000260Y-92350520D01*
X164000260Y-92350520D02*
X163499880Y-93099820D01*
X163499880Y-93099820D02*
X164899420Y-92551180D01*
X164899420Y-92551180D02*
X165399800Y-92200660D01*
X165399800Y-92200660D02*
X165549660Y-91250700D01*
X165549660Y-91250700D02*
X166149100Y-90699520D01*
X168099820Y-88499880D02*
X168549400Y-89099320D01*
X168549400Y-89099320D02*
X168899920Y-89200920D01*
X168899920Y-89200920D02*
X169349500Y-89200920D01*
X169349500Y-89200920D02*
X169700020Y-89249180D01*
X169700020Y-89249180D02*
X169900680Y-89650500D01*
X169900680Y-89650500D02*
X169948940Y-89950220D01*
X169948940Y-89950220D02*
X169649220Y-90199140D01*
X169649220Y-90199140D02*
X169349500Y-90249940D01*
X169349500Y-90249940D02*
X168998980Y-90100080D01*
X168998980Y-90100080D02*
X168549400Y-89800360D01*
X168549400Y-89800360D02*
X168300480Y-89599700D01*
X168300480Y-89599700D02*
X168000760Y-89449840D01*
X168000760Y-89449840D02*
X167599440Y-89449840D01*
X167599440Y-89449840D02*
X167099060Y-89698760D01*
X167099060Y-89698760D02*
X166900940Y-89650500D01*
X166900940Y-89650500D02*
X166601220Y-89500640D01*
X166601220Y-89500640D02*
X166100840Y-89399040D01*
X166100840Y-89399040D02*
X165600460Y-89449840D01*
X165600460Y-89449840D02*
X165001020Y-89851160D01*
X165001020Y-89851160D02*
X164548900Y-90300740D01*
X164548900Y-90300740D02*
X164200920Y-90699520D01*
X164200920Y-90699520D02*
X163748800Y-90549660D01*
X163748800Y-90549660D02*
X163550680Y-90049280D01*
X163550680Y-90049280D02*
X163649740Y-89399040D01*
X163649740Y-89399040D02*
X163949460Y-89150120D01*
X163949460Y-89150120D02*
X164399040Y-89000260D01*
X164399040Y-89000260D02*
X165049280Y-88850400D01*
X165049280Y-88850400D02*
X165399800Y-88901200D01*
X165399800Y-88901200D02*
X165950980Y-88649740D01*
X165950980Y-88649740D02*
X166149100Y-88299220D01*
X166149100Y-88299220D02*
X165750320Y-88449080D01*
X165750320Y-88449080D02*
X165100080Y-88400820D01*
X165100080Y-88400820D02*
X164150120Y-88250960D01*
X164150120Y-88250960D02*
X163748800Y-88299220D01*
X163748800Y-88299220D02*
X163400820Y-88449080D01*
X163400820Y-88449080D02*
X162798840Y-88850400D01*
X162798840Y-88850400D02*
X162349260Y-89650500D01*
X162349260Y-89650500D02*
X162250200Y-90349000D01*
X162250200Y-90349000D02*
X162549920Y-91250700D01*
X162549920Y-91250700D02*
X163101100Y-91751080D01*
X163101100Y-91751080D02*
X163748800Y-92000000D01*
X163748800Y-92000000D02*
X164500640Y-90801120D01*
X164500640Y-90801120D02*
X165199140Y-90150880D01*
X165199140Y-90150880D02*
X165801120Y-89698760D01*
X165801120Y-89698760D02*
X166349760Y-89650500D01*
X166349760Y-89650500D02*
X166799340Y-89851160D01*
X166799340Y-89851160D02*
X167200660Y-89950220D01*
X167200660Y-89950220D02*
X167650240Y-89800360D01*
X167650240Y-89800360D02*
X168099820Y-89899420D01*
X168099820Y-89899420D02*
X168699260Y-90199140D01*
X168699260Y-90199140D02*
X168899920Y-90450600D01*
X168899920Y-90450600D02*
X169600960Y-91550420D01*
X169600960Y-91550420D02*
X169900680Y-92200660D01*
X169900680Y-92200660D02*
X169301240Y-92299720D01*
X169301240Y-92299720D02*
X168849120Y-91900940D01*
X168750060Y-92701040D02*
X169148840Y-92701040D01*
X169148840Y-92701040D02*
X169301240Y-92850900D01*
X169301240Y-92850900D02*
X168800860Y-93849120D01*
X168150620Y-88400820D02*
X168750060Y-88649740D01*
X168750060Y-88649740D02*
X169199640Y-88550680D01*
X169199640Y-88550680D02*
X169700020Y-88299220D01*
X169700020Y-88299220D02*
X170149600Y-88250960D01*
X170149600Y-88250960D02*
X170599180Y-88499880D01*
X170599180Y-88499880D02*
X171048760Y-88799600D01*
X171048760Y-88799600D02*
X171249420Y-89350780D01*
X171249420Y-89350780D02*
X171249420Y-89800360D01*
X171249420Y-89800360D02*
X171150360Y-90199140D01*
X171150360Y-90199140D02*
X170898900Y-90750320D01*
X170898900Y-90750320D02*
X170449320Y-91149100D01*
X170449320Y-91149100D02*
X169900680Y-91550420D01*
X154281143Y-96686666D02*
X154328762Y-96734285D01*
X154376381Y-96877142D01*
X154376381Y-96972380D01*
X154328762Y-97115238D01*
X154233524Y-97210476D01*
X154138286Y-97258095D01*
X153947810Y-97305714D01*
X153804952Y-97305714D01*
X153614476Y-97258095D01*
X153519238Y-97210476D01*
X153424000Y-97115238D01*
X153376381Y-96972380D01*
X153376381Y-96877142D01*
X153424000Y-96734285D01*
X153471619Y-96686666D01*
X154376381Y-95734285D02*
X154376381Y-96305714D01*
X154376381Y-96020000D02*
X153376381Y-96020000D01*
X153519238Y-96115238D01*
X153614476Y-96210476D01*
X153662095Y-96305714D01*
X142470143Y-96686666D02*
X142517762Y-96734285D01*
X142565381Y-96877142D01*
X142565381Y-96972380D01*
X142517762Y-97115238D01*
X142422524Y-97210476D01*
X142327286Y-97258095D01*
X142136810Y-97305714D01*
X141993952Y-97305714D01*
X141803476Y-97258095D01*
X141708238Y-97210476D01*
X141613000Y-97115238D01*
X141565381Y-96972380D01*
X141565381Y-96877142D01*
X141613000Y-96734285D01*
X141660619Y-96686666D01*
X141660619Y-96305714D02*
X141613000Y-96258095D01*
X141565381Y-96162857D01*
X141565381Y-95924761D01*
X141613000Y-95829523D01*
X141660619Y-95781904D01*
X141755857Y-95734285D01*
X141851095Y-95734285D01*
X141993952Y-95781904D01*
X142565381Y-96353333D01*
X142565381Y-95734285D01*
X155551143Y-96686666D02*
X155598762Y-96734285D01*
X155646381Y-96877142D01*
X155646381Y-96972380D01*
X155598762Y-97115238D01*
X155503524Y-97210476D01*
X155408286Y-97258095D01*
X155217810Y-97305714D01*
X155074952Y-97305714D01*
X154884476Y-97258095D01*
X154789238Y-97210476D01*
X154694000Y-97115238D01*
X154646381Y-96972380D01*
X154646381Y-96877142D01*
X154694000Y-96734285D01*
X154741619Y-96686666D01*
X154646381Y-96353333D02*
X154646381Y-95734285D01*
X155027333Y-96067619D01*
X155027333Y-95924761D01*
X155074952Y-95829523D01*
X155122571Y-95781904D01*
X155217810Y-95734285D01*
X155455905Y-95734285D01*
X155551143Y-95781904D01*
X155598762Y-95829523D01*
X155646381Y-95924761D01*
X155646381Y-96210476D01*
X155598762Y-96305714D01*
X155551143Y-96353333D01*
X141200143Y-96686666D02*
X141247762Y-96734285D01*
X141295381Y-96877142D01*
X141295381Y-96972380D01*
X141247762Y-97115238D01*
X141152524Y-97210476D01*
X141057286Y-97258095D01*
X140866810Y-97305714D01*
X140723952Y-97305714D01*
X140533476Y-97258095D01*
X140438238Y-97210476D01*
X140343000Y-97115238D01*
X140295381Y-96972380D01*
X140295381Y-96877142D01*
X140343000Y-96734285D01*
X140390619Y-96686666D01*
X140628714Y-95829523D02*
X141295381Y-95829523D01*
X140247762Y-96067619D02*
X140962048Y-96305714D01*
X140962048Y-95686666D01*
X149185334Y-92940143D02*
X149137715Y-92987762D01*
X148994858Y-93035381D01*
X148899620Y-93035381D01*
X148756762Y-92987762D01*
X148661524Y-92892524D01*
X148613905Y-92797286D01*
X148566286Y-92606810D01*
X148566286Y-92463952D01*
X148613905Y-92273476D01*
X148661524Y-92178238D01*
X148756762Y-92083000D01*
X148899620Y-92035381D01*
X148994858Y-92035381D01*
X149137715Y-92083000D01*
X149185334Y-92130619D01*
X150090096Y-92035381D02*
X149613905Y-92035381D01*
X149566286Y-92511571D01*
X149613905Y-92463952D01*
X149709143Y-92416333D01*
X149947239Y-92416333D01*
X150042477Y-92463952D01*
X150090096Y-92511571D01*
X150137715Y-92606810D01*
X150137715Y-92844905D01*
X150090096Y-92940143D01*
X150042477Y-92987762D01*
X149947239Y-93035381D01*
X149709143Y-93035381D01*
X149613905Y-92987762D01*
X149566286Y-92940143D01*
X157440334Y-87225143D02*
X157392715Y-87272762D01*
X157249858Y-87320381D01*
X157154620Y-87320381D01*
X157011762Y-87272762D01*
X156916524Y-87177524D01*
X156868905Y-87082286D01*
X156821286Y-86891810D01*
X156821286Y-86748952D01*
X156868905Y-86558476D01*
X156916524Y-86463238D01*
X157011762Y-86368000D01*
X157154620Y-86320381D01*
X157249858Y-86320381D01*
X157392715Y-86368000D01*
X157440334Y-86415619D01*
X158297477Y-86320381D02*
X158107000Y-86320381D01*
X158011762Y-86368000D01*
X157964143Y-86415619D01*
X157868905Y-86558476D01*
X157821286Y-86748952D01*
X157821286Y-87129905D01*
X157868905Y-87225143D01*
X157916524Y-87272762D01*
X158011762Y-87320381D01*
X158202239Y-87320381D01*
X158297477Y-87272762D01*
X158345096Y-87225143D01*
X158392715Y-87129905D01*
X158392715Y-86891810D01*
X158345096Y-86796571D01*
X158297477Y-86748952D01*
X158202239Y-86701333D01*
X158011762Y-86701333D01*
X157916524Y-86748952D01*
X157868905Y-86796571D01*
X157821286Y-86891810D01*
X157440334Y-92559143D02*
X157392715Y-92606762D01*
X157249858Y-92654381D01*
X157154620Y-92654381D01*
X157011762Y-92606762D01*
X156916524Y-92511524D01*
X156868905Y-92416286D01*
X156821286Y-92225810D01*
X156821286Y-92082952D01*
X156868905Y-91892476D01*
X156916524Y-91797238D01*
X157011762Y-91702000D01*
X157154620Y-91654381D01*
X157249858Y-91654381D01*
X157392715Y-91702000D01*
X157440334Y-91749619D01*
X157773667Y-91654381D02*
X158440334Y-91654381D01*
X158011762Y-92654381D01*
X160234334Y-94337143D02*
X160186715Y-94384762D01*
X160043858Y-94432381D01*
X159948620Y-94432381D01*
X159805762Y-94384762D01*
X159710524Y-94289524D01*
X159662905Y-94194286D01*
X159615286Y-94003810D01*
X159615286Y-93860952D01*
X159662905Y-93670476D01*
X159710524Y-93575238D01*
X159805762Y-93480000D01*
X159948620Y-93432381D01*
X160043858Y-93432381D01*
X160186715Y-93480000D01*
X160234334Y-93527619D01*
X160805762Y-93860952D02*
X160710524Y-93813333D01*
X160662905Y-93765714D01*
X160615286Y-93670476D01*
X160615286Y-93622857D01*
X160662905Y-93527619D01*
X160710524Y-93480000D01*
X160805762Y-93432381D01*
X160996239Y-93432381D01*
X161091477Y-93480000D01*
X161139096Y-93527619D01*
X161186715Y-93622857D01*
X161186715Y-93670476D01*
X161139096Y-93765714D01*
X161091477Y-93813333D01*
X160996239Y-93860952D01*
X160805762Y-93860952D01*
X160710524Y-93908571D01*
X160662905Y-93956190D01*
X160615286Y-94051429D01*
X160615286Y-94241905D01*
X160662905Y-94337143D01*
X160710524Y-94384762D01*
X160805762Y-94432381D01*
X160996239Y-94432381D01*
X161091477Y-94384762D01*
X161139096Y-94337143D01*
X161186715Y-94241905D01*
X161186715Y-94051429D01*
X161139096Y-93956190D01*
X161091477Y-93908571D01*
X160996239Y-93860952D01*
X156059143Y-85129666D02*
X156106762Y-85177285D01*
X156154381Y-85320142D01*
X156154381Y-85415380D01*
X156106762Y-85558238D01*
X156011524Y-85653476D01*
X155916286Y-85701095D01*
X155725810Y-85748714D01*
X155582952Y-85748714D01*
X155392476Y-85701095D01*
X155297238Y-85653476D01*
X155202000Y-85558238D01*
X155154381Y-85415380D01*
X155154381Y-85320142D01*
X155202000Y-85177285D01*
X155249619Y-85129666D01*
X156154381Y-84653476D02*
X156154381Y-84463000D01*
X156106762Y-84367761D01*
X156059143Y-84320142D01*
X155916286Y-84224904D01*
X155725810Y-84177285D01*
X155344857Y-84177285D01*
X155249619Y-84224904D01*
X155202000Y-84272523D01*
X155154381Y-84367761D01*
X155154381Y-84558238D01*
X155202000Y-84653476D01*
X155249619Y-84701095D01*
X155344857Y-84748714D01*
X155582952Y-84748714D01*
X155678190Y-84701095D01*
X155725810Y-84653476D01*
X155773429Y-84558238D01*
X155773429Y-84367761D01*
X155725810Y-84272523D01*
X155678190Y-84224904D01*
X155582952Y-84177285D01*
X151376143Y-83415143D02*
X151328524Y-83462762D01*
X151185667Y-83510381D01*
X151090429Y-83510381D01*
X150947571Y-83462762D01*
X150852333Y-83367524D01*
X150804714Y-83272286D01*
X150757095Y-83081810D01*
X150757095Y-82938952D01*
X150804714Y-82748476D01*
X150852333Y-82653238D01*
X150947571Y-82558000D01*
X151090429Y-82510381D01*
X151185667Y-82510381D01*
X151328524Y-82558000D01*
X151376143Y-82605619D01*
X152328524Y-83510381D02*
X151757095Y-83510381D01*
X152042809Y-83510381D02*
X152042809Y-82510381D01*
X151947571Y-82653238D01*
X151852333Y-82748476D01*
X151757095Y-82796095D01*
X152947571Y-82510381D02*
X153042810Y-82510381D01*
X153138048Y-82558000D01*
X153185667Y-82605619D01*
X153233286Y-82700857D01*
X153280905Y-82891333D01*
X153280905Y-83129429D01*
X153233286Y-83319905D01*
X153185667Y-83415143D01*
X153138048Y-83462762D01*
X153042810Y-83510381D01*
X152947571Y-83510381D01*
X152852333Y-83462762D01*
X152804714Y-83415143D01*
X152757095Y-83319905D01*
X152709476Y-83129429D01*
X152709476Y-82891333D01*
X152757095Y-82700857D01*
X152804714Y-82605619D01*
X152852333Y-82558000D01*
X152947571Y-82510381D01*
X157472143Y-94337143D02*
X157424524Y-94384762D01*
X157281667Y-94432381D01*
X157186429Y-94432381D01*
X157043571Y-94384762D01*
X156948333Y-94289524D01*
X156900714Y-94194286D01*
X156853095Y-94003810D01*
X156853095Y-93860952D01*
X156900714Y-93670476D01*
X156948333Y-93575238D01*
X157043571Y-93480000D01*
X157186429Y-93432381D01*
X157281667Y-93432381D01*
X157424524Y-93480000D01*
X157472143Y-93527619D01*
X158424524Y-94432381D02*
X157853095Y-94432381D01*
X158138809Y-94432381D02*
X158138809Y-93432381D01*
X158043571Y-93575238D01*
X157948333Y-93670476D01*
X157853095Y-93718095D01*
X159376905Y-94432381D02*
X158805476Y-94432381D01*
X159091190Y-94432381D02*
X159091190Y-93432381D01*
X158995952Y-93575238D01*
X158900714Y-93670476D01*
X158805476Y-93718095D01*
X135866143Y-92082857D02*
X135913762Y-92130476D01*
X135961381Y-92273333D01*
X135961381Y-92368571D01*
X135913762Y-92511429D01*
X135818524Y-92606667D01*
X135723286Y-92654286D01*
X135532810Y-92701905D01*
X135389952Y-92701905D01*
X135199476Y-92654286D01*
X135104238Y-92606667D01*
X135009000Y-92511429D01*
X134961381Y-92368571D01*
X134961381Y-92273333D01*
X135009000Y-92130476D01*
X135056619Y-92082857D01*
X135961381Y-91130476D02*
X135961381Y-91701905D01*
X135961381Y-91416191D02*
X134961381Y-91416191D01*
X135104238Y-91511429D01*
X135199476Y-91606667D01*
X135247095Y-91701905D01*
X135056619Y-90749524D02*
X135009000Y-90701905D01*
X134961381Y-90606667D01*
X134961381Y-90368571D01*
X135009000Y-90273333D01*
X135056619Y-90225714D01*
X135151857Y-90178095D01*
X135247095Y-90178095D01*
X135389952Y-90225714D01*
X135961381Y-90797143D01*
X135961381Y-90178095D01*
X147058143Y-78525643D02*
X147010524Y-78573262D01*
X146867667Y-78620881D01*
X146772429Y-78620881D01*
X146629571Y-78573262D01*
X146534333Y-78478024D01*
X146486714Y-78382786D01*
X146439095Y-78192310D01*
X146439095Y-78049452D01*
X146486714Y-77858976D01*
X146534333Y-77763738D01*
X146629571Y-77668500D01*
X146772429Y-77620881D01*
X146867667Y-77620881D01*
X147010524Y-77668500D01*
X147058143Y-77716119D01*
X148010524Y-78620881D02*
X147439095Y-78620881D01*
X147724809Y-78620881D02*
X147724809Y-77620881D01*
X147629571Y-77763738D01*
X147534333Y-77858976D01*
X147439095Y-77906595D01*
X148343857Y-77620881D02*
X148962905Y-77620881D01*
X148629571Y-78001833D01*
X148772429Y-78001833D01*
X148867667Y-78049452D01*
X148915286Y-78097071D01*
X148962905Y-78192310D01*
X148962905Y-78430405D01*
X148915286Y-78525643D01*
X148867667Y-78573262D01*
X148772429Y-78620881D01*
X148486714Y-78620881D01*
X148391476Y-78573262D01*
X148343857Y-78525643D01*
X138803143Y-78462143D02*
X138755524Y-78509762D01*
X138612667Y-78557381D01*
X138517429Y-78557381D01*
X138374571Y-78509762D01*
X138279333Y-78414524D01*
X138231714Y-78319286D01*
X138184095Y-78128810D01*
X138184095Y-77985952D01*
X138231714Y-77795476D01*
X138279333Y-77700238D01*
X138374571Y-77605000D01*
X138517429Y-77557381D01*
X138612667Y-77557381D01*
X138755524Y-77605000D01*
X138803143Y-77652619D01*
X139755524Y-78557381D02*
X139184095Y-78557381D01*
X139469809Y-78557381D02*
X139469809Y-77557381D01*
X139374571Y-77700238D01*
X139279333Y-77795476D01*
X139184095Y-77843095D01*
X140612667Y-77890714D02*
X140612667Y-78557381D01*
X140374571Y-77509762D02*
X140136476Y-78224048D01*
X140755524Y-78224048D01*
X167536905Y-76652381D02*
X167536905Y-75652381D01*
X167917858Y-75652381D01*
X168013096Y-75700000D01*
X168060715Y-75747619D01*
X168108334Y-75842857D01*
X168108334Y-75985714D01*
X168060715Y-76080952D01*
X168013096Y-76128571D01*
X167917858Y-76176190D01*
X167536905Y-76176190D01*
X168441667Y-75652381D02*
X169060715Y-75652381D01*
X168727381Y-76033333D01*
X168870239Y-76033333D01*
X168965477Y-76080952D01*
X169013096Y-76128571D01*
X169060715Y-76223810D01*
X169060715Y-76461905D01*
X169013096Y-76557143D01*
X168965477Y-76604762D01*
X168870239Y-76652381D01*
X168584524Y-76652381D01*
X168489286Y-76604762D01*
X168441667Y-76557143D01*
X167536905Y-102052381D02*
X167536905Y-101052381D01*
X167917858Y-101052381D01*
X168013096Y-101100000D01*
X168060715Y-101147619D01*
X168108334Y-101242857D01*
X168108334Y-101385714D01*
X168060715Y-101480952D01*
X168013096Y-101528571D01*
X167917858Y-101576190D01*
X167536905Y-101576190D01*
X168965477Y-101385714D02*
X168965477Y-102052381D01*
X168727381Y-101004762D02*
X168489286Y-101719048D01*
X169108334Y-101719048D01*
X113561905Y-76652381D02*
X113561905Y-75652381D01*
X113942858Y-75652381D01*
X114038096Y-75700000D01*
X114085715Y-75747619D01*
X114133334Y-75842857D01*
X114133334Y-75985714D01*
X114085715Y-76080952D01*
X114038096Y-76128571D01*
X113942858Y-76176190D01*
X113561905Y-76176190D01*
X114466667Y-75652381D02*
X115133334Y-75652381D01*
X114704762Y-76652381D01*
X119276905Y-102052381D02*
X119276905Y-101052381D01*
X119657858Y-101052381D01*
X119753096Y-101100000D01*
X119800715Y-101147619D01*
X119848334Y-101242857D01*
X119848334Y-101385714D01*
X119800715Y-101480952D01*
X119753096Y-101528571D01*
X119657858Y-101576190D01*
X119276905Y-101576190D01*
X120419762Y-101480952D02*
X120324524Y-101433333D01*
X120276905Y-101385714D01*
X120229286Y-101290476D01*
X120229286Y-101242857D01*
X120276905Y-101147619D01*
X120324524Y-101100000D01*
X120419762Y-101052381D01*
X120610239Y-101052381D01*
X120705477Y-101100000D01*
X120753096Y-101147619D01*
X120800715Y-101242857D01*
X120800715Y-101290476D01*
X120753096Y-101385714D01*
X120705477Y-101433333D01*
X120610239Y-101480952D01*
X120419762Y-101480952D01*
X120324524Y-101528571D01*
X120276905Y-101576190D01*
X120229286Y-101671429D01*
X120229286Y-101861905D01*
X120276905Y-101957143D01*
X120324524Y-102004762D01*
X120419762Y-102052381D01*
X120610239Y-102052381D01*
X120705477Y-102004762D01*
X120753096Y-101957143D01*
X120800715Y-101861905D01*
X120800715Y-101671429D01*
X120753096Y-101576190D01*
X120705477Y-101528571D01*
X120610239Y-101480952D01*
X138501381Y-101036286D02*
X137501381Y-101036286D01*
X137501381Y-100655333D01*
X137549000Y-100560095D01*
X137596619Y-100512476D01*
X137691857Y-100464857D01*
X137834714Y-100464857D01*
X137929952Y-100512476D01*
X137977571Y-100560095D01*
X138025190Y-100655333D01*
X138025190Y-101036286D01*
X138501381Y-99512476D02*
X138501381Y-100083905D01*
X138501381Y-99798191D02*
X137501381Y-99798191D01*
X137644238Y-99893429D01*
X137739476Y-99988667D01*
X137787095Y-100083905D01*
X137501381Y-98893429D02*
X137501381Y-98798190D01*
X137549000Y-98702952D01*
X137596619Y-98655333D01*
X137691857Y-98607714D01*
X137882333Y-98560095D01*
X138120429Y-98560095D01*
X138310905Y-98607714D01*
X138406143Y-98655333D01*
X138453762Y-98702952D01*
X138501381Y-98798190D01*
X138501381Y-98893429D01*
X138453762Y-98988667D01*
X138406143Y-99036286D01*
X138310905Y-99083905D01*
X138120429Y-99131524D01*
X137882333Y-99131524D01*
X137691857Y-99083905D01*
X137596619Y-99036286D01*
X137549000Y-98988667D01*
X137501381Y-98893429D01*
X154920381Y-74582286D02*
X153920381Y-74582286D01*
X153920381Y-74201333D01*
X153968000Y-74106095D01*
X154015619Y-74058476D01*
X154110857Y-74010857D01*
X154253714Y-74010857D01*
X154348952Y-74058476D01*
X154396571Y-74106095D01*
X154444190Y-74201333D01*
X154444190Y-74582286D01*
X154920381Y-73058476D02*
X154920381Y-73629905D01*
X154920381Y-73344191D02*
X153920381Y-73344191D01*
X154063238Y-73439429D01*
X154158476Y-73534667D01*
X154206095Y-73629905D01*
X154920381Y-72106095D02*
X154920381Y-72677524D01*
X154920381Y-72391810D02*
X153920381Y-72391810D01*
X154063238Y-72487048D01*
X154158476Y-72582286D01*
X154206095Y-72677524D01*
X143051234Y-78493881D02*
X142717900Y-78017690D01*
X142479805Y-78493881D02*
X142479805Y-77493881D01*
X142860758Y-77493881D01*
X142955996Y-77541500D01*
X143003615Y-77589119D01*
X143051234Y-77684357D01*
X143051234Y-77827214D01*
X143003615Y-77922452D01*
X142955996Y-77970071D01*
X142860758Y-78017690D01*
X142479805Y-78017690D01*
X144003615Y-78493881D02*
X143432186Y-78493881D01*
X143717900Y-78493881D02*
X143717900Y-77493881D01*
X143622662Y-77636738D01*
X143527424Y-77731976D01*
X143432186Y-77779595D01*
X143597334Y-94432381D02*
X143264000Y-93956190D01*
X143025905Y-94432381D02*
X143025905Y-93432381D01*
X143406858Y-93432381D01*
X143502096Y-93480000D01*
X143549715Y-93527619D01*
X143597334Y-93622857D01*
X143597334Y-93765714D01*
X143549715Y-93860952D01*
X143502096Y-93908571D01*
X143406858Y-93956190D01*
X143025905Y-93956190D01*
X143978286Y-93527619D02*
X144025905Y-93480000D01*
X144121143Y-93432381D01*
X144359239Y-93432381D01*
X144454477Y-93480000D01*
X144502096Y-93527619D01*
X144549715Y-93622857D01*
X144549715Y-93718095D01*
X144502096Y-93860952D01*
X143930667Y-94432381D01*
X144549715Y-94432381D01*
X151836381Y-89701666D02*
X151360190Y-90035000D01*
X151836381Y-90273095D02*
X150836381Y-90273095D01*
X150836381Y-89892142D01*
X150884000Y-89796904D01*
X150931619Y-89749285D01*
X151026857Y-89701666D01*
X151169714Y-89701666D01*
X151264952Y-89749285D01*
X151312571Y-89796904D01*
X151360190Y-89892142D01*
X151360190Y-90273095D01*
X150836381Y-89368333D02*
X150836381Y-88749285D01*
X151217333Y-89082619D01*
X151217333Y-88939761D01*
X151264952Y-88844523D01*
X151312571Y-88796904D01*
X151407810Y-88749285D01*
X151645905Y-88749285D01*
X151741143Y-88796904D01*
X151788762Y-88844523D01*
X151836381Y-88939761D01*
X151836381Y-89225476D01*
X151788762Y-89320714D01*
X151741143Y-89368333D01*
X155011381Y-85129666D02*
X154535190Y-85463000D01*
X155011381Y-85701095D02*
X154011381Y-85701095D01*
X154011381Y-85320142D01*
X154059000Y-85224904D01*
X154106619Y-85177285D01*
X154201857Y-85129666D01*
X154344714Y-85129666D01*
X154439952Y-85177285D01*
X154487571Y-85224904D01*
X154535190Y-85320142D01*
X154535190Y-85701095D01*
X154344714Y-84272523D02*
X155011381Y-84272523D01*
X153963762Y-84510619D02*
X154678048Y-84748714D01*
X154678048Y-84129666D01*
X147701095Y-94829381D02*
X147701095Y-95638905D01*
X147748714Y-95734143D01*
X147796333Y-95781762D01*
X147891571Y-95829381D01*
X148082048Y-95829381D01*
X148177286Y-95781762D01*
X148224905Y-95734143D01*
X148272524Y-95638905D01*
X148272524Y-94829381D01*
X149272524Y-95829381D02*
X148701095Y-95829381D01*
X148986809Y-95829381D02*
X148986809Y-94829381D01*
X148891571Y-94972238D01*
X148796333Y-95067476D01*
X148701095Y-95115095D01*
X143256095Y-90511381D02*
X143256095Y-91320905D01*
X143303714Y-91416143D01*
X143351333Y-91463762D01*
X143446571Y-91511381D01*
X143637048Y-91511381D01*
X143732286Y-91463762D01*
X143779905Y-91416143D01*
X143827524Y-91320905D01*
X143827524Y-90511381D01*
X144256095Y-90606619D02*
X144303714Y-90559000D01*
X144398952Y-90511381D01*
X144637048Y-90511381D01*
X144732286Y-90559000D01*
X144779905Y-90606619D01*
X144827524Y-90701857D01*
X144827524Y-90797095D01*
X144779905Y-90939952D01*
X144208476Y-91511381D01*
X144827524Y-91511381D01*
X157470190Y-89911191D02*
X157946381Y-89911191D01*
X156946381Y-90244524D02*
X157470190Y-89911191D01*
X156946381Y-89577857D01*
X157946381Y-88720714D02*
X157946381Y-89292143D01*
X157946381Y-89006429D02*
X156946381Y-89006429D01*
X157089238Y-89101667D01*
X157184476Y-89196905D01*
X157232095Y-89292143D01*
X126765727Y-93063261D02*
X126432393Y-92587070D01*
X126194298Y-93063261D02*
X126194298Y-92063261D01*
X126575251Y-92063261D01*
X126670489Y-92110880D01*
X126718108Y-92158499D01*
X126765727Y-92253737D01*
X126765727Y-92396594D01*
X126718108Y-92491832D01*
X126670489Y-92539451D01*
X126575251Y-92587070D01*
X126194298Y-92587070D01*
X127194298Y-92539451D02*
X127527632Y-92539451D01*
X127670489Y-93063261D02*
X127194298Y-93063261D01*
X127194298Y-92063261D01*
X127670489Y-92063261D01*
X128432394Y-92539451D02*
X128099060Y-92539451D01*
X128099060Y-93063261D02*
X128099060Y-92063261D01*
X128575251Y-92063261D01*
X129099060Y-92063261D02*
X129099060Y-92301356D01*
X128860965Y-92206118D02*
X129099060Y-92301356D01*
X129337156Y-92206118D01*
X128956203Y-92491832D02*
X129099060Y-92301356D01*
X129241918Y-92491832D01*
X129860965Y-92063261D02*
X129860965Y-92301356D01*
X129622870Y-92206118D02*
X129860965Y-92301356D01*
X130099061Y-92206118D01*
X129718108Y-92491832D02*
X129860965Y-92301356D01*
X130003823Y-92491832D01*
X165666667Y-86402101D02*
X165333333Y-85925910D01*
X165095238Y-86402101D02*
X165095238Y-85402101D01*
X165476191Y-85402101D01*
X165571429Y-85449720D01*
X165619048Y-85497339D01*
X165666667Y-85592577D01*
X165666667Y-85735434D01*
X165619048Y-85830672D01*
X165571429Y-85878291D01*
X165476191Y-85925910D01*
X165095238Y-85925910D01*
X166095238Y-85878291D02*
X166428572Y-85878291D01*
X166571429Y-86402101D02*
X166095238Y-86402101D01*
X166095238Y-85402101D01*
X166571429Y-85402101D01*
X167333334Y-85878291D02*
X167000000Y-85878291D01*
X167000000Y-86402101D02*
X167000000Y-85402101D01*
X167476191Y-85402101D01*
X168000000Y-85402101D02*
X168000000Y-85640196D01*
X167761905Y-85544958D02*
X168000000Y-85640196D01*
X168238096Y-85544958D01*
X167857143Y-85830672D02*
X168000000Y-85640196D01*
X168142858Y-85830672D01*
X168761905Y-85402101D02*
X168761905Y-85640196D01*
X168523810Y-85544958D02*
X168761905Y-85640196D01*
X169000001Y-85544958D01*
X168619048Y-85830672D02*
X168761905Y-85640196D01*
X168904763Y-85830672D01*
M02*
