G04 #@! TF.FileFunction,Profile,NP*
%FSLAX46Y46*%
G04 Gerber Fmt 4.6, Leading zero omitted, Abs format (unit mm)*
G04 Created by KiCad (PCBNEW 4.0.2-stable) date 2016年09月17日 星期六 10:25:48*
%MOMM*%
G01*
G04 APERTURE LIST*
%ADD10C,0.100000*%
%ADD11C,0.150000*%
G04 APERTURE END LIST*
D10*
D11*
X181152800Y-73660000D02*
X180848000Y-73660000D01*
X181152800Y-103886000D02*
X181152800Y-73660000D01*
X180848000Y-103886000D02*
X181152800Y-103886000D01*
X107696000Y-73787000D02*
X107696000Y-103886000D01*
X167640000Y-73660000D02*
X180848000Y-73660000D01*
X166370000Y-67945000D02*
X166370000Y-72390000D01*
X166370000Y-72390000D02*
G75*
G03X167640000Y-73660000I1270000J0D01*
G01*
X166370000Y-67945000D02*
G75*
G03X165100000Y-66675000I-1270000J0D01*
G01*
X118745000Y-67945000D02*
X118745000Y-72517000D01*
X117475000Y-73787000D02*
X107696000Y-73787000D01*
X117475000Y-73787000D02*
G75*
G03X118745000Y-72517000I0J1270000D01*
G01*
X120015000Y-66675000D02*
G75*
G03X118745000Y-67945000I0J-1270000D01*
G01*
X151130000Y-103886000D02*
X180848000Y-103886000D01*
X107696000Y-103886000D02*
X137414000Y-103886000D01*
X149098000Y-107442000D02*
X139446000Y-107442000D01*
X150114000Y-104902000D02*
X150114000Y-106426000D01*
X151130000Y-103886000D02*
G75*
G03X150114000Y-104902000I0J-1016000D01*
G01*
X149098000Y-107442000D02*
G75*
G03X150114000Y-106426000I0J1016000D01*
G01*
X138430000Y-104902000D02*
X138430000Y-106426000D01*
X138430000Y-106426000D02*
G75*
G03X139446000Y-107442000I1016000J0D01*
G01*
X138430000Y-104902000D02*
G75*
G03X137414000Y-103886000I-1016000J0D01*
G01*
X165100000Y-66675000D02*
X120015000Y-66675000D01*
M02*
